<mxfile host="app.diagrams.net" modified="2024-02-02T06:58:36.163Z" agent="Mozilla/5.0 (Windows NT 10.0; Win64; x64) AppleWebKit/537.36 (KHTML, like Gecko) Chrome/120.0.0.0 Safari/537.36" etag="4kPUfVEyv8TDe5N1Y-qW" version="23.1.1" type="github">
  <diagram name="Page-1" id="x2MQtDMvVtJjK4zgv-bn">
    <mxGraphModel dx="1434" dy="746" grid="1" gridSize="10" guides="1" tooltips="1" connect="1" arrows="1" fold="1" page="1" pageScale="1" pageWidth="827" pageHeight="1169" math="0" shadow="0">
      <root>
        <mxCell id="0" />
        <mxCell id="1" parent="0" />
        <mxCell id="5VXbH5QCggrDfbLO163V-1" value="" style="shape=image;verticalLabelPosition=bottom;labelBackgroundColor=default;verticalAlign=top;aspect=fixed;imageAspect=0;image=data:image/png,iVBORw0KGgoAAAANSUhEUgAAAyUAAAIeCAYAAAClXqBFAAAAAXNSR0IArs4c6QAAAARnQU1BAACxjwv8YQUAAAAJcEhZcwAAFxEAABcRAcom8z8AAP+lSURBVHhe7P0HcF1HducBz9Zu1Vbt7rdb325t2f5s73od1l6PPfaMR+PxaGakUc6iRIkUo5hzzjnnnHPOOWeCBAGQIAGQAJFzjgRzjsD5+nfeuxBEPpCgBEoAeH6q1nu37719+/Yj3uv/PX3O+YkYhmH8iJRcviXxmRclJCZflu9LlOmbz8u0TedlqisLdibJ7G0JMm0jdTEyc8t52Xw8TSKTiiUl94rcuH3f34phGIZhGHUZEyWGYfzgXLt5T6KcsNh4NE1WH0qXtUHZsi+iRE6n3JD4/PuSUvRQMkvLJfeySI4r6RfKJLnwgZzPuSsn4q7ItpMFsupwpjs3TXaGZkp6/hV59KjM37phGIZhGHUNEyWGYfxg3LxzX07FF8qK/cmy9miWhCVdk9TiR5J5sVzFR9alcskoLZMMJ0LSLzyStBJfQZRQj1DJvuQTKrxPcALm4NkLsmRfqmw5liZJ7DQMwzAMo85hosQwjB+E8+mlsnRvouw4WSDxefd8IsSJkcri43kLYsUTKGfSbsqqwxmy2YmTC1du+69qGIZhGEZdwESJYRgvlAePyiTobL4s3pssEWm31NKBiAgkMr5rQdggcDJcu/siS2TxniRJzHZqxTAMwzCMOoGJEsMwXhjXb92XtYeTZfOJXBUPWU6QPC4oarJ4lpOzmbdl0Z5kOX4uX8rL/Z0xDMMwDKPWYqLEMIwXws3b92XNoWTZGV7ot2KUBRQSL6JkXyqXpMIHsnR/qpyIyff3yDAMwzCM2oqJEsMwapz7Dx/JxqOpsuZIli7XwnE9kHh4kQUhlFBwX2ZsiZOYtAv+nhmGYRiGURsxUWIYRo1SVl4u4fGFMmdHgj+07w8vSLxCNC8ifJHf5NK1O/4eGoZhGIZR2zBRYhhGjXLp+l2ZuiFaTiZfk5wX7ENSnUK44Y3BObLmYJK/h4ZhGIZh1DZMlBiGUWPgVH4qrkBmb08Qgl8FEgk/dGEZF1G/pm2MlovXLFSwYRiGYdRGTJQYhlFj3HvwSOZuj5Uj0aWSVcNhf79rISJXSvFDWbY/TfaczPT31DAMwzCM2oSJEsMwagwibk3bGCMJBQ9UDAQSCT9GIUzw3jMlsvZQsr+nhmEYhmHUJkyUGIZRY6TlX5GpG2LUwb22iZLD0RdlwY5YuXf/kb+3hmEYhmHUFkyUGIZRYwRH58uCXYmSWuxbNhVIIPwYhbwlYYnXZM62WMm7cMPfW8MwDMMwagsmSgzDqDFOxRXK7O3x6sNRu0SJE0xxV2TOlhgpuXzL31vDMAzDMGoLJkoMw6gx8ktvyOQN0ZJcy5Zv5V4WORBVKot3xUlZWbm/t4ZhGIZh1BZMlBiGUWPcufdQpm+KkfM5dyXjR0ya+HghieLOU4Wy4UiKv6eGYRiGYdQmTJQYhlFjPHhYJsv2JsiOk/kqBAIJhB+6II4S8u+rr0vwuTx/Tw3DMAzDqE2YKDEMo0ZJyLokUzael0wnBmrDEi6SJ4YlXpXpm6LVkmMYhmEYRu3DRIlhGDXK7bsPZMmeBNkfWSJ5V37crO7pFx5JhitL96fKkchcfw8NwzAMw6htmCgxDKPGSc+/IjO3xsq5zFuSffnHEya+pInFsnRPvC4tMwzDMAyjdmKixDCMalNeXi6PysrkoZvgP3j4KGB56EqZO+7QmSxZuCdZrRWZpT+8fwlhgKPSb8m0jdGSV3Jd+x2ov155+KhMHrnCPRqGYRiG8cNiosQwjIAwUc8tuSFnU0ok7HyBHI7Mkz2ncmT3yRzZHpolW05kytanlC3BmTJjS6ysOJiueUt+SMf33Csi4SnX3fXjZPGeRO1voD56hXvZGZYtO0Oz5cDpPDl2Nl9OxxfJ+fRSKbx0U0WWYRiGYRgvDhMlhmFUcPf+Q0nLuyoHz+TKhqB02RScLdvCCuRIdKkcj72sWdEj02/K2azbcjbz6SU6+47E5d2THScLZF1QlpzPuaNiIZCIqKmCcz1LtoLjLsnyA2kSHH9Z4vPvV6u/lMj0W3I69YaExF+Rg2cvyLbQPDcGWbLpeLoERxeoxcUsKYZhGIZR85goMQxDbt65L+HxhbLxWIZsDsmVk0nX5HzuXUkp9vllUFgORSQrlmIx+a9u4VysFisOpsnhcxck3YkH2sqowchc9Cn7UrnEuT5vCs7RklhwX69NSOBA/Qpc3L25e8Sq491zStFDJ7DuytGYi7LZibTdJ7MkMeuSiRPDMAzDqEFMlBjGy4ybWEenlcr2kGyNlnUu645OxJmYIxrwBwkkAp630B6CYcuJXNnoBENIwlVJLnrgEydODBA6+HmuxfH0D5FEGzHZd+Rw9AVZfSRDDqnwcftdu4HOfd6i13JtIVS4j/DUG7LzZL7sDsuWvAs3/ANpGIZhGMb3wUSJYbyk3Lh9Xw5F5Mq2sHzNwE6ULCbdgSbmNVF81gyRiLQbsjk4V1YeSpc9p4skOvO2WjUQGYGtMuUV4sPbl1b8UBLy7smp5GtqFVl1KEP2nCmUhPx7esyLzI+i/UKcpNyUTcezJcaJOrOaGIZhGMb3w0SJYbyEFF++JeuPpklw3BW1ANSUVaE6xZvUn824LQeiLsiGY9my6nC6bD6RK/siiuXY+UsSmnBFTqfckHNOsERl3FLxcSL+ivq27DpVKBuCslTU4PPB8WRsR6z80PfB9ejPgdM5lpjRMAzDML4HJkoM4yUjq/CarD2S7ib6N1SQ1NQSrecpXphgndhfKNPlV8fjLsnu8EIVJxuPZ6tzPK+IlvWubDyeI1tDfMIFkYJ1paKNH1CMVC5YZLj+4XOlsjssS31zDMMwDMN4fkyUGMZLRPGlW7LqYIqEJ1+XHJZBBZho/xgFUeEtz/IEBg7mSYUPJNmV1OKHKmQQABzjE1M/jhB5vPj6JXIgslh2hmZoPhTDMAzDMJ4PEyWG8ZLA8qLNx9JkX0SJTuwDTbBrQyE6FxN9RMe3S+Dja0Ohz4gprDphsYX+ETcMwzAMo7qYKDGMl4TIpGJNZMhT/dpiZahPBVESk31XluxNktKrd/yjbhiGYRhGdTBRYhgvAbfuPJBl+xLlVPL1Fxph62Uuat1xwmRfZLHsC8/2j7xhGIZhGNXBRIlhvASk5F6WxXuSX5hDOJaX/Bsipfd9pfAWviHfTfxkXhTJvVZ7l5c9rSD4otJvyZpDKXLjljm9G4ZhGEZ1MVFiGPUccmjsP50jB6JKXogoQURkXxHZsPuE9B0yXvoOHS/zlm+V85nXVKzkuH25V30iI+uSSJ4THJ6fSP51kaLbrs69sk2ulMS823L0dIpkumOpy3J1RU7kIHR4n1r8SI9DuNAW+/Qald57faNftF9ZJHEtSsFNX7+9Y2uiML6EJ954PFPOp5f6PwHDMAzDMJ6FiRLDqOc8elQmKw8ky/HYyzUuSjIvlUty4X0ZPHqaNGzSShau2i4rtxySDt0GyNCxMyS54J6ExxdI8NksSXNiIjK5VI6EJ0ti/h0VMwdC42X5pgOy/0SsCpbTCUXSpGVHefuDBrI/JE5FS3TGVVm2YZ+s3HxI3yM+TsUVyImzmbLneLSs2npYzzsYlqDHRLlr0BZC6ExisZ67dscx7S/C5HB4kh67dnuQHItIU+Hz+H191+I56G8JyZPDETn+T8AwDMMwjGdhosQw6jn3HzySedvjJDL9Zo2KEibfWCrW7Tguv3vjXdm8L0wuPfRZK7BopBQ90GN6Dhwlzdp0lZTCBzJj0Tp5872PnUjJlMVrd8vrb38gXXoPlcYt2suW/SedSEiXX7/6uvzLr15126Fy6GSCtOrQQzp2Hyit2vdw73tKWEyWDBs7U15/6wOZOGuZvP9pI/ntH96R4eNnS4MvW8gf3v5QIpNKnPhJklYde0rvQWOkaatOTjhNl3Npl+W1N9+XV197S0ZMmCO7jkbWuFAjtPH2sALZGpzm/wQMwzAMw3gWJkoMo55z/8FDmbMtVuLy7mmiwkAT6e9SEBxYI2YsWi9vvPuRhJ7LVssG+1hC5S3T6uVEwddOTKQWPZTZSzfLex83lBB37PQFa+W//4//qUJi4uzlcjwyTZdT9RowWoUKFhEsLggW2s24UC6fftlceg0cI0PGzpAvmrbRNldvOSKv/v5Nn+UkOEb+91/8lew8GiWdew2Rf/rFr2TqvFXSre8w+cd/fkV2BZ2VN9/9WNp07i0X7okU3Kh53xXCLe8+XSzbgtP9n4BhGIZhGM/CRIlh1HOwlEzZGC2xuU6U1LBVAFGy1wkBLB6zl2yUy49ELj4QOZt6SYLOpOoxiJKW7XuosJjiBMJrb77nBEiGnIzNkRWb9sqEmcvkz//3X6n4iE6/Ip16DHKCYrD6fHTqOUgaNW+rAoflXx9/3kR6DxonQ8bNlOZtukpi3h1ZvGa3vP3+pxIclSFbDpySv/m/fy97j0dLlz7D5J//5V9V/MxavE4mzVomodE5ainp2GOgLh/LKK15UZLrhNWOU4Wy8WiK/xMwDMMwDONZmCgxjHoOomTqCxIl6aXlOrlfvumgiodufYdLv6ET5I13PpKRk+a6fY9k9dYj8rs/vCt9Bo+TL5q2lt/87g0JdqJk+cb9urxq2NhZ8uZ7n6gPSkrRLRk+fqb88y9/LQtWbZPDp5Kkbec+0saVr52wof3T8bnu2JnylRMxCbm3ZdHqXXo9/EM27z8pf/GXfyMHQuKcSEnT8zinedsuMmXuKjmfdV1++/o70r5bPxMlhmEYhlGLMFFiGPWcFylKKCzRwqpxOqFYnc5Xbj6o1hMiZGVe9F3vYGi8rN8VrMIhNCZXEvPvqijYHxIrq7Yckr3HYyS1+KFkXS7XqF2b94bJ7qBzugws1gkJhA3RvZLceVhNcGzH6sE5WFeOR6ar1SQ264Y6scfl3NTjolIuyuptR2XTnlB3rM/HJehMmpyMzdf3aSU1Px4mSgzDMAzj+TFRYhj1nBctSryCP0ihEycUlmphRaGeV3KYIFwQCviKpF8oV1HAth7v9hMZi3C/hAKmjuM4n0habHM+QsYLCZzjDzNMndcmlg+vLe2TO45wwJxfERLYHVs5bHBNFxMlhmEYhvH8mCgxjHrODyVKKheEBZN/RIK+dyIFgYDAUEHhJu4+S0Xg82uyeOGBf6jrmSgxDMMwjOfHRIlh1HN+SFHCxD/7crnsO3FeGjVrK/NWbJWdRyOlUfN2Gpa3eZsu6huyausRSSm+r4KBEMKaBf6mTzhg0eD9hbs+iwvHECmLYxA33nWInEVd8R2fFQQBhFWEZInU0258zi0ZPXmB+rlEp1/V4x7vc00XEyWGYRiG8fyYKDGMes4PLUqwgpCDBAf1mIyrsnjdbmnZvrtEJJW4/fc1dG/rTr3lQGicZFx4JHOWbpaeA0bLknV79Hx8SHCCHzZ+liZDPJ1YLEPGTNdj1u0Mdsf4kiCSpJG6iTOXapJGrrV84wGZMnel1q/ZFqT3GxSRJh26D5BTcYW61CtQv2uymCgxDMMwjOfHRIlh1HN+DFGybMN+tU7gT7Ji80EN5Tt7ySYnJPZqwsOe/UfJ0dMpMnnOSo2ktfPoac1lsmDVTjkWmS6fftFco3ERVrh7vxEydtoidZTH8nI29aIKmPZd+7nX3dLOvZIYEef6n//y32T8jCUywQkVIn0Rvet81g3pM2SchMcXmSgxDMMwjFqKiRLDqOf8WKKEEMDUIUrIvt536HgVGuOmL5bI5AuaXf2zRi3liyatnYAZ7d63UIsI0bO69B4iodHZuhRr3c7jKiooOw5HSErRfc1jgjXmmru/g6Hu+F5DZfmmA5p/hIhbLNvq647ffuiMxGRek96Dx5ooMQzDMIxajIkSw6jn/JiihJC9S9bvVZGBb8ilRyIld31O8CRY7NhzkBMpi9QiQvLFzXtD5dDJROnkRAchf1OK7mkW9iPhSZoYEaFB+OBRk+bJiAlz3P08kLnLtqq1ZOOeEOned7hEJF2QM4kl0nPASBMlhmEYhlFHMFFiGPWcH0OULF23VwaNnKqhejfsOSGDRk1RX5GMClFQ5gRCuS7hYnkW/icU8pkgRljSFR5X4Nq7JzMXrZcmX3eUVh17ybzlWyWp4JbmKSFT/JfN2momeBzrQ6KzZciYGRKVcknL6Mnztb3kwvvSd9gE8ykxDMMwjFqMiRLDqOf80KKE8LtE13rtrffV54O6wMf68ogk5t/R5VxJBfc01wn7sLDwSn8REiz1YlmW1jkxk+XO4xjqEvJu6zUrn0dJd4V9k2Ytd6Kmg1pPaosoefTokf+dYRiGYRhgosQw6jk/pCihIDbIqL7zSKQcCU9WUUK43kDHUoikhVioHK638nvOZz+lssCpOK+S0Hi8jeTCe3IgJE6Xh6UU3q/Y9yKLJ0o2BaX6PwEfmZmZsmzZMnn33Xfl9OnT/lrDMAzDMMBEiWHUc35oUUJBKJBZnaVcgfb/UMWz3PzQyRN3hhfJ2oMJcu3aNdm5c6e0adNG/uzP/kx+8pOfSKtWraSwsFD33bp1y/8pidy9e1frbt68KeXl5d+qu3HjRkXdvXv3KurKysq07v79+1p3/fr1iroHDx5U1HmWGerYrlz38OHDijreV67jfK+O47062gGuRT+oow9V1dF3r47+e3XcK3Xcp0egOsaJujt37vhrvqm7ffu2v0b0fVV1lceadh6ve9r4V6572vhX9Zm8qPGnribHv6rP5Mcef/peW8ffq6vr4+/VBRr/ynWBxv9pnwnj49W9yH//Xl2g8a9cV9PjX7nuhx7/p30mVY2/V+eNf+XP5Icc/6owUWIY9ZwfQ5S8zAVRcuDsZZm49JA0+Ph9FSJe+aM/+iM5f/68nDhxQvr27Svz58+v+DLft2+f9OvXT2bNmlXxg3j48GGtmzp1qv4wAef2799fJk6cqF/ygOVlwIABMnbsWLl40SlCx7lz52TQoEEyatQoKSoq0rq4uDgZMmSIDB8+XHJzc7UuNTVVhg0bpvUZGRlal52dLSNHjtTzk5OTta6goEBGjx6t14mNjdW6CxcuyLhx47SPUVFRWnflyhXtG/d36tQpreMHacqUKdKnTx85fvy41vEjPHPmTK07dOiQ1jEWc+fOld69e8uePXu0jh+0hQsXat3WrVu1DrA6Ubd+/Xp/jciaNWu0vVWrVvlrRDZu3Kh1S5Ysqfhx3r59e8X4ez+6e/fu1bpA4z9t2rSKCURwcPAT4x8eHq7jwlhcunRJ686ePVsx/sXFxVpXefzz8vK0LiUlRYYOHar1WNMgKytLRowY8cT401bl8S8pKXli/C9fdv/2XN+oo19QefzpPzD+M2bMqHL8GQ+oPP7btm3TOvDGf8OGDf4akdWrV2sdrx7e+C9durRiEkU7jPWCBQsqxp/P+/Hxp19Vjf+kSZMqxv/kyZNPjD/j4Y0/4wTe+DO2+fn5Wsf4Pj7+vHLM4MGD9fMBjvfGn3aAdvmbo4983sD4T5gwQes8i6g3/twff7/AZNUbf/6dAZO4OXPmVDn+/Lv18Maf8fXg3z3tVR5/Ph/qOL7y+FNHu9747969W/s3e/bsiomjN/7Tp0+vmGjz98v4T548WSepEBYWVjH+3D9ERkbKwIED9TuD7wng3603/vx7Bm/8Kfy7B76H+BupPP78vTD+tBkfH6913vjTH77vgM//8fGnn974h4SEaF3l8T9y5IjWMf7cP+PK9zEw8ebfKXU7duzQOuDfM3WbNm3y1/jGnzq+hzz4fnp8/Pke88bfEwfe+PP5e+N/8ODBJ8b/2LFjFePPvyvwxn/8+PEV4x8REfHE+PPbw5jy3e6Nf1JSUsX4870P6enpFePP7wPwe+GNf0JCgtbxveaNf3R0tNZVHv8zZ85oHX+n9Jf742/1aZgoMYx6jomSH7YgSnaFF8uaA/ESez5GJ1m/+c1v5D//5/+swoQfD764+ZLnR9X7obp69arW8UXvTZ75MufHGFHh1fFD5NV5P2gIFuqwwHiTDCZx1PHj4wkfftiYXFG8p1hMAL0678eQV87jfG+CyPFenfcDSbtckzpv0sj16Rv34gkp+unVeRMZ7od7pc6bXDIWjAl1jIcHP6rUeT+4UFpaqnXeJBQQZNR5wgy8seZ4D4QTdYHGn7pA4++NNf1/vK62jT913EtNjz/j5lET40+71Rn/yn8TP9T4s835NT3+3kSyuuNP3Yv691/V+Ht11R1/7zvphxp/zzrxtPGnrrrj7/1NPGv8a+rfP58jdT/W+FPnjT9j+fj4V/5Mqjv+3t/Es8afe/f6HQgTJYZRzzFR8sOWqnxKQkND9Snav/3bvz3zaZFhGIZh1Dew4nqWqUCYKDGMeo6Jkh+2eKKkquhbPDHznowahmEYxstCx44dZcuWLf6tJzFRYhj1HBMlP2x5ligxDMMwjJcRlrZ5S+0CYaLEMOo5Jkp+2GKixDAMwzCeBB8bEyWG8RJjouSHLSZKDMMwDONJbPmWYbzk1IQoSb9QLnnXRbIukUk98DHfp+RcdW1f/nFzmlBIuFh4S7R817wmJkoMwzAM40kIIeyFwA6EiRLDqOd8X1HC5Dy58L4cDIuXyORSJ0y+yZpeuTChJ1litiucw7aXbZ1tsq97x3EMx7KffWExuRKZUuqOKddtxA/7vXMQRbxHuHAubXCMdy3vGtluv9eudy3vON5T55V0t+31V/vqxia54J5s2HVCVm89LPG5t7Su8jnVKSZKDMMwDOP5MVFiGPWc7yNKPIGw80ikfPx5Exk7dZETBk44VGoHywliIaXogRyLSJMTZ7NUQCS5CT4Te45JKbovsdk3dPLPccejMiToTKqkufZjs65L2859ZMTEue7Y+5J7TVT8HD2dIvE5N9WKwvlJBXcl7HyehDoBQ79OxRW49zn6PuOiT5AgbmiXYxEcifl3JTr9il7vfOZ1d6yvz/SPciwyXftLv9hevHa3vPXeJzJ68nwTJYZhGIZRg5DUlHwlVWGixDDqOd9HlDBZT8i9LWOnLZJNe0Pd60LZcyxahYN3TKYTBPG512X6grXSom1X+bJZG1mx+aAsXb9PxkxdqFYWBEavgaPlxLksmTZvjbTr0leFyIyF6+VASJz8/o33pOFXreRMYrFs2X9KWrbrLs3bdJXWHXtJcFSmrN1xTD5r1EIGjpginzdqKb0HjXFlrHzyRTOZu3yrE04PZeWWQ/J1hx7Syp0zcOQUicm4IOvceV80aS1tOvWWg2EJrq9YRNw95d2U0VPmyycNm0qjZm1l/PQlKnjo/7/97g0nwqK+83IyEyWGYRiG8SRfffWVrF692r/1JCZKDKOe831ECdYGREiTrzvKup3B0nfIeBkyZoZO7L2lVwiU2Us2Sf/hE9USkVx4T0KjM2TOss0yZPQ0FSVHwpOlc8/BsisoSvoPmyjzVmyVnUdPy1GsJcUPZfi4WbJsw36Jy7klrTr0lA27T0jpPXHnT3fXmy6zlmyUT79srkJh9dYjKmhiMq7Jqi2HpUf/kRIUkS4fffaVTJy13ImnMGngjp08Z6Ws2HRQOnQf4ITVrQohRRtYfr5q2UHOpl5y17wpLdt3l6Xr9qpw6T98kiTlM1aBl6k9q5goMQzDMIwn2bRpk0RHR/u3nsREiWHUc76rKGFSnlx4Ryf9jZu3k75Dx0p39x6Bsu9ErE7y8fXgddSk+TLYCZD8GyIXnJjId3UIiSFjZ2jdvhPnpUXbbhKRdEHCzufKxJlLtd0pc1fJufQrMmjUVFm+8YAutWrWuoscPpUkBA2c7dpAJMxfuV2Gjpupba3ackhGTpyjFhxECefuD4mT9z/+Urr1Geb6Msf1dYLsOBwuS9btcdtzdSkWy7O4L5Z5bdwTIu269JNUJ4hos0ufoTJz0QYnlKKk16AxEpd900SJYRiGYfyAmCgxjHrOdxUl+HJgaWjaqpNaFNymXC0XFQQdewyU81nXdKKf6yr3Ho+Rrk4QjJu2WJdOTZ27UpdcYY0YM2WBDBgxWS0dTPonzFzmRMZWmTZ/jW+ZVeZlFR7d+43Q60yatVw69RzkBMsKXXpFH5Zt2Cc9B4yS/OsiS53Q6DdsgsRm3VDrRre+w10bV2XU5Hmub3Nl8dpdal0JOpMkC1bt0Gvgz+KJEpZwnUks0mVefQaP0/1tu/SVE2fTZOuBcOnork3bJkoMwzAMo+ZYv369nD171r/1JCZKDKOe890tJWVyKCxBlzSllTzUpVpZl8rkdEKRLq/CquG1xzIv/EZGTZ4vE2ctk3Npl3WZ1LaDp9VpHH+UPcej1fn9YGi8Cohx0xZJVMpFPZflXVhDsKTQHiIEgbH90Bndj1P7/pBYJyjK5GRsvvaJZWG83xsco4IjIe+2TFuwVs/DL4UoYTjFHzqZqMfSf+/ecN6PSCrRvk10IulUXKHkXRP1aaG9x49/nmKixDAMwzCepEmTJrJmzRr/1pOYKDGMes738im5KjpZ9yboRNpi+VPBjSdD7Oa6Y0vvi1y4+00oX5ZGUccrVg71QfGOu/dN3hPqim/7zmNJGHlCvPNoB4FDP7xIX76lY04k+es5JqNUpMRdW89z16KOvtJ2IIHBPq8fvNe2XX/Ix/JdBQnFRIlhGIZhPAn+JPn5+f6tJzFRYhj1HETJjC1xku0m75ceilx84JuIM4EnRweTcMQAk/JAk+yqCud5k3pK8R2fyAh0bE0WBEPBTZ+QYNsTSk8TE9QjVDwRVLkeUYOQ4h4QQ4gbrXfHMz7POy4mSgzDMAzj+TFRYhj1nEdl5dJ/+g7p0GOwdO0zVLr0GiJdeg/VSFo4oK/fGSxnUy+qWGEizsTasxpgvUC8YJGoPPHGSrJxd4i2Q5sU/EKCzqT5Jv9+ywNLrxAMHI91AwsL7WEBYeLPNXhf5K7jiRoEEtYN71q8RyjodS+US3zubc0nwnIx2s2+XK75UTbuPqGRtGgD0cJ1EBlsExFs28FwiUgsUaFBW1yf83ccjlCne+6BsMaJeXdc3x/qEjXaZVxoj+O5p0zGxfVVRZ3/Pnnl/grdcVceieyJuGCixDAMwzAqMWrUKDl06JB/60lMlBhGPefBwzIZvfSEbDlwWqNevf7WBzr5PnQyUnOEdOs7TOav2CYLV23x+234REFMxlVXt0NzieCA7lkmfJP5MukzZJx83b6H7D4eLbuDzmroYHxEgqMyJDL5gmunTEKjc9Tvg+hXJDXcvC9Mr7372DlthySJe935i9fskoWrd6qfCnVHnOBgGRfHIHSo5z2C4GzaZWn41dfqAI8IuOREw5rtR6XXgFFyzvWTsMRkZceRfv3O45JadF/2BZ+XN97+UEMMJ+YTicuXLHGRuy55VbYeOCUHQqNl+ITZ6rB/8ny+OsDjpL903U43dqf0+ixnO595zfXVjcui9ZqFHjGCz8uxiHRZs+2oLFu/U9YcSpYtxzP8n4BhGIZhGF26dJGtW7f6t57ERIlh1HN8y7dixc3F5fCpRE1ceOJctri5tDqWt2zXTXoPHisjJsyRDxs0UmESkVQgQ8dM1wzuw8bN1Ghbp+LydTKfXuoTC+zvOWC0hERna1Z0wuiS3wMLzPIN+9VKMXLSPJkyb6WEnMuRRs3bqpWG0MHvftRQdh09K5NnL5df/eb3MnnOCic0WrtrzVLn+M69Bquz/On4Ig3vG+L661lRfGGDO2ukL+7neGSiTJy9zB03XsXTys2HZPj42U5wbNXjsKrsDjonb3/QQJMvxufecG2Va0G0vP/Jl66Pq901suRIeJLsOBKh127TuY80btFexs9YKg2btNL8KHE5V6T3wDHSodsA6dp7mBNl3Z2IKpR5y7fJex83dKJmjvTsP1w+bt5bNh6K830AhmEYhmHIlStX5Pbt2/6tJzFRYhj1nAcPH8mCnfGSVFwue46d0+SE5AFhCdKp2Hxp37WfWgpYptRz4GjNgs7E/nd/eEcjWWEt+O3rb8vaHUEVS7EQJ4iL3/z+LWnnziek7sothyUh745aI7AYIEpIZjhz8XrNys5xB0Lj1A+le7+RmpdkxsJ1apm4/Ehk+6EIDdFLdK9p89fKln0nZcHKbRqVK/3CQ/91RWIyrzmB007ec8KGvnfs0U8++PRLFU4s3yJr/JQ5K13bq6XBly2cqFisIX6HjZ8pe49F6xI1z0+E5WUIM+4FsUYbKzYdUIHVte8wjeZF36a7fpKMcfPek+6YQbofKw1ibv7KHbJw9S7NMo8lJ6XwnnzavIcsXr/f/wkYhmEYhlFSUiI3btzwbz2JiRLDqOc8fFQmy/YmSkTGXV1m1bJddw2TiyhheVUvJ0QI08uEnyVZJBZct+O4fNqwmS5TwkIw2gkT/CtYkpVxoUwtJUPGTJPx0xdLid/Jnck+CQ2xnjCxR+QgGkZPma+WFMTHibOZKi44ZuWWQ7psbNSkeeqzgY9Kv6Hj1aeD5IyIBPw8jkemV/iY0EeSLTZv01mXaCFw3GVly4GTKoZC3HWwmGD12bDriLz74ecyZtpCtXxQvyfonN8hnsSQ92Tp+r3uuGBN1OiactfKkM8at9DxGTpuhgqnPHdtloLNWLhWhRPZ5FlihgDp2H2ga2OfLgMjXwr9I9Twax80d8LsGMNvGIZhGIajffv2mtW9KkyUGEY9p6y8XHaEZMqJhBvqv9GmU2/NC4KQCIvJlT6Dx6pvCRNqkhIySWeZ0pR5q6THgFHqzN570FjN4ZHB8i2/KBk+fpbm+chw53l1WDQWrNohn3zRVEXCJw2bat4Sll/hTM6kH1GCRWT1tiOyYOV2FSU4u2/aE6rO8uQbwYJBZnfEC47pnFNZlLBsCmuOOrW7c7HiDB0zQ5d7jZg4V5ddTZu/Wlp17Kmi6HzWdbXOdOoxSGIyr+jSLaw9LP9ieRjLyrr1HSrtuvWTecu3qogZOnaGLNuwXwURfjBT562W1OJbes9Yaho1a6cJHRPyrqnvzZfN2qo1iGt3HDBdIpOK/J+AYRiGYRiTJk2SoKAg/9aTmCgxjJeAmLRSWX4gXVKL7klUcqkk5d91E/1Hai3ADyMx/45O+pmMswSKZVopRQ/UQZzoVF5UK47xCr4dlMp16aW+iFZExtp/IlbbQ2QkFdzV65A8keN4H+/aZFmVz4n9kTrDx2RccX26K6u2HFarDe14VhKv0C8c6emTXpNzc27ptdjG0rIr6KwuFSOTO9cgmhbLtA6fTNT+IKA4Fsd12tlxJFKzuWMNoo79OhbZN7V9nNtx/Pec/bm3ne4c+kLksClzV6m/yu6gSNmwL1KW70+RqzexvRiGYRiGUR1MlBjGS8C1m/dk3o54ic6+o5N8Jt34VfCK2GA5E5Nt3ntWCV6JLMVyJ5YqUVe5qON5gHra5BoUJvFYN765jk8M+K7j2+e1wfWwkCCQ1u8K1qztvvC9j+ceKfP7tnxzbc6lTd7TJn1GXGgf3Tb1mnTRf+/eeRXH++/TEyR6PH30n6v9dIUx41re8dRlXCzT5WkIGuqPnL8mm4+l+UfeMAzDMAwIDw+X7Oxs/9aTmCgxjJcAlnCFxOTLxuM56iNReVJe2wqigOVcCKJA+2tb0TwlTjyRnyWx8IEs3ZskBaVVO/IZhmEYxstI48aNZfXq1f6tJzFRYhgvCddu3pX1R1LleOxlzToeaIJt5bsXfFQ2BefK8XP5/hE3DMMwDMNj+/btEhsb6996EhMlhvESkZp3RZbsSZbY3HuS7V/uZOX7l5zLIkdjLsraQymaF8YwDMMwjOfDRIlhvGTEZVyUNUcyVJh4fhhWvltJdwVBcjzuimwMSpdL1+74R9kwDMMwjMqsWrVKIiIi/FtPYqLEMF5CEjIvytoj6XI287ZOqplcB5p0W6m6ZJaW6dgdOlcqm4LS5Mr1u/7RNQzDMAzjcZo2bSpr1qzxbz2JiRLDeEkpvHhTdoZmy6Gzpf7oWL4cJIEm4Fa+KRlOjGS7scLStDU0T4JjCuTe/Yf+UTUMwzAMIxBxcXFSVFR1Di8TJYbxEnP77gM5GpkrG49nS1jSNRUl+JrwagLlm8JYIEawjMTn31PryIagDEnIuugfScMwDMMwnkZ5ebmWqjBRYhiGWk0OnMmRNYfT5WDUBbUCpBQ/1Ek4hchSTMozVKwEnrjXh+KJD5ZmZbl7JkoZ955U+FCiMm6pZWRDULqExxfJnXtmHTEMwzCM6jJs2DA5cOCAf+tJTJQYhlHBhSu35GRckS7r2hScJdvC8uVI9EU5k3ZTorPuSHzevYoEgvWtIEiSCh+oIMPX5mTSddkbUSybT+TK5uBM2Reeq0ECrt+65x8twzAMwzCqS/fu3TUscFWYKDEM4wnKysqkoPSmnEspkWNn89yEPEe2uIn5uiPpsvFYpjrJrziQKisPvuiS5i+B9tVc4V5YjrXuaLqsd687QrLk0JlcCYstkITMS3LlhjmxG4ZhGMb34caNG3L3btW/pyZKDMN4JmVl5Zp/gyVL+KHcvH1fbty+5wqvL67cfyRyx/0v0L6aLffk1p37em937z+UBw/JNVL1ulfDMAzDMJ6PwsJCuXbtmn/rSUyUGIZRazly+JBkZqT7twzDMAzDqKu0adNGNm7c6N96EhMlhmHUWho0aCDr1q3zbxmGYRiGUVeZNm2aHD9+3L/1JCZKDMOotRClIzU11b9lGIZhGEZ9xUSJYRiGYRiGYRgvlNDQUMnIyPBvPYmJEsMwai2zZ8+W8PBw/5ZhGIZhGHWVxo0by+rVq/1bT2KixDCMWgtfYJs2bfJvGYZhGIZRV9m9e7fEx8f7t57ERIlhGLWW9PR0uXTpkn/LMAzDMIz6iokSwzBqLffv35dHj8gZYhiGYRhGXWbp0qVy+vRp/9aTmCgxDKPW0rNnT9m3b59/yzAMwzCMukqzZs1k7dq1/q0nMVFiGEatZfjw4RIWFubfMgzDMAyjrpKUlCQlJSX+rSf5UUTJxYsXJSEhQc6cOaNJVPbv3y979uyxYsWKlW+Vbdu2yc6dOwPuC1SwqoSEhMjevXsD7rdixYqV5ynMT4KDgyUiIkInVFeuXPHPZAzDeF5Yjl1WVubfepIfRJRcu3ZNTp06JXPnzpWBAwfKxIkTZcqUKTJ+/HiZPHmyTJ06VbM8WrFixUrl0rFjRxk8eHDAfYHKjBkzNNzg9OnTA+63YsWKlecpzE8mTZok48aN03kLr3wnLVq0SCIjI+XGjRv+mY5hGM+Cv52nLcl+oaKEsF+LFy+u+AOmI1hILl++bM6rhmE8k65du8rRo0f9W4ZhGD8eDx8+lNLSUomNjdXQpvPmzdP5zcqVKyUtLc1/lGEYVYGf6I4dO/xbT/JCREleXp4sX75cnzKw/II/YsMwjOcF6+rTInUYhmH8mOTn58uGDRvUorJmzRqb7xjGU7h9+7ZG1ayKGhclWENGjhwpR44cMWuIYRiGYRj1ngcPHqj1ZNSoUeqDYhjGk+Tm5j7VL6vGRAnrKufMmaNrLi9cuOCvNQzD+O7wkCMlJcW/ZRiGUbvJycmRMWPGaD6Gu3fv+msNw4BWrVqpZbEqakSUoHomTJigDqasuTQMw6gJGjRoIOvWrfNvGYZh1H7u3Lkj8+fPl1mzZulyFcMwfPA3ceLECf/Wk3xvUXLz5k0ZO3ashu00DMOoSVgGmp6e7t8yDMOoG5SXl6uPCZEAbSm7YVSP7y1KiKo1dOhQ/QM0DMMwDMMwRB16iTa0ZcsWf41hvNwcO3bsqZHqvpcoIeRv586d5erVq/4awzCMmoOnjCdPnvRvGYZh1C2IRkq+JXxNDONlp1GjRrJq1Sr/1pN8L1HSu3dv2bVrl3/LMAyjZmnSpIls3rzZv2UYhlH3II/J8OHD/VuG8fJy4MABSUxM9G89yXcWJcTm/vLLL6WkpMRfYxiGUbNkZ2c/NXygYRhGbSc5OVmfEF+6dMlfYxhGIL6zKEH5z54926JtGUYdJiIiQhYsWCCHDh3S7bKyMl2Wee7cOVmyZMm3omSwDpRjt27dWhFRJikpSUJDQzX85f79+2s8BCZRbIj/bxiGUVe5deuWjB8//qmZrA3jZWDhwoVPXZL9nUXJoEGDVJgYhlE3CQoKkq5du+r6zk6dOsny5cvVKsH7vn37aije7t27q2Pa+fPndfkBycEI6UchH9GAAQP0GOKOf/bZZzX+o9utWzfZu3evf8swDKPuQSAgvjMnTpzorzGMl5MWLVo8Ncz/dxYlNGyTBcOom2DhHDduXIVPWFxcnAwcOFBiY2Nl5MiREh4ervUHDx6UmTNn6g/q+++/r9bRESNGSPPmzSU6OlomTZqkxwBWlJrOKYI4Yg2qYRhGXYaHPzzAMYyXGUL8l5aW+ree5DuLkk8++USOHz/u3zIMoy7BMq1p06bpEi1g6VW/fv10idaQIUMqhAYJwGbMmKGJUYm0FxkZqblDcD7Pzc2VKVOm6PItmDNnjmzcuFHf1xSIJ/pqGIZRl+E7k4e5hvEyQ5jsp+XtMVFiGC8pGRkZaono0aOHtGnTRq0j+IpgMenTp4/06tVLBQqhLHHQxFoyePBgjbq3fv16rZs7d66cOnVK20Pg1PTyLXxWnvZUxTAMoy5gosQwRPr37y979uzxbz2JiRLDeInBATM1NVUuX76s2/iUIDxwcE9JSdH9HjiccywWEo/Kjug4ufMUpCYhYk1NW18MwzB+aEyUGIZvSfbTUomYKDEMowIERmZmpoqN2gCROogQZhiGUZcxUWIYIvfu3Xtq1F4TJYZRDyHay82bN2vccmEYhmE8PyZKDEP0oefT8vWYKDGMWkphYaGG6cWn4uzZs7JixQr/nmfDD2C7du3kzJkz/pqahTWhTzPBVqaoqEijdl2/ft1f823o47JlywI6tBPhLysry79lGIZRNzFRYhgiLVu2VJ/UqjBRYhjfAfwntm3bprk6mGyTpwN/CybWOHtv375dTp8+rccygQ8LC9P31OEjQQQr2uCpAWKD5VI8Pdi5c6fcuHFDjyUh4a9+9St9JRpWz549NcIVUbLIGwJYQ1jixDpNBAzt4A/yxhtvaA4RrkN0LCwneXl5mmcEPxGOIc8Qzuw4ttP3q1evqjggBDChK/kRvXbtmiZLzM/P1+shjojAxT2MGTNGo2/hg5KQkKDX4Dgc4ukjycJwkl+zZo380z/9k4YLpr/cD/s5Dh+WkJAQ7QMhhekP+VNoi3H97W9/K++++66G0yRiB0Jty5YtsnjxYm0jUFhylqDRP8aE6GHcAyZj7g0HfgQS/WD8+Zy4T9rCUZ/x4T2f59MihBiGYTwPJkoMQ2TevHkV86FAmCgxjO8AE1Ym1YcPH9Yn+UziyafBe3J3MAEn5C6TX16nTp0qJSUlKiD27dsnEyZM0Jwg/HFyLpP6o0ePqrDwsqIz+WeSjgAhZC95QpKTk/UYhAAO54gU/sgJ5UtULIQGE3cSHSKaEDlcH7FElnaSnuLUTh0ih/wk5CUhZwltv/rqq2oBQcyQRJFcJPSZe2Nyz7ViYmJUeHXs2FGjY02fPl0FkCd2yA5PLHLymXAu1yWcMAIMgTN06FDtL98fHEfUL6J/cS7iq1WrVjqOXKtt27aa/ZXxQohw7U8//VRFBwIJAVHZGsTnsmnTJo0KRttMBBg/xoX+0F9euX9EWvv27VWskMX+ww8/1PHkM2Fs+HwMwzBqAhMlhvFsTJQYxneECTvCJDg4WM2RTOaZ4DIpx2LAeybviA2sITyVZ7LMxJlJNU/8OYd63tMWQsSDkL1kAC4oKNAJO8IBEA8IHwQFk2rMoUzOeb9o0SK1MCAGmFxzbd4Dx48aNUpFCRN+rgsIAXKRJCYmqmDAeoHA4BpM/BE5WDEQKpwH9N/LcYL1h34iwBAAWCjoT4MGDfSY7OxsFUmIGqwxWD04hvGhDksJ94Y1g236EBUVJWPHjtWxBZzdET7cE8fSR0Co0J4HViYE2+NPYri+1xYCZNiwYfr5jR49Wq1EwHtED9YmRBD3bhiGUROYKDEM0Qe5zGGqwkSJYXxHmLwykWWCy5P/tWvXSrdu3SqWOrFsi8znWAIQFVg9sJIAy5qYuPPEHosH7TARZtLuRaegTZY1YUVhSRPLpQDLA9YNJtOcjxWAiT8WApZqIUqwzCAiOI/r0CeWTfF3y36sG1hSgFdEBaIFSwo+LBcvXlSLgmeFQLQ0bNiwIhIW10QQANeg/8XFxWpdQYAhqLA2cB0sFrynj1gfECHcP+cjjLzzGU/8Txgn7g0Bx/I1xg5RxLIyRE/r1q31Phk3rEzsZ7y8kMQsz0IMIVwQXPQZMTV58mS9N8YMYUMfETBci3OJn47A4jxETGWBaBiG8X0wUWIYvjD/lR8kPo6JEsP4HrCsCr8FYJkRlhEv3B1P5JmUs2yLwiTcyweC8GDifOzYMd3mB4vJOvB3hSBhko74wPqBOGDpE7AMCssMlgnaY7LNpB8RwcQfnwqWbfGkn2SICAoSJGKJ4ZpYQfCd8JIeIpoQJp7/B9YKhAvWEHKVAJP7rl27VuQkod9YhAChgSBiYk89Dvb4k2AJwecDXxn6yDG0Rz/pr9cXxBD7GBMEAeKJcxAQ+MawbI1lVdwLxyJEsKYgABF5LE1jvBA3iBJveRr7ER9Ymrgn6rp06aLWInyBGD++HNnPffGe/lGPTwltGoZh1AQmSgxD9GGpN68IhIkSwzCeCtYDLBks7/qhwfriOf4Dy6uwhDwtpKBhGEZtw0SJYTwbEyWGYTwVrBmUHwMESeVcK/jjYFEhOpdhGEZdwUSJYYiuemD5dVWYKDGMlxSWlLFUCf+Rx5MsspwJawQigH0c9zyw1Ip2vy/4qLDUzDAMoy5josQwLE+JYRgBwEcFx3xC5BJli0hUXkQrwE8EJ3CiZOCwj29G5WVU+GhgsfDAcoEvh3cMggTfkO/rLI6jv+e7YhiGUVcxUWIYon6vnm9tIEyUGMZLBk7eRLIiIhdfDogPwu/iGE7YXSwoOLy/8sor6qhPqOHf/e53GuWKyFrkQyFKF87qRLCiDcIOs835nsM+Ua2IekVI4e8KYseWahmGUdcxUWIYvqilXsCcQJgoMYyXDCwPRJpiso9FAzFCvhSihhHZinweRPgiRLGXIwVxwTIuxAihc1nWRbxxQgmTC4UoYTihEx2LEMAenPe09aPPAosNzu6GYRh1GRMlhiHSp08fnW9UhYkSw3jJINzt6tWr9T15QVia5UXWmjJlioYKJhwuggOrCn/nhCVGlBBe2AtNjAghTDDhg0l2SB4VzsFS4oVFJlyyF/b4u/DFF19oaGLDMIy6jIkSwxBdTcGS8KowUWIYLxkkXyRnCj4hWCFYvkVSQiARJJYR1n0iOLCCYBHBgpKVlaXH4qiG9YNcJCRR5FzaQ5ggIBAi5A6hfSJtcL3vCrlOLLO6YRh1HRMlhuELosNKi6owUWIYLxlYPEhciPggqhZJH0lUCCRSxNcESwc/omRcz8vLU58RLCgkYBwyZIhaTEgUCXzBcBx+KTjPEz6YOhJL4ptCJC7DMIyXGRMlhuHzNWUFRlWYKDGMlxB8SViGRRSt54G1oNWxXGCB4VhP7HxXtmzZopnxDcMw6jImSgxDpHnz5rJu3Tr/1pOYKDEMo9by2WefPTWmuWEYRl3ARIlhiPqnsuqiKkyUGIZRa2FpWU5Ojn/LMAyjbmKixDCejYkSwzAMwzCMF4iJEsMQ2bdvnyQkJPi3nsREiWEYtYqIiAiZPHmyJmUkeSMhhqmbOnWq+sIYhmHUNUyUGIZIo0aNNE9aVZgoMQyjVkHCxP/23/6b/MVf/IX8p//0n+RP/uRP5L/8l/8ib7/9tty9e9d/lGEYRt3BRIlhiCZnrpxg+XFMlBiGUesglPBPfvKTivLHf/zHGprYMAyjLmKixDCejYkSwzBqHeQ2adWqVYUosazuRm2gvLxcc/iQHPR54dzvcl5VeH3hFcgN9LSkZMaPi4kSwxDNcYa1pCpMlBiGUSvJzkyVV/7ln6Rdm5b+GsP4cbhy5YoMHz5cWrZsKZ07d5bWrVtrItE7d+74j6iaqKgo2bZtmy5ZIGHpd4EIdITSJDGpB35WXbt21bj/n3/+uXTo0EFWrlzp32vUNkyUGIbod+eGDRv8W09iosQw6gAPHpZJXskNOZ9+UU7EFEhwdIHsC8+WXaGZsjusfpb9p/Nk/KI9snxXpOw5mR3wmPpQdrrP8HBknhyPzpdTcUWSlH1ZSq9YFvzaBKIAAYDAAJKOIk7Yvnfvnk44p0yZIocPH9b9sGnTJhk2bJiMGTNGnw4mJibK0aNHJTc3V3bu3KkCguzGWVlZMmfOHJk9e7ZkZ2frudHR0TJkyBAVPtSx7+c//7mGyPbAKoIo2r17t16HRKX379+XY8eOyaBBg2TBggXPnRzVeHG8DKLk3s18uVkaLVdyD8uVnP1yMWObXEhZ68p6K3W6rJOL6VvcZ7rPlUNy48JZuXM9t8JK+zzk5+fL1atX/VtPYqLEMGoxiJG4jIuyPSRLtoe5ycypAjlw9oKcTLouYa6EJFx15Vr9LInXJCrrvpxOux14fz0pJ9xneCr5hgTHX5G9EcWyIyxftoZkO1GWI9lFNqmsDRQVFaklYuTIkbJ27VpZuHChCgGsHwgKknx2795d3nrrLTlw4IDs2bNHunXrJqdPn1ZBwjEHDx6UsWPHSlhYmDRr1kyOHDmi4qNNmzbSqVMntcK0bdtWf1cRFXv37lXBgXUFS8tXX30lmZmZ/h59A8cTrQ5BwvX69u0rZ86c0evOnDmzWtYc48VTn0XJrUsJUpq6Ti6lLJMracvletYauVOwS+4V75O7hbus1IdSvFfuFu1xn+06/YwvpSyX0pQ1ToSeZy2p/1/Cs7l586Y+yKkKEyWGUUu5fP2u7AnLlk3BORKVcUsyS8sl8+I3JctKvSmVP1dKWskjOR57WdYcyZBT8UVSVvb8T6SMmgNR0q5dOxUiCJI//OEPFX5Offr0kX79+qnoWLJkiVozCF89adIk3X/o0CGZN2+eihCsKWQz7t+/v5SUlKgoadCggS5nQIBgPUGMICw8eKqIMOnRo8e3lm95YH2ZOHGi+mFt375dxQhgxWHJ2aVLl3Tb+HGpj6Kk7NE9uZy1V0oTZssdN2GVm+ecQolxxU1UK16t1J9S6bO9Ge2EygG5mDhHLqVvk4f3b/r/VTwdvsd27Njh33oSEyWGUQspunhTVh5IlrDEq5J7RXTiykTVystTci6LpF0ok52nCmVHSMZ3MpUbNQPLt3r16qVLsABBgTVj69atuhSLfUuXLlVBkJGRIXFxcbq8C2EycOBAXYaFKGEb0cLxLMu6cOGCCpgJEybocitESVpamoqY0aNHqzhBsCBkGjdurBaQx6Hd8ePHq0UESwr9QqRwDX78zfm9dlDfREnZw7tSHL9Irmdv8E1Sb8eJ3Dhr5WUqt2O13MzbKoWxc+XBXTdZeQYsSyWBYlWYKDGMWsal63dl/dE0fVKOIAk0Ya1cMkqdaLnkK+luEuur44n7s88NVNK/x7k/ROHefPf6/YQa7VB4z/0yjo8f86zCeDNevNf2anjcMlz7tLvpRK4cO5snj8xi8qPA0ihCUrP0wKO4uFiSk5P1PWJl//7931pexXt8TFjiRdLP69ev6zm0QVtezh1e+S3FFwRrB7C8gbrQ0FC9NsIiKSlJCgsLdX9laBdLjhfZC98SlpCdP39et43aQX0SJWWP7ktp2ka5lr7cL0bOPTlhtfLylDsJciNrnVxIWvlMiwnfU097wGaixDBqEeXuv5DzBbIxOMf3pDzARLVyyXLHJBfel/C4QolOv6KTdSaxMRlXJSqlVFKLH1YIleqWFNdeYv4dPTfQ/h+zqAhwJSHvtn878HHVKckF93Ts0tx9nk29qOMX6LiqCv3IriQaY7NvyLm0y5JS9OBbx33fkllaJnG592TF/hTJLbnh/5diGEZdoj6JEvwIiuNmOEUc6VuyFWiiauUlKr5lexfiZ8r1olP+fyWB4QEOD2eqwkSJYdQi7j94JGsPp8jRmIs6GQ00SfUKAiQsJlc69xoiLdt1lzfe+UjGTVvkJsV3ZO32IJk8e4WbdN+TwlsieddEctwEuuCmSLZf7PDKNvX5bq6r+9z7WYs3yO/feFdOJxRJgatnX647P++6BLSg0DbX0HbcMRyPFYP+sS/3qq9tBBTHe9vedTnHm+A/7VoZbjxoY8DIyfI//ucfydR5q/UePKFS6Nrk/Bx/+1yHeu8a3v3zPin/rvQZMk4Gj5qq72cuXi9L1u1RQad9pg+ucKxaQFyhzus77/H9WLvjmEybv0bvdfuhM7Jg1XaJzbqu/fLaoQ1e6UvFZ+AfK46hvvJ9Pl6wliQXPZT1x7I08pphGHWP+iRKLqZtliupS7+ZkD4xSbXy0hUnTq9nrpGSpOX+fyWBIcgHwUKqwkSJYdQi7tx9KEv2Jklc3r2nTlaZ9DPxHTFxrvzJn/65bD0QLqfismXX0UidZM9Ztln6DZsgUSkXZfi4WTJx5lKdhLfu2EuOnErWifqR8BT5un0P6dJ7mPQfPlGGj58l8bk3ZdLs5fLX//f/yZnEYgmPL5D2XftLs9adZczUBTrhZoJOH3ilj1PnrpZ2XfpK36HjpeFXX8vkOSvcJP2RBJ1Jl16DxkjX3kOl18DRcjwyQ6+77eBp+aplB+nRf6QMHDFFRk2ap1aZ4KhMad2ptzRr1VkmuP7G59xy1/hmDJjYB0dlyBvvfiQ/+/kv5b2Pv5CI5Ataf971C3HWb+gEd4+95ctmbfU6WEKGjJkuQ0ZPl659h0uj5u1k094wSS8pkzade0vnnoMlMe+OHjNlzkrJvFQuu4KipEP3AXrsICda4nJuqBVlpBvrLu4a7Nt1NEq2H46Qv/nbv5e/++nPZM22o7Jq62EZN32xWkySC+/K7CUb3bh1kS+atFbxgiBZtGaXDBgxWSbNWiZNW3WShat2SHqpz+ri3Weggug5dLZUQwgbtQOczgnV27FjR3XeJIIWy6Z+aB8Owv7iJM8SLqP2Up9ESXH8YrlTuNvnSxJogmrl5Ss3o+VB6VEpPD/T/QupennW8uXLA/rGeZgoMYxaxM0792XqxhhJKnz6siv28bR9/a5g+eP/35/Jf/7P/x9p27mPnEnIUysD7//lX1+V0JhceeOdj3UCfNxN6D/49EsVIjFuks3EvYkTB6ficqTJ1x3kN79/Q5cfTV+wVn72i1/JgdB4+aJZGzdxHyK7g85Jg0bNnXiZpJNrLCMX7vksB7T9N3/3D06EpMpiN+n+2c9fkTXbj8re4xEyY9F6aedEzZ/++f9WARKRVCy//cM70qJtNzlxNku+bNpGPv68iQqSTxo2cyJmrOw4HCkfftZYRkyYo9fiXj1LxaCRU+Tzxi3l2Jk0tQzNXb5FilxfEF9/83c/1b6Ex+dKpx6DdP/+0Dh56/1PVaicTsiXrn2GyR/e/lD7ynuEUULubfnt6287odRRDp1MkE+/aOYExhHZfeys68NsHbew8zkye+kmJ1KmyV87IfLpF811bJu36eLGs7sTNjdl6JgZeg+nE4plmBN4H33+lRw9nSIrNh2Utz9oIBvcZ4UgYXx2HomU8dOXyC9+9RsJOZetoiPQ5+wVlvIdiLwgaw8l+f+lGD82LEHAmR1fEvxEUlJSVKCwPIH38+fP10IULIQDDu74jOCQjuM6ju7h4eEabYuoXLGxseoASvjgggKfRYw62sBh/cGDB1pPJC4SKU6fPl0d7gkX/Mtf/lInvUbtpT6JkryoSU6U7HGiJDbwBNXKy1ecQH1w6ZjknBn+vYKymCgxjFoEomTKhmhJLHjwzKfn7C+54ybkqRfdxLib/Pf/8T/l92+850RGnvQYMFLfh53Pc5P+pvqUnwk+4uODTxu5yXKqTsRnOtHgdIVMnrNSGn7VUif3iJJf/OpVN5k+JD/751d0ct+he38VAyMnzlGrwYbdJ2T5xv0SEp2t1pd3P26oYiip4K6Kl8Gjp8mQMZNVAC1YtcPVtVBrxK6jZ534eVPbRtQMHTtDhcT6ncHyd3//M3nnw8/1Wg2+bC5jpy1SCwqChCVZJ2Pz5d9++wcVMWu2H5IPPvlS3nPXTci9pT40//zLX8vYqQv1frYdOC1vun4v33RAGjZppUvZLj8SJzTOybsfNZS1O4KkW98RFaLkXXfdNk7IzVuxTf711dflVHyBXHzgPg/XFmJo+sI1ajlheRaC70sn1s448dGx+wDp3m+ELnMbPXm+G9+OciwiXQVfj/6jpNTdI9aaT1yfh7l7HTZupnzcsKlanFhi93/++m/lUFhCxZK6qgqiZF9Eiaw5aKKktoBDOblIEAdEwFqzZo1GvMKxnWhdq1ev1mzrCBcvotbZs2c1TwkRt8jITkStVatWqRAh0zHRvAgXTCSv4OBgzWHSpUsXadSokV5n165dWscEl3C/CBac6cmTEhQU5O+ZURupX6JkouYheaGi5BGR7tJF7tfSqF53Ylz/Uv0lxZU0kYfxgY/9ocvtaJEHri+8Xo8KfExNF0TJxSDJOT30qaKEaIVEJ6wKEyWGUYuorihhop5SdF8WrNyuy61iMi/JxFnL3IT/LTl0MlE69Bgo/+KERUh0jrz57qcyfNxsd47Ip180lTfe/VjOpl6Srzv0dIKipwRHpepyqrfe+0QFB+38pZss7w+JcxPxttKxxyDZezza1S+VPcei5FzaRX3KP3DEZJ3ks5zppz/7hRx0k+uFq3fKK//2eyd21unkH2sE/fnFK/8mXXoPlTNJJSok2nfrL0fCk53Q+VqtJVhNsFD0GDDKXeOsjJ+xxF0zRrIuEdGqXFJLHmhb/+sv/kr6D5voxMwU3f6rv/lbd/8r5HzWNXeN36goCIvJUksJ90OfPnEioEW7bk6gZUvXvsPceHyilhLEBX1PyLklrzqB1kQtJYkqmqY5YXYkPElGTpor2w+f0eVpLE07cTZTPmzQWNsOjy+UNp166RjFZl1V0cW1sJQMnzBbPvrsK73HVVsOy3tuLBByfYeM13E5n3lNlq7bo1aug6HxJkrqIOT/wDLCsi2SF1KIkIU1ZMuWLToJRXyQdJHoWzExMSoiECckOUS4kCyRZVdkOSbzO8chRjhm2bJlKkbWr1+vlhHyovCDPnToULW2IHCmTZum1hTqvGzwRu3EREk1y61zOpk+tHOuDOj1tcRHbPYJAPbdc9crc9+BjxJcL5wYKHPC5SHvnSCgzmtD97s6jrl73leHYNA6f/HqET1eHe1f99dVXMfVVxYbN11x/StIPSATR3eT/j1bysDeraRn568kKmSNr6+IASEyH+26V7Zpw+vjLbdd7tq/665H/3nPvXjX8t5XFmTefSKAaI8AA7Sn9VzLX+/u68GVMxJ3epPcLjnpuycEip7rxuOOu2/u0Wu3pkqFKBn2VFHCgxge2FSFiRLDqEVUV5SwD0f4fSfOS/uu/dQige8HviWZFx+ps3rvQWM0AtfQsTNl5eZD7pxyGTt1gS4z4vw5SzfLq6+9Jd37jdIJNE/wESWb9oToJJyJ86m4fJ244xuBVSMisUQn0CV3RS0POGvjZP/P//JrdbL/qkV7tSZkuZ1rtgdJ01YdnQAZoNYUfE3wEek7dJwKpt6DxqrVBlGCReTEuSy1VuBTghhAOCG+cCiPTr8qA4ZPlhkL10npfZEr7jsP/5QJM5eoReV0fJEuOUOUMPGnT1ggsEhgfeH6+JuwbGyPE1g40eOgzpIsfHBYVjVx5jJ1pEeAtXX339T1A6ERk3FFDp9K0r61ckKuXZd+MsyNKUvdsHYgVrA4LV2/T8ZMXeiuecMJxrvaNr44CDAsRFiqEG3Dx8+W+Nxb2o9WThSePJ+n9xjoc/aKiZLaB2ICX5Jz59zkoBIkO6R+8ODBmmMES0dubq7uI/Ei9fijZGVlqdMnr4iZESNG6PIsssGT7yQyMlKTNfIDvmLFCk3OyD5yl3jihXwknIt4wcpi1F5MlFSzuIl4adZR+eSD38t/+A//Xgb1aS2PrkXq5Do3aZ9EHF8tZ46vkvXLx0nMqQ1yLmydrFgwUmLDN/kEgZusR51YI2uWjJHdm2bI1fxgFQFnQ9bK8vkjZOPKCbJhxXjJTdynk/r8lAOyatEoWeH2FaUdUlGQFb9HIoK5zkpZu3SspMXs/EYYIUrcxP/kkeXyLz//f7J83nCJOb9TJozsKm+89ktJjdkh969EyKEdc2XdsrESemip3L8U7vq3Uc6Hb1DhcP/SaT2fPsSe3ujeL5MTB5bIBndPadE7JOTgElm9eLTkJ+/3iSd374mRW2WZu9b+bbPlweUz8uhqhN4/7e7aOF32bpkp91399QthTiR9La/8y09lo7vPh248MuN2y/pl42TrmslyMTvI9cF/LzVZqilKWMZaOXT645goMYxaxPMs36IgELxoUBrl6arPB4Nt6smhoRGp3ISY4zmGKFU4V89bsVWXZrXp1EcafNlClq7b6+ofahv4aXjO9CxN8iJRVY6I5cvtUa5LoLAW8L74ju84rutFquLcotu+djIuPNQlYLpcqlNv+bBBI9m454T6VNBHvZY7//HoW9wT7XIv36pz2/i3IBDwHcFqVOC2uR7HU9/UCYMZC9ZpmxxLv9JKyiqiY9GWd13qWSrGud49k3vEG2fqaIPrcn2OZdvrv967q6fveh/ueF4rPhfa9p/LOfSTcfPuqapioqT2QS6RhISEgBnTSaCIhQOfEUQDPidYMkaOHFmRzRhhQi4RLCvsZ4kXOUtIqOj9aLMUDFGCIHn48KGKEdojd8nly5f1OviahISEPCGOjNqFiZJqFJ7+O1Gy1gmKJl+8KysXjJDPP/mDxJxc766a7MTDSPnVL//BCYUxMrhva/nbv/nfMntKPxk+oJ28+dqv5GzoWslLPSBzp/aXscM768S8Z5cmcr0oRKLdpH6dExiv/OLv5b//9/8m59yxp4JXSatmH8kc18bIwe2lbctPJSV2pyyZO9QJjr/X6/Tv2UI+/fA1KUSwYGWgj04ohAetkA/ffVXSESxyRbISdstf/K8/kYM75sg5Jxamju0pvbs2lX/86V/LyoUjtU+0czn3uJ77xmuvyJljK6VLuy/kn/7hb2Tf1lnSrNF78mt3fyudyGrT4hNp0eRDKXYCDWHz6QevyYaV42VAr5YybXwvyUncK180eFP7vHn1RHnz9V85cTZCbpSESS933X/5579ToRLrhNDPf/a30r1jIyfwWsniOUPljhMvNS5MqilKnoWJEsOoRTyPKGHiy4SYibFXx8QYQcFkt3IOjceLN3HGMsIyJC+MrU6W3SvvA52XWuy7rncsdYQdTiq498SxgYo3GccHpPJ1Hz+GybsXQtgrXBdhwP2pwGEyT39ce55gYMLPfu9cLDD4dDAWla9DW4yVdw+PF9pmfyDBwDl6HTfGCDzaevyYmi4mSuo+WDmwlCAojJcPEyXVKG6yfy0/2AmFj2XssE5yrThU308c1U0tGOuWjXEi5Q192p8Ws0Ne/+2/OMGyQS0r7775b7Jr4zQ5H7VVpjhBMMeJgK++eEcn7hfdfveNL0d2zZc//7M/koUzB0v59Sjp1725dG3/pduXInLvvHztrjVtXE+d3L/31m/kQuYRST67Vf7mr/6XWk10KZRflLBU6zf/+jPp3PYLmTihtzT58j0ZNbiDEx3HZK+7zuQx3V0/esirv/4nmTCiq+Qk7JUWX30gW5yAGNq/jQwb0FYeXotwYqGxfPbxH3QZFpadd9/8tdxwIir4wCL5/NM3JCZsnfR1/fzXV/5BFjpB0bV9IxU3p52gadX8Y70G/afN3l2aus/knFp3mn35vi7fKk4/JL9wAuWv//LP9Zq7nfgpJ78MS8gCfQbftVRTlBDUg0SxVWGixDBqEc+zfOtc+mVZv/O4HD6Z6JsoXxcJjc7RfBtYPUio6D39Zz9igMm6N9HWibeb/GMtYELvTa5xdieZIPu985jQsz/zYplEJF1Q34qUwgcVFgLaqJzNnHM5h/3efVRknnf17OM8BAX9887zjg127UcmX3DX8/WV4xEX+GUsXrtbNu87qcfSBsKK7eUbD8jS9Xt1qRpLv1SEuGNSix/I8ch0rePanHfOnXMqNl8THVa+R/rNErOEvDtyKq5AHfcrhyVmDDiOnCT0g1DAhBSmHwi2wPddrvdJHduaw4Vj/H3x2n5aMVFiGHUbEyXPKP7J/prFo+XP/vSP3CT/XenmJtnvv/Mb+X9/+xeSFLlFNq4cLw0/fVOXWUWfXCdvvf6vci50nS5Pev/tV2XnhqkypF9rtSo8unlWZk/pK181fEeuF5yQ+DOb5C//z5+q74f7JhYc6bGwtGzyoV73TulJ+fKzt2TJ7KGyxE3+uc7lnGMSEbxK/ur//Jm+VhYlLCH77b/9s8xwguTQvoW6XXYnRoXMh++8KhNGdlGB0NwJkTFDO+k5WGQ+fPe38vYf/lWXbMmDOOnUpqFPlLh2N62cIB+99zu5lBMk+7bOdP15U/s9clB7vVbw/kWyec0k2bJuqqTH7pTWLT7Wvsr9WOnXs4X07dZMxRaiCzF2ozBUrhaFydF9i+TMsVXS0Am6v/yLP9Wx49p6L4E+i+9SqilK8KPDP64qTJQYRi2iOqLEm0Sv3npYXn/rA1nnhAmTYl7x/xgwfJIMHj1Vl1Wt2xHkjvU99T+TWKIRrLzzU9xknYm+Lx9JoU6eE3Nvq+/GEPU7eaATbM5D7JB/A/GCkzi+K/HuWJzt8VuhXSwmTNqZbFPPOZ444JpM8Dk2IqlE4rJvSkzmNbVkVL4vjj0cnqzRuogYllbi+nCl3LWfp/eF78eoyTPUab7P4LFy3s328dP43R/e1TwpI8ZP12hYg0dNk3OppSq6EDfkNmncooPE59xQK8cKJ1z6ueMRFNwTEczoL/3B+oRze6sOPTQfSfZlnzBCIJF/hFwkzVt3kRETpmn+FSKNBUelqyjkOBJaRia7a7sxR9Bw3wgnRA73SGG82OZ+GXdvDKoqJkpqN4T9JRoWkbPwDcGJvSoI44s/CM7qxsuDiZJnlNsxcjXPZyUZPrCd3L8aIQ+csGCS37zx+zJ1XE+dtCMiitMPqy8G4gNLCT4gn3/yphzeOVeC9syXBh+9rsucmPwzOcc3Y3CfVvLf/tt/0WVRg1z7h/cskKzEvTLCTfixlnRu94XMmtxXrhSHqo9Js0bvqyhhSdjP/+lv9bWyKMHn5LOPX1eHcvct7nNOvx8ndy6d1uVVXzR4S5eOYeHgGlKeqBaev/mrP5cvXZ8eXjmj7fXq2kSaufuj3e1rp0ijz99WawuO/i2afCAZsbtcP/dJ+1af6fKrLq6vezfP1HHp0v4LWb5guFp5EFhD+7XRdoL3L9blYVhR6He/Hi3Uz6Td1w1UtJVkHfEtRQv0OXzXUk1Rgi/e9evux7IKTJQYRi2iuqKEyf+6Hcd08s1kGMsFTt6b9oTK1TKfIziRsUiiyFKpBat2aIStL5q21sl+fO41FRbk0ujWb7gmIhwzZYE6dL/+5gfq84H4wOqCEz3O3RRyc2w/eFqmL1inyQmbt+mqIoAwvd3cqy/R4CV1iie6FflBsObEZl9XUYHvyqTZyzSyFiIKJ3NvUq6iyG2T2wSrBw7sW/af0mVSOIq/+trbssgJEKchNCIXyRyDz2bI7KWbNRIXYuKe24cQatmum14DAYJlB8d3+so95l0rVwf1gSMnq0WEcejQbYC06thLejuhg0ibMneV/NMv/lX9X1KKEFs+Ycc44uzONegH7avFZPtRd4+XVDSRLBFRtXjtLnfeIyei5muI4AEjJqq4wim+dSf3o9W0jUxfuE6FTlWftVdMlNRO+PElJO+QIUNUaODvQYSs0aNHa24SfETwIVm3bp0eh/8ITuyvv/66+qPgl0JuEp4ckveEpV1E6SIBY2FhofqUlJWVqe8IP+bkPyH0MP4q+KhwDcJr4m+CyMFHxcRO7cREybPKOZ2oM3HHEVx9HvyRuG4Vh8mV3OO6HAnH9bJrkRphCv8Mz+mb977zoqUo/ZAkRW2TizlBevw9V89EvzD1oKSc2+6ExEYpyTisIgIn+sTILT5ndqJXOaGg13ECSa/j2i/NCtJXdXL395dt7/rfsjjcinb9iVQxwRIzrn/d9T8nZb9Mn9BLl5kd3jlPr815WHG4FufeLT0lV/KO63XvXQzXcx9eiVCrxl23nRCxWR3zPUFxLf+E3L5wUvt1oyhUbhSGVPQDaxIWJN7fce0mRGyR1Ogdvv7WtCChVFOU8J31tO8oEyWGUYt4XlHSZ/A4fdq+avMhtYwQMYttlhIhVsi1ERSRpmKEBIXJBXfVwXzu8q0aqhbxwcR8jxMw7bv109C8ROUiGzmT8I17QmTj7hDZeTRKI1gt37DfiYxjKjpWbz2iSQS9p/5kY0cIENXqs8YtZX/Iec3MzgSderKhz1+xTZ3hdSmYfzmTV+h30Jk0aeHEA3lGho6bqRnVsZbgY0IfEBZfteigUa3oGwID4fSr37ymouvr9l2lcYv27h42ucn+HbUInU4oUssKVg+sKVhWNu8L0+SMhAzGgkIY5P0h5+SDTxu7/q/V7POEHiaxYQ5L05xgSi0p0+SJiCGfQ7tveRv3c/GhOLGxQbr1Ha73giAk/woJKAeOmiJjpy7SiGXzV26XTz5vqtdHYL325vuy/0Ss3nvlsXi8mCipnfDEb9KkSRU5QtgmVC+O6UThwipCeOCePXvKxx9/rEkTFy9erL+fvCekL9G52rVrp6GFibiFoCHjMWJl7NixKk545fcW0TNz5kwNq0lkrtTUVA07jGihD4QlxmneqH2YKKlG8VshVJDwHr8HhAITeKwU1LOffXqs33Lhved43nOsd453PK8sWfKKF03La5/i+VlUXMe9RxjRDq+V+8qxgeq9a3nhev39yEvapxHDiBbmE1z+a3Es7XhtVlzXe+9vn/7Sb4716thPW97+ighhbr93/7z3zqXOO76mSzVFSdeu7vd92zb/1pOYKDGMWsR3ESVMmA+ExOlE/WBoglxyE2QSE+IXsisoSjbtDdWQvnE5t+TifdGQuRNmLlP/DJZqMXHHQsKEnck4yRPnr9wmKYU3ZfSU+dK1z1DpOXC0vPNBA70m5xHWlvdd+41Q6wZLpDhmjxMfY6Ys1Fwgg0ZN1jZHTZorh8OT1FKy9cApXVJF/xE939wTE/xHuhSKRIPd+g5zQmKINGrWzgmmaCd6ctVygxM7y8TIss6kn/C95Gpp2babBLu+0w98YpjksyyL19PxhdKuaz/N2RJ2PleFA/c0atI8bfsjdz2SIA5y4oF9G/cEu/FI1OVdhOvFX4Yxz7pcLlPmrlZxxfK0Uif4im+L5iI5EBqnuVtIoMjYE/WLNjfvDVPL1IpNB1TIkP+EjPL9hk3QsWcJGmPOErvKn/HjxURJ7QQBgCjYvXu3bpPNnXwjTZo0UcsJVgwSHnIMYXupQ3AgHtj3xRdf6PELFixQ4cH5Bw4c0P2IDEIB8wOOEEGcIHYQOVhmCDuM5YXEjStXrtTcJogao3ZiouQ5i5uUl12LUkvAnQunfJNrb/L+YxZvwo+YeXyfX2BgmbhdHOazSnjHss/LreKJCgpWi9pwX9+3VFOUsLyV77iqMFFiVAuyF/M0rjI3btzQpF/8WFK+D7TD8oWXnecVJf2GTpTUooc6qcVC0annIJm/YqssWrPTTYoHysRZyyUiqVgn4fiJ4A+hS5uCo935x9WCgAM6+U469xqs1hTC6uKbsi/4vFomWEbF5Lp5my4qALCQIDCwzrTu3Ed9S7yJ/55jMbI7KFKXdOHPwjIocqZgcejeb7gKGpzv8VM56kRGSuF9vR+iY+04HCEfN2yiWegvl4lmZueeyHOycU+oCgaWo63asl+munpyfJw4m665S1q07aqZ3T0hgq8IYoGlayzH8gm2eCl0ImLP8XPyTz//lS5LQ8AwJuNdWb8rWIXJoZMJOg5NWnZQcZZx8aGkl+KHU67BBXoOGK33smLTbnd/K9XCtP3QKTl4Ml7HlvFjXBFV59IuqXDEKkLfsB4hChet3aWWFXLIRKWWus/TREldBZExatQoWbt2rRw6dEiXa5HMkBC91JGpff/+/TJgwAAVKFhIsHQQxhfxQWLEo0ePahZ3vkfJW0KGdnKc8L5Vq1Y6oWX5Fm2x/It9ZJP3lohhrUHcEGbYqJ2YKKlmwUJw65wsnz9c3nv7N+oI3rbFJ9L0y3d1OZRO7nnqr1nU3SSfzO88/SeBoDe5J1kgCQmxEHjHaIJB3ldKNoggIOM552l7rniiAcsLx+nxrp726Ju7VtjhZXJ83yLfdT2B4fp1vSRMHc/xi+ncqbH6vyyaPUSuFJzwHUtixIp+u3bddVlWtmnVhIocKb5Eh24/xyFosMRwbeq5lp7v+sV7Pda9V8Hjvyde/cvQ9D195livjReROJFSTVHyLEyUGNUiOjpaevfuXSEcWPvMDzFftDwF5EcRWAudl5enIgZYM82aaOAc7x9r5XrqaGvOnDn6nkLsf2LyA3H7WQrhQXx+kpGxNMKDJ4YIG15ZXw20Q13l42o7zyNKEAX4SpBBnG0m9vhgsOSJsmF3iC/HhqvHwZws6ST9O3o6VZ/+49+w80iktodVhfdxOTfVIsGxWAmwwLBUa96KbU7IxMiR0ykqGhAx7N926LTgLB/vziMiFZN8llrtCjqrfWCyfyq2QK0bLJ/CoT7bKQ4SJSJCkgvu+e+nTEUEbWhELCcCqMPygX8JjuI4j0+YsVTbRUgghLgWS7427z9ZESkrw51HAsOtB8P1GOq3uP34gbAfCw3Lyba5/YxbfM4tFTa0S/AAlr4hlhat2aWlcgQuBA/bWJM4niVgxyLSdDwZZ8aFehIxIog4frcbC+6X+6S/xyLT3Xmz9TgsVJWje1VVTJTUbviOIgP79OnTZe7cuRUPcPgeI88IPiVYMchFwhIvxApLr3iPNQRLSHx8vH5nkXckNDRU9/MdeeLEiYrvUzLBz549W60ovEeE8J1M/hOWexm1FxMl1SxMqN1EfFDvr6XlVx/KzeIwuX31jHRu11Cd1u9fOaN5O4YPbC8jXDmya55O6AkBrNnf3cQb0bB0zjD1qZg8podsXjVRxg3vrIWkhmOGdZJxI7q48w6qEMARnghZfbo1k21rJ0uZm8QnRG7WZIWbV09SJ3GSLpa7vh3bu0Cjcf3+N7+Q08dW+QSBExyX84OlR+cm6mx+tSjEjVKK+scQhph9OO4f2DFbRg7uIMP6t5UQdw+XC09It46N5H/92R9r2ONbF8PVgb5XlyYyuF9rTbaIn8myucPl9HF3LTc+5DvRiFvuPUkWZ07sI0kRWzQQwNhhnWXx7KHqW0J0L5JKYrXB4rRh+Xg5uH2OE2JufG/4hVRNlmqKEvzeSBJbFSZKjGrBRJ+10Py4Ak8H+/Tpo0/vZs2apU/vrly5ossIevXqpU/x+DHlhxKnTAQGP9Y8PcTBk3O8pGP8Ax43bpwsWbJEnTw7duyomYp5KohQYe00X+asp+apIE8U+/Xrp9mQuQZPF8lyzLptjqUPtI3zKMfRT5ZX8GNf26m+KCnXCXCzVp1k8ZrdWscyLpYIkfGcghO2tuEm2SzRwqeBei+vCXW+kMG+ULe8pw0m7SxBYj+Tbc5h2RRP+tlHdC3qefX5VhBRyndt2qE9juU8rkk7HEP7vGfS77VNyF6Op45JvdeeV8dxOLDTLu+9e+CVCT/H0KeKe3XnUUjeSB84j3r2e32j0BeuxXuEG34htEu+Ez3fnaN5SNy1K7erx7u2veMZp8rL0Lzxon+Vx4K+esd448txlc99WjFRYgQC0YKoQahY/pPajYmSaha/KBkxsJ10avuFOrETXYpQvp98+Jpcyjsu+7bPloWzBmtOj1/809/pBJzoVCRAvOIEQMc2n8uAXl+rZeXP//SPNNt65Ik1mpiwdfOPNWkhSRmJToVgaPrlezKoz9cqCHi/dc0kObBttvzsH/5GrRhE/XrztVfUHwQHecIPEwnrMg7qWEDux6nl5PXf/9IvjOIkzIkOsrLv2TxD8tIPS1HWEdm9aboKit/95udasuN3O+EzTN56/Vdy6ugKDTtMJvs97jiyu3/V8G2JdtccPaSjdO/UWDPaE9KX0MYZ53fK8AFtVTAFu3PXLhmtkbn+15//iUYPiw5dK//6y5/KYSfaSD75yi9+6hMlWEsCjfv3LdUUJSxtJVhHVZgoMaoNDpxM/gl3iYMm0WQAQcKaaNY7v/feezJw4EBp3769vnIOywpYS80PJ2sJWXqAUKls0Rg/frw+aTx58qT+2+IJIkJi8ODB+p4niSQfw2LCumuu37BhQ20TgYOIgU2bNsn8+fN1OcT777+vSyZwJO3evXudsJhUR5R4xZuwV57w1vbCBN0TKggKT3hQhxWBe3lcYFQWHYgNBFKFIPAEljuPbRU6/vPqUzFRYhh1GxMl1Sx+UTJ+RBcVBYTqRXAQ/jYjbreknd8lfXu2lFmT+mno3T/8/hU3cV8vp44s19DBZIFnYp/oxAGJA//h7/9KDjgRg7Wgg2uHpIYsaRrct5VMGt1NBQpZ3km0OMRN8hs3fEeWuTbIhv6ZEy4Im7zk/drmwR1zpex6pDRt9L4snDHYt8SL5VH3YlWw/NM//l9NasjSrEi3vWLhCPnnn/1fWTxriJx1wgBLzFInQrDYvPWHf9WEins2T9f8KFh7ls4dplnhsZT06d5c6884oXI6aIU0bPCGjBrSQcMEf/zB77QtEkkGOzE0Y+oAGdK3tYYHpp+zJ/dToYSQI6HjmKEdpWXTjzRimfY30Lh/31JNUYIgeZrvm4kSo9qw5ArxwRcra6GxjMCECRNUmLCkAAsJS73CwsJUVLCcigyegwYNUoHCsgWizLBUwYN/wDg/ISYQJUSi4Vqsv6Zd2kB8sF4bywjns7yBJWMIEiwsWEgQLFhJaAcRxHFYdDAXbt26VX1gajvPI0rqUlFB4QrLs4h0dSah2IkREg2Wa5JHHO+JWMVypvW7TqifDMdjbcARnCSFqUUPtK1ZizdKr4Fj1DeD6FZkdw86naLLoViCxnKo+jR2FBMlLwa+w7Dc8j2Bw7gHDzVYHgW84oSONTc8PFzrWBbK9w/fSzw0AZZb8XCE7zuWsD4O32N8/9EWVmeWXT3tx9uD8Jn4ofAaGxurbfOehzi0FxERoW1XB5Z7kVPF6/PjYHXmPoyax0RJNUul5VtfNnhbsuP3yKXCECcGotyVU9Vy8btXfy4xp9bL5tUTK4TAA3du25afyj/+9K81LwfLqshfwiR/x/opcrvklDT9wpd1/eHlM9KDCbub5BMm+P23f6PZzuPPbpVl84dLYvQO2bNphk7wESWp0dtVRBzYPkcn9iQ7HDe8i9zHkZ1JvuvzjQthKhTwJ8lJ2i9lTqgc3TNffvr//kpWzB/pRFQfzaye5/ZhHfnXX/6DZMbuku3rJmuY4MTIrXJs30J57be/cOJnjpw4tETWLBktF/OOy80LJzW/CnlWNqwYr0kkf/KTn2hdkuvzm6/9SuZO6y/ZCbs1yeJEJ7ZEkpxQWiuvum2E2dE9C16clYRiPiXGj0FmZqYKD0QB8I+PZVJ84SIk+JHs0KGDLqVCYLC8gGPxGSFSzbFjx3QZV+UfUdpAPe/du1cnCFhBaIsfYsSEF+ufH1OsHQgYrDD8KHtigzaxqhCRhvecgyhCmLCEi0lGXVjeUF9FCUuesHIMGz9LfvqzX8jCVTvUusEyNEIQ//0//rOGDybsb8MmreRYRLou50q78Eh69BshIyfNlfOZ12XwmOnSuedg2bDnmIYC7jFglCzfuEficy6qY/nUeaskteShXi9QP+pqMVFS8/AdRGQromDxvUbyQx5m8B3FgxYswnwPkRCR7xq+f1iuin8H30EsI+XhzKpVq7Qeqyz+I+QpQZxUXjfNe74D2U/7fJ/xQMXzm0Ns4AxP7hFANCAOeJDDQ5e33npL3/PAh1csy++++65s375dHeZZmkq/+A71xBTfq7xnCS3HeN+J77zzjj7cAe6J63qBSugPlmzGw6hZTJRUs+DYffOcTtynjuvlyz2CYzuT/7sxmu2cZIQsw+rUtqErn0tUCMuBstRv4n/+z/+v+lrg2I3PCM7mJ48sl3sXT8ukUd1k7dKx8uhKhCyYOUgtGYiXqJC10rntF2pJmTSmu1zKD1YLCtchLwiF5VoRx1dL+f04dcJv2ug9taZo+F4cye+c18SJS2YP0Wt27tBIPnj3VRVILCnDatO/Z0tp2+JT6eb2NfniXV2+hbWkQ+vPtX36u2P9VBU2HVp/psvI7rB8zV2Ta7X46kNdtoUPzOdOGG1fN0X7g1Ahc3zPziRi/ED7R5Z3Cn44CKqbRW7OxlKzQGNeE6WaooTogSzTrwoTJUaN831UcnWpfA0i1DCJwBGfwiSjrlKfRQmvRAPr1GOQJhnEQnLKFcLoEgKYhIw4zZMLZPyMpbo07dDJRI0ERpZ0on593aGHOpCzVIv9RPUi+SG+IIvX7JKFq3eoo7yJEuNZMCFHWHhgaUVs4KzOBB5wWP/00091+Sf1WDf4QSW6FqIGKyzfOfjK8fCDBymcw/GVfx95eIIzemV4SMJDG0QDy115oNKyZUu1ImMVxmeO5ag8pHnzzTdVMCFQeICDnxwPXBAXWGzoE5YcQgWzXBarNcKGiTBiiRwpLJ1lQkDiRoQIfcL/r3PnzloQRsC9YBEnaIlRc5goec6CAzkRpCrXETmKifU99xvPNtG1HiVqAsRNqydJw0/flMlje8hdb5mSF6EK6wvH056XOJD2vfeIHve+3IvERbucz3vaoDDJp47jee/6ocez7RXaIzeJe08CRF//3Db1vHftlXMPXNuJCW1X78e1x/naX+r97zkGkcY+jqEtjqcfROqinYrj/PfL9V0pSDmoju+NPn9LQg8v8x/r2vH6WtOlmqKEyIM8nKkKEyVGnYclCUS1SU5O1shcdZn6LkoIL0xkKhIjktGdZIyEDWZJF5ne8R9BZBD+Nyn/ji7JIsM79WRC795/pFpYsLqklZSpMMEhHV8SEiYuWLXdRIlRLZiU46fmwcMMhAHiwrMUYIHAesByLSb0WGixRjDxR5RgucBnDQGABQNRg/UEoVL599FLhFgZxAuWYazKX3/9tS5VRSRg1aVf1AMWE9rDEkLgD3z5EBhYPRAwRD/EWsOyMQ+sxzyswSqDRYaJABZt2sJig19eu3bt9H4RPdyzZ/3mPNrylucaNYOJkucsTLApT9vnL4iD0qyjmsm9QkwwOWcST4hfQgJXJFqs3Ib/vQoUN9n32qx8nYDv/duV6yoXb19lYVO5Xve5Qp8qX5eCKKHPXr89wYKw8tpCaKl4ce+13cfbjtaoXennd8qFzKPfiBevfy+iVFOUsFQWK3RVmCgxfhB4Cll5HTM/mhSeFLJ0gKeWrNfmH6wXlYunlUwI6kLUrJqivouS0VMWyNR5qzVyWMceA6VNp16aVZ1Qv1hHEB/k9iCvSofu/aXHgJESGp2j4gN/lK9adtR8I06DSMk990O/76TMdmIEUTJ32WYTJUa1YcJO5CoCbuADx2SdCTlR/hAfLD/FfwOrAn4b+Kph7UhJSdFXIhHiG7J8+XL9LkPkYKHAukFWdi+MLxDCnOWlnMP3HKICqwZCxmsXgcPSKR6usKyMZbB8B1L/5ZdfqgUDAYGvHcfhP8f3JsvOEDJck2Vh1HMMy8iaN2+u+xBELEFDBGGBwX/GC1BC+zy59Pz8sJggdFi6ZtQcJkpeYHGT8msFJyQpaqvcKg6V2yVhkhCxRcKDVrqyQkt2wh7fsZ7lodL7a/knNElj5Ul9heVB23+sztv2+798qz2t8x1H5LBLOcfk/uXT37Sl7fnaJEfJ9cIQ3zmuHosPTvWRwasl/Kiv38Xph1W8ENr3al6w3LsYLvFnNuuSsicsNZUL10PEVBZFL7KYT4lRV0B4sPSBH0UPntrxA42PCMsQ+LLmx5Ungjy9Q5jwg020LyYKLwsvgyiZNHuF5gYhk3q7Ln014hZZ4BEl+JggMLCc/M8/+mMnODb7Q/uWS6ZrY9mGfdK4RQfpM2SMdO41RP1Ldh2N1GhcS9butuVbRrVBNCxcuFAn40zmKy/7RDjgr4EoQLwQSAMLiOd7gZWDiT6iBqdzfoQRDVhK8PcIFOmP65F1ne85LB74oQCWXoQN9VyTZV0IH8QQggmLBZYQ/EMQR1g7EBeIB9qgf5yDmELcYMWhnzwEYrkXQgYRwrn49ZGskaVgCCnec11EEm1wv0RGxAfFqFlMlLyg4gRAuXsdOai9On5nu0n9xhXj5Z03fy1D+7eR4a5++MB2Pid1HNOZoGOdcELg4Y0onewTDWvLmkm+ZVn343xZ5F29WhgQDP5JPZnlNUSxq394JcKJHydkPCHi6ojwdaMo1CdC7sfLhawjMrDP15JybptvCZfXZ/eeaFtEFsMBvow6Jx4KnNBo9Nlb6isznHwmA9pqyUncq07wE0d1VSFDTpN+PZrLTSfAPEHzo5dqihKW2vOgpCpMlBgvHEQJywF4qujBDx9ro70niJWjceFYyg8wP/IsZ3iZnC7rqyjxCskVNYnhhXJNhkhSRJIkevUcQ/Ss+NxbEhKdra9sp2p9ueYXwQl+zfYgXf7FOfiTRKUUS9vOvTXDepo5uhvVhO8dJuSGj/T0dF0WZtQ8JkpeUEGUXI+SscM6qUM7S55IeojDukiuKyR8JuhEhsSd2aRO4DeKQiQrbrc6iGONeOO1V6RVs4+kIP2gRsxiwo/j+/b1U+Sua/vU0eXS2gmeKWN6SNiRZUJ+EJIbft30I3WGx0pDJK3xI7uoszmO6ycOLpErecelf68Wkny2kijxC5ydG6ZpLpIFMwZpnhWyr5PskfDHCA8RgmAUyJSxPTX545Hd82TMsI4ahYz9syb11fbrmijBAszfQlWYKDFeOIgSntaxrMCDpQ6IEp4o4uTJ8gScN1n7zBNInuKxNIE6LyLNy0B9FyXkJKHwnuha3vvK9RRCAWMxqZzw0CvkM0GIEAoYKwuihrDBLAEjRLCFBDYMo7ZhouQFFb8owdpBokAsHeuWjpXXf/cv0rtrU+njBMag3q00whb7CB881h07Z0o/TYTIJB8Bs3/bLIkN3yANP/2DnDm+UkIPLZHGDd9WwUACRKwwhAAuSD2gIYSP71+oS6v692ghoQeXSlriXs3enh6/R2ZO7F0Rbhjx8i1LiXstzToig/u00ushTMjGXnbrnPan4advqNjp07Ol5hkhcWJh5hG1lCC8Hl6N0CSKMyb0lqv5JG+sW6IEizEW26owUWL8IGAZYVkD8A+W96xjJpoNIYZZBsGSBSLFsLQBPxL8S4hiY6LEytOKZoN3k3ZNnuhPpljfiokSw6jbmCh5QeVxUXIvVjOaI0gIt5ufdlCXRd0tDVfHd5Y8DenXRqZP6OWb0N88qwkVg/bMl/Cg5ZrnY3Df1jJycAcZOqCtWlcO7ZyjiRppG0GAdaQgZb8u55oxoY8TMEvl9PFV0qtrExnqzvuiwVsyYWQXXaL1LVGCL4lrg0zvn330uhNMLaSn6yciJC58o1xw4gOLzb4tMyUldpekntsudy+6fpclqaWkPogSghFVTgnxOCZKjB8EfERYwkXoyY4dO2pITawkOMDjVIn/CPCPmWgxrLEm3CZRaVq3bq0RbrCg1PeIMCZKrAQqJkoMo25T10QJPlb4FrFq4XFqqyjRBIH342Tx7CGatyPCCYWok+vVSpKZsEfyUg/qvtBDy2Tf1lnqe0L+Ds6dPaWfigf8T4L3L5bgA0tkkTs2J3mf5ghBEMi985Ll2iFJIjlGbhSGyJihnZygWSCjh3bUzOlxEVtk3IguMrB3S8lL2is9unwliZGbff4pTpCQZ4QcJ+dPbXAjme5KlmxeNcEd/7Wccf2l3zjsk2dFQ/0iZtx5+7bOVOsKogQn95kT+9RJUYIPMZEMq+J7iRIc5wzjecCZ8mn/YAOBwyZipD5F4cLpHwdTIuRcuHDBXytCZoCpG2NMlFj5VkGU7D1TLJuOZfj+oRiGUacglDTR0OoKBEP4y7/8S/n1r3+tuXAq+30WRk+R2/k7a5UoGda/jWxZPVEe3joncWc2qzAYMbB9RdmxYaovqlXQCo1mxTnH9y3SJVaIlsVzhkpp9lF1Kp88poeeE3JoqTy8FqWhddXvw10L/5GgvQvkmhMEJHYMO7xMI2ZhFZkwsqtMHo3VZYH6oRB5C6F0MTvIJx6cMEk5t10O75ynUbS07k6MhjPeunayWmUQQFhMuFbFPd6OkYzYnU4oLdb+xEe4+xvWWa7k1T1RQiAOwppXRUBRQihAwgSytAaIKYwPABMoL2IICaWI9EEdMdyBfWxzrBeHmAkXjnMoI89hmafm/IFSR34J4Im5l9yJkIjAZJQkUtQRbQSIVILnPnU8SQeinxCBhDqco4F7ILEUdZGRkTpITGoJ/UgdjtT4OpAgivfUEQKSaCcci+CijtjtTKSBtqnDQsQ1gT5QR5/oG/DHSx0D74XBJTIKddwj9wpEUaGOGPZeGFyiulDHmHmTVZYvPT7+hKokUgvl8fEnnKQ3/lgjHh9/wuw+Pv5M+on2Qt3Txp+1gN74e8m2Ko8//24g0Pgz1kS1IdIN4+uNP8u0uD9v/AF/Eq/OS+JFgjDqGH8vuRl1XINQnIHG33vK86zx9/KbeONPngAvpGfl8ff+JiqPv5e5mYg33vjjwA+MP+E5adMbf477+c9/Lj/5yU+0/Omf/qm88sor0q9fXzl45JhM3nBOkosemSixUlEQJUfPX5VR8/fpvyX+Zvj74e+FhH3U8co29eynrvL3F39T1DHZCPT345nUeUJKHRGbvL8f8lpQd/DgQbl2jYDMosstqav894OjNHWV/36Inkcdfwfe3w9/H/yd8F3g/f3wynblvx+O9/5+vCh8tEv71HE94Pr0gzr6BfST/lJH/4H74XuBOi/aFvfN/VPHeADjwzhR51lxGUfGk7rnGX/vYYo3/nwveuPP9yV1fH9648/3KnWMv7f2+mnjz/d2oPH3ssVXHn8vKljl8fciilUef77fwBt/vv+8ZbSVx5/vS6g8/nyvAt+zL2r8+f3gN4Xx5jeCOn5b+K2oPP783gcafy/ccXXHn98/6rgf7ze98vh7Fnx+T6nj99Ubf773+Z0gsiRWf/DGn9+LyuPv/aZUHn+Oedb4M38INP7enIrfP6g8/p7I4Hfz8fHnN51xevvttyt+p/7rf/2v8rvf/U7WrtssqaEj5H7JXndyLRAlOI7fPKvO7e2/bqCTfs3xoVYI5jf+Qs4PLA/k+PDOI5cJyQipE/e94SUyFMbQnUOCQo6lzp8UUcUCbfHqtYE1A0uIXsud+8jVadv+Y2mXc50Q0uPonyc6qCMaGJYRrsOrd7xXNOEi/UrWEMIsH2M5mQqbyuLlxyzVFCXPIqAo4Y/y97//fcXElknq3LlzNXyg94fRoEEDXe9PnffDwD62Odab2PLHRdZc/AS8PwImz/gQUOf9EfCHho8BdXx5AF90hI2lDuEAfCETTpY6vnCALw7+oKjjiwz4o+ILljom0QwSX2r8MVPHlwtfYBT+cKnji4RjOJYvJOr4QvZ+QJgMU8eXiTcB5kuSOmLTe19WfDlSR9+9Hwsm5tRxj96PNV+I1DEW3o81Y0QdY+aJDb5QHh9/vvyIb0+cee+LyRt/wk56P8yMP2EhabPy+LM8ijpP2NEnwk5SV3n8165dq3Uvavz5Uak8/vyAcCxfnNR9n/HHj8X7sfDGH+f6x8cfB3xv/PmhpA5LhjdZ8saf6GHe30Sg8efH/2nj7wk7jvvHf/zHii/7f//v/738yZ/8iTRr2kQ2bdkhk9c5UVJsosTKNwVRciz2mgyYtlX/LfGwgL8f/l6YFFHHpIRtJmWV/368CRgTD+qY9HgTMJZnUMfSEk+AMLmmjlwYnoBnEkgdfz/eZIuHNNTx9+NNdvntoK7y3w8TUur4+/HEBhMn/k4IyeuJdV7Zpt6bWHE853G+N7GlXdqnznswwvXpB3Xegyn6SX+p86z63A/fC9Rxn8B9c//UeaFwGR/GiTomrMA4Mp7UMb6MM+PNuFPH58A2nwufD3U8EHra+DPxo47vT2/8mWRTV3n8mWRTx/ex9wAr0PjzfU4d4+NNdr3x53vIm+wGGn++x/g+43vNG3++7xh/vv+8iW3l8feERXXHn+/jQOPP9zd13vjz/c73PHXe+PM7EGj8+d2gjvHn9+RZ48/vkvdQsfL4ewKk8vh7ArDy+Hu/6Ygl6vjd9B4geuPP76s3/nzvM6YIkjZt2mgdvw+MP78XntiuPP7ew8Lqjj+/X96cynswyO+cN/78/kHl8ed3Evjd9Maf31Ng/Bm7N954o+J3ivJ//s//kRkz50lS8BB5cGGfO9D9/QWaoP4YxUtEGGhffSsIEcSNP5JXrSjVFCX83XjfQ4EIKEr40vP+cVYFy7e8JxiGYTwfmMObNm2qPzZMGrwJSZkrtnzLyuPFW761+bhvAmkYRt0C0VSXlm8xv/vrv/5rFSJEyORBrfcwsChmau1ZvuUVnMhr0yT9RRa1DtWye62mKPnqq69ULFeFObobRi3CHN2tBCrm6G4YdZu65uiOJYvVHt7qgMrUKkd3K7WjVFOUYIH0rKmBCChKMBP27NnTvxUYEyWGUfOYKLESqJgoMYy6jYUEtlKvy4v0KUHF4DPyNEyUGEbNU11RQlLBnCvflEBJBp+ncC3aePyaGaVS7ezonP99MqlnfM/zvUIb9Nu7p7SS2iPuAo0R28/6/EyUGEbdxkSJlXpdXqSlBIdkz3GrKkyUGEbNU11REpdzU06czZLDp5Il6EyqxOfekiw3cfX2c+7Tzvf2e8ekFj3QNlOK7kt6pYzoCXm3XbnzxHneduVCH5IK7lZsf3Psk8dXbsM77lzaZYnJvPatusePe9Z7yvms69pWcuF9Sci9LanFD7917OPnVi709Zv3Tx7j1VVVqjrW22aME/PvuG3/sW6s2Y7LvvGtfj5eTJQYRt3GRImVel1epE8J0Sq8aERVYaLEMGqeZ4kSnqozee3ef6S8/UEDadeltzRt1Ul6Dx4rJ8/nSbbfcsK5HMv7x5/Mk/0885JPwGS517zrIqcTimTAiEly+GRShfWF+slzVsrMRRv02LxrXrvfXIN6r/3Bo6bJik0H9Kl/zlWf9YZjyLKOFYRjvEIffHVl+h5BtfVAuOwLPq/tcQ7nalv+e6Cvle8r/QIWEV995bYPnUyU3UERsu3gaRk6ZoZEJF3Q9jiH/bTJOKX72/HOz3X3R1+4Bvu9tj0rBu+5d+86jxfOqTi20hgzFowdQqnvkPGyZN1eKbzp+uPq6NfCVTvc5zlCYp2YevxevGKixDDqNiZKrNTrUk1R8p2ib2FaQXQ8DRMlhlHzVEeUpBQ9kNYde8mKzQeECPxFt0W69RshC1buUCGxaW+oEyt9penXndwEeI+kFt1z5/me3vO6PyRW2nXtJy3adpXmbbrKscg0iUoplVYdekrnXkO0fvj42e46d2X89CUqTLA6rN56RI9h/9odxyS9hD76JvYHQuLkV795TT5r1FIFzt7gGGnTuY982bSNTJy1XK0B9D3zYrm71kWZMGOphEbnqAhYun6fLNuw393PQdm8L8xd654s3bBPWrbrLl+37+7ERbiExuTKhJlLJT7nlgSdSZMhTmycSSyRMFc/cdYyOZd62U3oy/UedxyOkHnLN0vvQWPlZ//8isxZtkUtQLOXblIBx9jsORYtMRnXZNz0xTJu2iJp1qqz9BwwSibPXiFNWnaUERPnSJLr87HIdGnfrb80a91Zhk+YLWdTL+o9VP5MuGZ6yUMVQV+37+HGtIu0ddcIjclxY1MmG3eHSJOvO0iX3kOlYZPWstSJksS8mzJk7AzXlz7SqFlbHdO47JsmSgyjnmKixEq9Li/Sp4QcIyT6eRomSgyj5qmupYSJ8rsffe4m0iPc+wFukj5dolKL5fCpRPn48yZqdWCC/+kXzWXdzuP6tJ5z09zkecPuE7J62xE5HpUh/YdNlFGT5kl0+hV5/+OGOkmPSi6WgSOm6CR+6rzVMnPRetmwK9gJjhay78R5WbXlsLbLxF4tHq7d5IJ70t0Jo4Wrd6pQaNOpt6zcfEhOxxe6CXknmbdiqwoiLA0sFevWd7jMX7lNj+X9XtfW6CnzZdbiDe68g/J545Zq8Vi6fq80/KqVbNl/yt3jNCc4zuj7Np17y84jkbJm21EZ4cRCxoWH2g/GbO7yrTJ07ExZ7+6718DREh5XoO185cRG0OlUnzhxfdp26IyKDe4PIcV4Tpi5TK1FiDbub+i4mTJ68nwVJ1w33N1P5sVvfy5cM8WJNsYFAXL0dIp07TNMps1fI5FJJfJVi/aybsdxXW7X1gm1ZU6ETXJCrf/wiXIurVRGTpyrQoalXSZKDKN+YqLESr0u1RQlZHQnj1BVBBQl1cFEiWHUPNW1lCBK+gwZJ7uCzsr+EzE6cZ63YrNaMH7xq9+oJaVjj4H65B6BwtN9nyh44CbyQfokv323vvLeR06ITHNCJOWidO49RIXApYei4mDAiMkyafYKmbl4vYqKX7zyG2nXpZ906D5ArSD7Q+L87fqWPPUdOl6vv/9ErLRs103OOaFz+ZHI+BlLZOzUhSqm6D9CZp07rs/gcU6YbJeBI6eotWX0lAVOUGyR6QvWys9/+W/SwYktCqIryE30124Pcu0sUOsP4mf6/LVOkMxRC4VvOZfPGsS+Ma6tLftOymAn1hBcWGZ+87s3paPrO2PXo/8Id94Z9zpSRQSWoB4DRsluLCiZ13Rsd7uxjcm84q65SEXWtPmrdSmYLs3yL9OicM3UknuyaM0uae2OwxLzzoefydxlW+VgaLy7h/5qlcm/IU70LXL1W3T53bIN++RymcgOJ44GjZ6q/TRRYhj1k/omSm7nO1Fyj4TAySJl7nuJLOUUsqNXlUODjOUP4gLv+76Fdmk/0D4yuXtZ1MmOTp1mcafv/n5TSEh4y/WdfWRV947llXM5hkztHFO5/bpWvCz0gfZ911JNUdKpUydNVloVAUUJGUu9zKpVYaLEMGqe6oqSZq276EQ2LDZXTp7P1qVH42cu1Qk2k+6Ne0Jlu5vsTnCC4FhEmmRe8vlHnHcTbqwEWBKORaRK516DZcjoaXI29ZL8/o339Kn9/hPnpYurX7x2l1pOJs1erlYJxAivm/aG6VKqU7H5flGCheKRWjw4Nux8nrY7dd4anXB/0bSNLN+4X4/lnjLcK8uwmrbqLL/+7R9k19Eo9bEYNHKqTF+4VrbsP6niYc+xc2rVmTRrmZuwX5LTCcVq2cDCgPWjz6BxTlSMkvjc2/4++ETJnKWb1ZcEUdKmUx8VWht2nZBOPQfLgdA4WbX1sMxZtkkFAxaRQ6cS1UkfQbFp70kVaF36DJXN7j7Xbj+qQgsLEeJp3Y4gSS26rcLFc0xHpJxJLJYGjZq7e17lrpegYpClbwmuXcQh1hiW1X3VooOKJqxBfGb7Q2KkpxMoDZu0Umd3EyWGUT+pV6Lk7ER5ULJXcpIOyrD+baVXlybSu1szLYtmDZbbJWHfiAAECpPgR4lyLmytnDyy3Df5Z9JfzvdZuu+Vie1tstE7oSApPmHw0BXvGEn1tXc9yne+kPXef65r6/CueRJ5YrWvHU8U8er2nTq6XOZNHyh3Sk/5sr7fjJZ9W2dJ53ZfVPR77PDOkpe0T24Wh8nuTTMkJ3HfNxN3J3buXQyXBTMGyewp/aQ066ivj9ov98p1KNpXt839cp7XB71/V+gzx1CH0FFhRBuucIx3rAoid5+ILAr368bPNzauDUSW954+cizneGNCu1zbE2N6DbePttwYHtg+W3LdvX7TLvvd+NKG12+v0L7XR9qjjvYr2nXn+ce0OqIEfXH79m3/1pMEFCVnzpyR3/3ud/6twJgoMYya51mixKvDcoG/BcuBeIrPBJiJteffwVIqrCVMgImg5fmUsPRo+6HTKjAGOhGA1YFlRzEZV9VqwbKizm7yzlP87MvlKm627j+l5+44HKkT+7ad+8rKLYckufBupXbL3QT+mAweNVWXOIVEZ6vzPZNzfEYQLRyr91Dic2DfuCdELTxJBffcZJzzg2SHEz20hzChj+279ldRkFpyX0UAfcS3Bady6hFJ6jDvzuE8ym4nZrDEIC76DZuoY0A998lYIZjwO8GSwz6WbtGHBat2yPHITBUHLPdiadmR8GQn0IaoZQkn/uwrZbIn6JxMmbvKCaWreh+0neHuj/5gScJ6g9WEPrBsjuhoXJfPZIHr/6GwRBVR0xeuUx8eBN6KTQc1Uhj1lT9vr5goMYy6TX0TJWWX9kvwgaXy1RfvSELkFrmQFywXMo/K5YIQ93pEIoJX60SeCevZ0LWSGrdLundqJJ988HvJit+tE+BDO+fKzEl95Pi+RTr5vV4YonWbV09056yThIjNKjZmTuorG1aMd+2d1ol0rhMMCIRZk/tKGCLHXWPq2B6yYfk436TZs2S4a1zOOyajBneQfj1aqBBBHJS7feOGd5FxwzrLhdzjciH/hJuoz5GJo7pJUtRWGTGwvUSdWOubhLtJ/J3LZ2S+EzV/+N0vZdWikVLmREB40Ert+471U1VM3L90WoL3L5JNqyb4hJf2I1ruXz4t0SfXy5njq2Tu1AFyaMdc3z53H/FnNum9zZ7cT86f2qBtRLpxu1ZwQq+dk7hXMuN2S0HKATkTvEq2rJ4kKxaM1LqtayfL8gUj5FLOMScS4pwQPCnL5w3X9hLd50FdavR2OXl4mcyZ2l+Wzh0mF92xaTE75c3XX5ERg9rJzQsn5WzYOh3HtUvHuLaC3Jg54Uf/KG5cr+Qd13ufN22AZMfvUUHC5xJycIlea82SMXqM3IuvligpKSmRGzdu+LeeJKAoyc/Pl2XLlvm3AmOixDBqnmeJEq/kXxcpviNSdMtXCm5+ExkKYVJI/W334+GOe7wdIj4Vu30F7nuB/USd4hiWF1E414u0xaTaWxrFe69d75xvtevqsHjQD5ZoPa0PFce7Y9iXWuzrl3ct3uu9cS333gsrzH1znnc+x1duk8K1OYd+0AbvaZN7oj3qOA8BQN+8yGC0jaXCOxbBwXZFP1wdVpET57JUPCWq2PtGRHjt6zjST/rt7ov+MN7cq17DbXMNb6z57KoaI6+YKDGMuk29EyUX98upoNXStNF7Otk/6SbdTMZzUw/KjdJTsnnlBNm6ZpIE7ZmvYiE/47CMHtpJOrVtKHnJ+2X14tEyd1p/Cdq/WHp2/kr2ujZiwzfIO2/+Wie6TKg7u2N7d23mJsxjpemX78mujdPk5sVTsnjOUNm6brLs3DBV+nRrJnHhG92ke6hscxN1nxjwixIndI7uni/H9y6UAtcvrDiXdQIdK9PG95IBPVvKyWOu3yFrZOHMQTJnSj/JjN0lE0d2k5iTG/yi5JzcuxYlqxaPkiZfvivn3CT+sBNO/Xq2kHXuvrp1aKTt5joB8bETXNMn9JKEs9t9Vg83qb9RFCIdW38ufbs3l61OwPTs8pVaKnLcGMydPkAO7JgjqxeNkv6uvZRz23Tyv2P9NLVgzJnaT4XOFifSXv/9L+XAttkysPfX0u7rBrJp5XgntJqroLjuxMXU8T31HravmyJD+rWRc07kLHHj1KrZR7LWjWeX9l+68e8o2Ql7pEWTD2Tx7CHu81omvbs1lSNO+G1YMcFda7E8uhbp67sTJ1ecOOrfq6WMdwJuwYyB7rNoKrFOkEwZ210/x/Xu/ls1+1hmTOztRFacPLp0/JmipF27drJp0yb/1pOYT4lh1CIeFyVMbKta0lOdwuQbq0KgfY8XvZab/AbaV9NFJ/5uIu6FzX1aYeKPIOBV78f1ERET6NgfomCxof9PExHPWxB83FegfRQTJS83ZWVl+nTx0qVLWm7edEr2OfAmCQ8ePJC7d+8+ddLwLL7PuS8z9VGURJxYJ++/86oM6tNKxozoImOGdZJjexeohYKlVzyh79LuC7nFci5Jky1OpKxYMEIn6ogZRMe0Kf2lWeP3ZfKY7hJ1Yo1OtO+UnnQ/hmdlYJ+v5ege156kysYV491EerCUOUFx4uASmTaxj4x312zuzg0PWiHL5g37tihxk+q7TsB079hYOrb5XIYPbCdffPqmWmJYQjV1XC/55P3f+/vdWUXSnUun5WJ2kFpQKkQJ7bl7Oe8EExP/m67vtLUfq4vkScyp9U4EtJbTx1aoUFFrQnmi7zzXh+v5wTLUiQSWkIkUqOUHQXQ555jscW1MndBbRg/pKG1afKyCIdFN+pfMGSbnQteq2MEKgYgZNqCtjiFWpenjnQhw43PcCZap43pKwplN8uG7v3Wfw9fa3ldOPCEEV7qxXjZvuI7fSXf9UYPb65ggKlhKV+zulWtMGt1NNjgRiaWknCVy9N2N87nQdSqmbhfz+aXKlDE9ZJH7DOa6z3XrGjfWkil7Ns/Qz678+jkpuxz8TFEyceJECQoK8m89SUBRkpubK/PmzfNvBcZEiWHUPJ4oSSp8qJNffESiUi/qU/jKk1Zvgs5k1hMtTJIr17FcKiQ6R308aMt78s+xvK9sBaE9okOx5In3394feEmRVyqOdcWzOmCl4FraH/81qKctz3LBMjNCEX97cu/LW0JbXq4Q8nccCU+SeBJGnsvS5WHcm7bPcf5xoR8c772n8J4+eVYkr7DPO98bEz2WcXV1FI6hb96rt5+2vPa5N66v1iH/+8rH6v27trx+fWtc/PUcH3IuW53oWQZXcV/uGK+tZ4mSyMjIp8Z+N+ou/MDPnz9fGjRoIN26ddPSuXNnOXDggDx8+NB/VNU8evRIZs6cKSdPnpSMjAw5deqUipzvQlFRkSxZskRXUxjPR30UJSzf6taxkc83QUpc4d9Fui7xSYnZoU/qF84c7FvO9CDOTfxH6RP3OxdOqoWDJVg8ecficOzAYok+uU4G9f1afVLuXgrXiXjo4aVqcVi1cKQunUo6t02FDtYKhAGi5MyxlfrkH4uCT5S4ibXrAxNzrCFhro3Tpzc5YTNBBUB+ygFdMoWFwn0ju5Lhis8XpCjtoIwa1EGiw9Z/I0rc62l3jZFuUo9ImDK2p2+y78QN1husHOedOBnct5XkJOzV/laIksITbn9LPc790sh8d/8znaBCaLRp8Ym7zjpdOoVFg2Vt965E6FKr1s0/dgJvoQqifVtnOvHRQ/049m6ZKbMm9ZW7pacq6jNid0r7Vg2cKJsiUSfXq2UpPmqrLHSCAzGHwDiye76MGdpBBeHIQe1VJF1ygul8+EaJO7ddx4LP6i5L5Bg/95mmuvoOrT/Te2IZ2oBeLXUZHRYl+s94Meb0ofxG9UTJswgoSiIiIuS1117zbwXGRIlh1DyeKEkpLlMnaXJbLFq7W45HpblJa4k/8pNvIouvwsGwBPWNYCKL1QFhcTAsXqLTL+vyIBzX8VlgH74lJ2PzdeLMe85lks+SotjsG9KiTVeNgMUkmKVJtHM8MkMd6z1/kMcLbXHugdB49b8gozsTbV7xU0FUkY+EY+kjk3K2yWPyRZNWsnZHkF8U+CwPtIfowCFd++om5kdOJUvrTr0k2PVlyNjpGhms5K67rhMr3APHY0nBiZ/7oh0EDJnd6Te+Ghzr9RmBhv9NtOsfTvA4+XNdxoh7PXwqSeu5L46lXZZhcV9ktyd0L+fzymeATwrtElAAB3yO8yxO1NEefaL9RHc+UbYYF8aWOvpB/pdh42dJZunDivHEL4c2yPqOKNl7pljWHca50kdpaalOED/44AP56U9/KmFhPM0y6huIivHjx8vGjRv9NSKpqakaxYZ/AyQ7XrBggfTq1Uvmzp0rV686RetITEyUgQMHytixY3UyfOTIEYmPd3+n7jUrK0uFCuE5o6Ki5Nq1azJhwgTp0aOHrF69Wq0pkJKSIoMGDZKePXtKaGiorFq1Sn75y1/K7NluQmI8F7t37643oqQwZoo8Kt0nMeGb5bOP/yCd2jSUnl2bSs/OTWTciC5yOniVPlHPjNsl99xkFj+IsyFrdSlShzafq3UBP5SxwzrL4P5tpEenr3RynuImweNHdlFRct+Jkilje8jp4yt1ks/kF38NlhQNG9BOenZp4q4xRK0cJ5ygWecm9kzYVQzcOS+3LoQ5kdBaju6Z73rM92aqPLh8Rus2u3awRrCsSQUEy5U4726s+sPMmNBb4s9s9jmGU+9e6R9Ls24WhUpe0n4Z4vrNEqa2LT+VqJA16vw+ZlhHdZavLEoQAViSEGE9OjWWof3bSp4TRQiQrh2+1P4gcAgYkHR2q+tnphzZNVfbvZyLv0i83gNiDoGC5QjRgr9O0N4Fao0qu3lWj+nRubFaNsbhtJ960I3JWJ/PixMYoYeWOjHUW+65ceUc/GxOB61Q35LB7tr42HCPZYyFv9y/FqlLtJo1el8FFILqmvtslswZ4htXJ9YYc6wt1RUl4eHhkp2d7d96koCihC+106edWnoKJkoMo+apLEqS8u+qY3nztl01StTXbuJK7oyUwtsa5coLz9ux+0BN1Ldme5AmHMSRe/CYaWqFwHF9xqL16rQ9ctJcWbBqq1pOECuc26RlB1m8bo9Owom+1eTrjrLvRKwMHDFZ2yFyFJGzUotJwPhtiwmWguCoTM0F0rXvMGncor3mPEEYELXr/U++lB79Rsq7HzWUxU5YpRTe1NwdjZq303P+7fdvyPpdwSpKmLTjDE9OFcL0Uho1b6vO4sFnM3UcEFzcA87poW7C3qnHIE3++PlXX6vT/PwV29SRnESN3B8RxnDWnzp3lTquI3y4VrQTGYxd+279VAwQdpj8JfFO2Yxy5xG9jCABvQeN0ahbhC4mYSNhg6cvWCeb952SiTOXqWCknx999pXmJSH6GFG0iBqW5JQeEbc69fT1kWSMcdnX9fMgoSTBBF5/8329F0TXa+49SRSJREbW9+59R0h795kTfSzzUpnkOnF26Nwlmb8lQnZs3ypt2rSRP/qjP5Kf/OQnWpjspKen6xNwfhDS0tI0gmJSUlLF03SekjOxTEhI0GU8wOSUuri4OJ3cQk5Ojgqc8+fPy507d7SOJ+PURUdHV0ROKSws1KfvJNv1lhMVFxfrk3gmutevO7XruHDhgv4QYc3xJswXL17U3xiCqhCNBXhlm3r2A8dzHufTDtAu7XMdrgdcn37QH/oF9JP+0m/vyT73w31Rx30C9839Mw6MBzA+jBN1jBswjown48r4Ms4IBibu1PFa0+OPOKBNRMlXX32lQoLCEoi1a9fqfWNFQXhwzSlTpsiMGTN0tcOAAQN07TZ96NChgwQHB8v+/fv1GMbp008/1TFE2IwePVoWLlyoQmbo0KEqTOgH16V/jO2uXbv0c+jfv79+TvTZG+vvMv70Ebjv2NhYvY43WXme8Sev2rPGn7pnjf/9+/e1jvumjj554gwrJH2OiYmp+PdfUFDwxL9/LEnUkbXa+/ePYy//XkeMGCGtWrXSusr//q9ccX/cDpblef/+eQ/8++chMePO5wSV//3TNrC0j2tWHv9bt27p+FP3vOPPWCBgqcvMzNQ6xjEx0Y1/6EmJOzpQHpTsk/Kb5+VqfrA6nrNsieVHOGUzcb9b6nNyZ2L+8EqEOmKXX49yE+3jvuVc92PVsZ3zOJ6Jf9m1KJ1scxyT+nuXTsujqxH6HkFBoU2OIXrUlbxgPRYHcfZxHRUDrpRdjZQ7F0752vJEx61o7Rd98c7xjveK1576VlSqf+Tao17bc3296/qAI7o6pTvhQD394h4qznP3fjXvuBMibSTMiYJsNzYaAQwLzO0YHYfshL36+tDd50N3DpYjhMWR3fP0OrTDfXHtivf+flfUs1zNHVuccVj7pHVuG+vGgyu+YxlHrw3uGwd5+sxY8BmowzzL7ryxomAxce0Uph3Sz5UlYwgcPhdvrL/pQ/VCAjdu3Fi/X6rCfEoMoxbxuChp26WvRtbCMkCEph79RukTesLybtgdrDlHmrfuIqu2HtFcHGOnLdIEgzxpV/EyZ6WKFnJlkD/kovstHjZupk6etx44pSLi7Q8aqLWBqFEkHDx6Jlkn0150KwRNavGTjvcZF8vUeoNoIZrVjIXrVBSdii3QZI6IngtunsXEe/DoabJ570lp2b67XssLa7x+13EVN54oORSWoAJid1CU5ifBenDUCQYEAKJk1OR5mrl+8OjpThgs1XEhqhbjhMAhrPDB0ATNLUIm+t1B59z9zlJRodYkdy0sSwgoIpiVuv5Nd/0eNGqKEyW3nSg6Jlv2h2nEsKZOoHH/5E3hGuRlIdM9lhMyynOPLEUjglgHJ94IHMD4z1m6RVZvPSrvffS5tsPn9rs/vKuRzOgLUbg4ltDEiDYif42YMNeN40E5GBbn7nWIbNoTpiGdw+MKdWywlBw9f1UmrzgmLZs1lv/4H/9jhSD5D//hP8jXX3+t63SZbDEx27dvn05Ut23bVjGxOnz4sIwbN04nqkxY4NixYzrxXLduXcUkiskcT8354fAmTEyKqFu+fHnF5AixMGnSJFm8eHGFOGASxKSXCa43EWJyM23aNF0S7E16mEgyeeaJO2IKeGWbevYDx3Me59MO0C6WAa7D9YDr0w/6Q7+AftJf+k3/gfvhvqjjPoH75v4ZB8YDGB/GifFi3IBxZDwZV8aXcWa8maxTxyvbTJQrj78nNkgYRnss46k8/tRVNf5YMIBtlm3t3LlT+vXrJ40aNdLjmSh2795dGjZsKH379tVjGL8TJ06ouPDOx6KGKOFeGGMmvkySuSfGqWnTptKyZUttu2PHjmoR4ck+9+D1H5icI4j4rLDceGNd1fgTMKfy+CM8aZs6JrzAfSCwHh9/2n98/Ldu3ap9Qlx548+YUEd/qxp/JkmVx98TFt74r1+/viIiEGNHX9asWVMhohEA9HnFihUVghmxwP0ytp44QKBMnjxZFi1apKIFmPDz7/Xzzz/XhwmAWPL+/XuiCyE1a9YsFZ0ILEA0Yf2aPn26iingM/D+/SMwADHkjT+CBRDxjD+fV6DxR5hA5fH35nSILG/8sayBN/5jxk2UkC0dpPzSQTeJdZNrlm7dJWytV9w2k1lK5ckthQkvIWa9fYgWJugU3nMuE3FvYuwm9ZUFRcV5TJ65Fq/UcRznUWiHovXutfIk2zuX4+kHr5X3VRzj6h8/j+3Kx3t9qLgm4+BK5fPcJJ5JO6INgYQQ0/O8/XrP1Ll2Oddts1SKSF3f6j/Fu3e/v4zvHP/1vWO8z8LrJ+d457G/cj3X9s7xxh/Rwf7KpaJdVyr6QLuuvuI9pXqihL9J/iaqIqAo4WlJly5d/FuBMVFiGDXPt0XJHRUHSzfsE6YWK93EmKf6ZBcfMHKK9B82SfoNnSDvf/KFWgqSCm7phB7RgaUgOCpVM7J36zdcExjOXLxBl0Mxmf7ws8Y6mSYbOq/4M/QfPknD7RKe99CpJJkwc4mbrE91k/dtkph/S5d5MalnKRMTZfKNkAsEqwJJDQl7S2ZyRMfU+atl2rw1GrmKnBwkM2SijsUHSwbLrUggqJYA1yZWmOSCu3oc1pnRU+bIex9/IWOmLlRBUVmUzFu+VXoPGisLVm0XpnF7j8eoVQGrDRYMrj17ySad9HPctAVrVMix7E1FSdpl7fN2J6QYV0RJz4Gj5cjpFA1jjIDq7sTCR26MyGVyxgmvngNHqWhbvvGAjgNjuGT9Hm2P3CTkiKGepXILV+3U4956/xMZOnaGZqrH8oQ1CgsS4YQ5lnsnoz59IwcKAibnSrkmxBw3fYH2haz4qcX3Jc/NjSr7lLB8h8kLy2z/3b/7d/Lqq69WPNE06hdMsllmtXLlSn+NyJw5c3RiyQQZSwmijQkswohJJBPi4cOH6zb17dq103rPUsKEFNHChJQJKO0z4ebfEJN2RAsT3sGDB+tEG5G4fft2fU+dJzyM6kPCuHrjU1KDGd15Wo+lhOVPpZlH1fISUEw8o+CngpN6aeaRCiuATrS9BIiVSrmrK3vMEvKdipvMcx3tuyt6TURC5WO4D7WM+Cf0VRT6U+5ZWTjHFa2jzceOxTKDVYbxupLr5uGMF6Lo8eOqUaq8xvOWaoqSZxFQlPD0iScvT8NEiWHUPI9bSkgWiBWAiTU5LcgfcuxMuj7pxzKClYJj5q/c5sTDFp308p7J8JFTifrkfjqT8uzrKjCWONGCVYNs7WRP58k/lpgkJzr6OoHDRJgM8EzMaZts7yy5IieHOt2nlKqfRroTEZmu0MYnXzR1guOQTrabfN1JxQEiaNzURSpKyNnBpPtsykW9HhN+xNJvfv+WrNl+tMKCwbIvxAJLokhSSGZ0zsNvhHws+GDQL0TJ5r2hmuxwnLs/lpwhrLIu+XKR0B8sHDjSN2zSWjO34ziOkOI6+HA0btlel4SxnArht9EJhL3B5+ULd/ysxRudsNghjZu3VbFH6GVEyOdftVJ/EPxPyF4/z907YmrstIW6VAyryciJc9TnJex8tjtnmgokRA/jfSouX4Y7YTNmykIVJYgmxgL/mwFOELL8i+VqoybNdfdxQHO+zHX3ipXqcVHiwXIMJois+fee/Bv1CywCPKH2nlgDlgSetLOcyHuPPwhCxLMyYVni38XIkSPVYsTDRn7bsShwzIYNGyqsAzxpx3KC1YWn7Ygaros1A+sL/itcHwHDk3dEEVYJo/qYKHms8HTdTdTxEyGULv4VXTt9JZ3bfiEHts2SR95k/pE/8SCFybc+1fdPwHl6L8katevLz97WULldOzfRqF44xl8vOemOjxdNSEgh4Z+b0LP0a+LorlKScdjXptcnBAXJBCnuOBUH7CfhIYkcKx97N1YK0g7K8AFttc+E3CU8L0ud9DjverTJvdKe3oerw5rh9b/c/b0+iJPpE3rL3i0z1A8n9PAyXSI1f/oAzXGiFhb64r8uvh841TNe+PFsXDlBLhe573/aI7O9dx36wHl6HXcP7EMc0SdJ1WVXFU7rjKt3je9SqilKeLiClbEqAooSvmy8db5VYaLEMGoeT5Ro9K2iB/p0nZwYU+as1ISC6pDtJtZ7jkc7MbFY/UjUmTwmVx22p7lJMEIE52omyUERaU4kZOjEP9KJAnwWOP/omVQZO3WhigOsJPhecOySdXs1OzmTevYjKLBsJDqBhDjZsv+URo7S5VtOnOC4vWLzQe0Lk3p8MHBw55qICIQCy7noD31g6RS+FrS7/wTRty6qWPAtByvX5UpYG2Yv3ayiAqvQOXdftBubdaPiXrk3LAr0EesQbWDh4drbDoZrn3FuZxkbjuMkjeQa3DvjhPjBCjN5znK1tPgigpXrkjaEHdncD59K1r5HphQ7MTFb5i7bItnuHrgW94NvDu+Pu3tlPBkPHNtDzmVpe1HJpbr0i8+DfnN/OMYfd/dEf3CQR3BxXc4jkeWpuAJdmkfflm/Yr34sWHgsJLBh1G3qVfStmhIlrsye2k/D2vqiYBVrJCkiel1wguHcyQ0a8QmndiJ1FbkJP47bKdHbdaIed3qjnA5Zo1GqBvVp7fNzkAv65B/HcXKklGQH6YS/V5emWpeVsFfzpPTq2kQKUvb7rCn0x03WyY1CxC8EBg7cZSynStwrE0Z1VUfwqNC1vuNdwRozqHcrWenEj07o3USfaFg4kd8oDpUdG6apEzuRxW66bXK54NBPWN708ztVpND2iEHtZcLILtKwwZsa2Soxaovs3zFHQ/j+6yv/oNnyrxSe8AkdJ0jIZUImenKMSFmS3L8WpQ7oOzZMlbvu/vc5Qcf4kT+F9h66sYg7s0mvQyhiRA8BBfr0aC5EIkPIaShlT4Q9/jlVt1RTlDRp0kSXRlZFQFHC2kFvPXBVmCgxjJrHEyUVeUqu+RLu4TuBH4Lnz0Ed/hok3uMYT6xwHPVMisnlgYXAExGIAkIL8579HMfx1HvHkvyPiFDkEGG/t80kH98Olj5VdnjnPcdwLG1rMsJS3zUptEskKq7n9YFrYkHRPCWuz15bFO6Dtkg2SHv0iWN87frCCXMMx3pjwPUZK67FsYwTx1Jog1cvrwnvWS6FJQTxdemhr23v+pxLm0Qu88Iwr9p6RGYt2agCjPM5rnI/vPC+3hiyRE7v23+vtEe9HuteK8bF7eez8+q5D+q4tt6XGyO9Hu26a5koMYy6i4mSx4rfUkLY4E8+fE1mTOwjM9yEnjwlS+cN0yhbuzZNl5BDSzUSFqF9yfFBkkSSMt4qOamZxsnRcTpopTT48HWdZM9w4oWoXuTUyEk5oOGCD+2cJxlOjJA8cC6ZyRP2aE6PwtQDPpHh+kHmdxIbbneiJyZ8o3Tv1Fj2ugl+RPAq+fC930rkidVyywuXe+e85kbhmNsXTvosEX6LBM7qdy+cUssP17uEIHEChwSRyU70ECWMe0yI2qoRsNYsGS1ZyfukxVcfyPrlY11f58jIQe00Cljf7s1k18bp8hD/Ddp34meJu/85U/r7llz5+06fHrltLD8IkTgyrh9Yov0jQ/1OJ5A+//QNTfBYmHZQ+4YQITM797xj/ZQfTJSwLNQLxhCIgKKEKA4ffvihfyswJkoMo+Z5XJQwYa0Nhb4gLrxJ+dMKx5KpnGVPiARPEFSnMNnnHCb8iI5Ax3zfQv+Y+CO2Au1/vCAiOL469/6iiokSw6jbmCh5rPhFCWF9v272kezeNEOTCYYcXCLlbnJ83x1DBvN+vVpKr65NNfQwFhEiTJH1/OD2OUIGcywUCBcSMJIAcY+rJ4v7DSJ6uYl25Ik10rtbM+nb+2tp8NHrssCdQzjeb4kSJybUAtH+C18YXsnUMLdzpvRVUYKVQRM6smwMZ3D3Shjgru2/1GhiurQLYXI7Ri6488lNMnF0N18ErfJk7e8br70i/VwfCA08qG8bCdqzQC0npVksy8zQHCwkIjy8a65MHNVVwyKPG9ZJxU/F0ir3ioghWeFDompR/yBOo2kh4ohmRnjhPt2bq6WEHC7cF/3gHClL8Am8Xi003wrLy5bPH64hkn8oUfIsAooSIj8QTvBpmCgxjJqntoqS6pbMS74cKvh94HCPc3rhTZESv0XDm9hjncASoMKD+3SF5Wr4s+B7wXmb94WpQOEcjsfqQFu0z5InLBmeFQmLA0XfO2GDEOJcruntf7yvdamYKDGMuo2JkscKosSVGZP6yJjhnX0+D5Lq999I0CVG5OpAmMS5iTTvWaJEzhEEw1dfvCMRRKly55ClHeFyo5CIbpm+Nu7FaYJBkgpijclM2qcWiklucs4SMSwX+cn+nCJOHF3MCVLLAsusUqJ3qK/Gzo3TVHyQsZ0lWNpn+u7Ex60Lp3SiP35kVynKPCIlWUdVWMx093PZTfjJt6K+Go98CQ/JTp8et1uz0W9dN0WyE/fKpNHdnSCYKIXufDLcc75nKeF6g905iLVHWEMQDE4MFacflt7uXjnvQn6wu6/9urSM5WLkgWFcPCFCQsbzpzbIwR2zdYkY93q1IFiXxO3fNkuSz27VpV749fxQogTfNRK/VkVAUVIdTJQYRs1Tl0WJr78P1V/kt6+/rY7zOK/jX4LvytJ1+H74jsVfhMhS+MngN4E/BmGCN+0NlaOnk6TfsImauwOfEMTH3uPR6ki/wZ/XhKVU+NsQQQtfF3wySLhIWGL8NhAm8Tm+aGScx/Vwzq+LQo9iosQw6jYmSh4rTIBd2e8m7ptXT/QtR6oIM3tOHlyN1GzkZG/H0sCypONu0o0oObZvoU6sSUzIpD82fKMmaCRviYoMbf+slDsRgQjo2OZzGTO0o1pSyAKfn7xfs8tf1twcntCI1uVMA3t/LR1afy7bnXBg2RT+HxtWjFOB861JuxMI5BzBWkMfu7ZvpMvJrheFyoMrEXo+DulM9h9ci5Qtayap9QJLCckeHzhhQ6JFEiuy7Gz25L4qgBARJIosc+NBBnpEFIKpop/3YtW3hizqXTs2lu4dGuvyqzvuGkQxmzGxt4orssQvXzBC0pzAijm53ifosPK487nPjm0aSv8eLdQn5qy7bsUSNO/+nrdUU5R07dpVwwJXRUBRQuKeo0eP+rcCY6LEMGqeOi9Kih/InKWb5Q9vf6SRwnYfO6fRw4iiRZSw4eNnSWRyqTT4soW06dxbRUgKouQiIYHvSZ8h49x5+zVS2NsffKaiBPHiixa2STO7E5Eq5Fy2vP/xF5r3g7DIJDAkMhchgL/WXCg5Gp2s54DRGiGMfCyE9v0xl2B9n2KixDDqNiZKqihEgmIZ0uP1TJCJFsU+JsxEkmI5lptA4zMSf2bTNwKE16qe9OsSJ//yKl65HhYP2n78eK8vvLKf4xAD1AVq27suxxNRi3O8Pt3zv1ex5b9e5fZpj+VgXt+ImMUr53AMbXjHVr4mhePYx6vXJtegsJSMOopGDHN1tFm5Hd57/eH69KNy+9+lVFOUkDvJS8obiICihKyiv/3tb/1bgTFRYhg1jydKkgrr5vIt/C9Co3M0Kznhc0kySDSry2WiS7II7csSLRI68lrivpu4T6wYnijZtC9M1u8M1uVfWFHIffJF0zYyZd5SDf9LFnYSGbZo201CorPVItK19zCN0EUYZbK1HwlPUSsJ7U2es1T2HI9RS0xdtpTsN1FiGHWW+idKdruJaKWJ7osqlRP6uYk8vha3isN8E+1AQiFQCZQU8GnluxxfnXOet91nlaqu+2P0RUXJsWeKEsKPe4liAxFQlBCj/Glp4MFEiWHUPLfvPpDFexIloeB+nZxA46B+JDxZc6qQRHHU5PmaMwXfDkLvIiR2HT2ruUh2HomqiGDliRLypJBUkESC5O5ASHTuOVi69x+hPiYkgFyydrdeg4zvpxOLJTyuQHoNHOOESqxaYdr6RQm+KYQ2JncJWdRZ7oWfyeN9rguFUMSHz5XKzlBf9mfDMOoW9UmUFMcvlLtFe91EtAaesD9vUesFgiTAPis/XrkZLQ+dKCmMme7+hVQtStq2bSsbN270bz2J+ZQYRi3i/oNHsupgsgTHXZbM0ropSvDpQASQc+NkbI506TNUmrfpKg2+bK7Z4bGgkCgwkChBiCA+th0Il8+/+lqXd+EPQuZzEhbSzopNB9UaQ/LD8PgiFT8s4cKnBFFC9nfyiMxevFGPQeiwfMuX+LHuLd/KcOI0pfihbArOkaCzef5/KYZh1CXqkygpTVknV9OW+yek1bRWWKnf5eY5uZG9QYoTFvv/lQRmypQpcuwYEc4CE1CUZGdny8yZM/1bgTFRYhg1D2bPY27iuSUkT5fsBJqk1uaCI3uSExfkM+EVh/PzmdfVOoJY8fJ1kMAQZ3XP8d0rCBac4/EzwW+EBIOcQ4JHkkiSLZ7QxETqoo2Uovt6LOexdAvLCvW0xdIvfFKwlpB4sa5aSRCn8Xn3ZcWBVMkouOb/l2IYRl2iPomSG8WRUhI3w72J0slowEmqlZeouH8Dt2KkNGG2XCsI9v8r+W4EFCWkgH/99df9W4ExUWIYL4biS7dkzeE0OZV8o44KE7Kr+3xF2OY9EbQQKJXrAlktvHpC/uKf4uUSQYjQBgKFNvQarq7ivV7PF13LuzbtcE3Oq6uCBNFGRvdd4UWy/3SOPHhY5v9XYhhGXaI+iZJHD27LheSV+mRcbvudsq28vOVOvNzO3y4lCQvl4T33w/0UwsLCJDMz07/1JAFFCU4oJFB8GiZKDOPFkVlwVZbsSZLIjFuS6ybfdXEpl5XvV7KcGMlyYupAVImsO5IiDx488v/rMAyjrlGfRAk8vHdNCmJmusnoDp8w+TH8S6z8uOVWjAqSO0V7pTB6qty7VeT/11E1jRs3fqrPekBRwhKSsrKnP5EzUWIYL5aC0puyNThTn5LH5d1TZ+fsS+X65Bw/A3J7WKknxf95IkT4nPmMw1NuyMbjOXL0bJ7cvf/Q/6/CMIy6SH0TJfDg3lW5mLZZLqUslvulR33C5Has7/VmtJX6WLzP2JUHl47LldSlUpqyVu7fvuD/V/F0du7cKXFxTsRWQUBRkpCQIB06dPBvBcZEiWG8eIjGdSq+UDYfz5Td4QWyP7JEguOuyNnM2xKddUdf63NJcd9zcfkPA+6rTyUm+66cSb0pR2Muyr4zxbLjZJ5sD8mUBNaiGYZR56mPokQpL5frRaflQtIyuZK2Qq5nrpVbedvkwYUj8vBSsDy8GFSvi9w86X6owwPuq1fFCZAHTniyTOt61lq5kr5KSpOWyrWCUCkre+D/x/D9CShKYmJipFGjRv6twJgoMYwfDvKXJOdclpNxPt+CA2dyZWtwhmw4miobg9Lqbek5bq1MWXks4L76Uta7z3B3WLbsD8+VwxF5EpVcItlF19wXfdVhFQ3DqFvUW1Hip+zRA7l1OdlNUkPkUsY2uZS+WUpTVmv4YCIy1dcSsr2PHFrXOeC+elPiF6kP0aWMLXIxfYtczT8uty4lSNnDu/5Pv/osX75ccyFWRUBR8vDhQ826+DRMlBiG8aJp0vhL2bplk3/LMAyjblLfRcnLyuQpM6Rbjz7+LeNZNGvWTNauXevfepKAooQU8IQFfhomSgzDeNHEx8dLSUmJf8swDKNuYqKkfpKTkyupqWn+LeNZJCYmSnFxsX/rSQKKkqioKHnvvff8W4ExUWIYxovm0aNHzwy6YRiGUdsxUVI/4ffJfqOqz7N+0wOKkrS0NBk6dKh/KzAmSgzDeNH0799fDh486N8yDMOom5goqZ+sXLlSJk+e7N8ynsWQIUNk3759/q0nCShKqoOJEsMwXjRdunSR3bt3+7cMwzDqJiZK6icLFy6UkSNH+reMZ9GjRw/ZsWOHf+tJAoqS0tJSOXDggH8rMCZKDMN40dy8eVPu37/v3zIMw6ibmCipn9y9e1du377t3zKeBb/p9+7d8289SUBRQriu3/72t/6twJgoMQzjRZObmytXr171bxmGYdRNTJTUT3iIX1hY6N8ynkVeXp5cuXLFv/UkAUVJUVGRbNiwwb8VGBMlhmG8aAgfuGXLFv+WYRhG3cRESf1k+vTp0rdvX/+W8Sxat279VH1hPiWGYdRapkyZIqGhof4twzCMuomJkvoJ/hFLly71bxnPYsaMGRIcHOzfepKAoiQrK+uZ0QRMlBiGYRiGYTwbEyWG8WwCipLIyEh54403/FuBMVFiGMaLJigoSDIyMvxbhmEYdRMTJfWT8+fPS3h4uH/LeBboBtKOVEVAUXLjxg2JjY31bwXGRIlhGC+azz77TNavX+/fMgzDqJuYKKmfTJgwQTp37uzfMp5Fo0aNZNWqVf6tJwkoSsrLy+XBgwf+rcCYKDEM40VDjpKkpCT/lmEYRt3EREn9JCIiQi36RvUgcWJiYqJ/60kCipK4uDhp06aNfyswJkoMwzAMwzCejYkSw3g2AUUJa+SaNm3q3wqMiRLDMF408+fP17xJhmEYdRkTJfWT/fv3y7p16/xbxrNYtGiRnDp1yr/1JAFFyaNHj+TWrVv+rcCYKDEM40XTuHFj2bRpk3/LMAyjbmKipH5C2PqePXv6t4xn0bx586eKuICihJT5T/OOBxMlhmG8aJKTkzVjrmEYRl3GREn9JD8/XzIzM/1bxrNITU2VCxcu+LeeJKAoiYqKknfeece/FRgTJYZhvGgIuIHl1jAMoy5joqR+8vDhw2cGhjK+4Vm/6QFFSXp6uowaNcq/FRgTJYZhvGj69Omja3YNwzDqMiZK6ifLly/XsMBG9RgwYIDs2bPHv/UkAUVJdTBRYhjGi6Z79+6yd+9e/5ZhGEbdxERJ/WTJkiUyZswY/5bxLHjQuGvXLv/WkwQUJaz3Ij/A0zBRYhjGi+bOnTtmGjcMo85joqR+cv/+fbl7965/y3gWz/pNDyhKCMH56quv+rcCY6LEMIwXDQ6Ely9f9m8ZRu0Gf8xx48bJ6NGjtezcuVPXnP/Q4EwaExPj3/JB3bRp0yr6NnHiRCksLPTvNV40JkrqJ8XFxZKXl+ffMp5FVlaWXLp0yb/1JAFFCYO8bds2/1ZgTJQYhvGiadKkif6YG0ZdYPr06dKxY0cJDw+XsLAw6d27t2Yw5mkqmZ9ZgcBDP56sErXnypUreh7vi4qKpKCgQH+0OSc+Pl5FAz5V2dnZetz169fl0KFDcuzYMW0TOAYBwjrtjIwMDefftWtXadu2rdy8eVOPgbVr18qXX34pISEh2j9ECQKqrKxM9588eVKXStIPuHjxol6LPl+9elWjcubm5uq1WH7h9R0QY8wZ6D/QRmxsrPYpKSlJ63hCyrVpLycnR+tweD1x4oTeY31/+LB9+3YTJfUQhD5/50b1aNmypaxfv96/9STmU2IYRq1l5syZT020ZPwwMAFlwsuk1JsMM1GljgnmvXv3tO7atWtaxySaSSjcuHFD65hsM7EFJstYwajzcmLxyjb13mSa46njfNoB2qV96rgecH36QR39AvpJf6nzJtAsG+CpJnXe0zosGYgC6piIA5NlJvvUeSGpmbwz2aaupKREysvLtY6HeF7dvHnzdKLPeybogwcPVlFNPxEaAwcOlAYNGuhkn4k9P84IDc5BaIwfP16GDh2qEx1y9MyePVu3e/XqJXFxcbq/W7duKjgmT56sfRz+/2fvL6DrWrI0XbS6+3b16Pt6vHd73PF6vHsbqrugb1dVVuXJzEo+mYfZB3zAx3TMzMzMzMzMzJYsy5ZlkC3JkkmyLDYzM8w3v7l3yNvyFhhkS3LMMWLsvWLFClqx1pp/TOre3ep1gCg+Pl4aNGggtWrVypsLiH5go8X4GTvt9+3b1+Z49uzZVmejRo2kSZMmkpiYaPEXqlWrZu2vWLHCgAdlGCNt9ujRw+YG4AFTNmLECBsv5ai3Xbt2MmrUKKlTp44BkwULFkilSpXsOgKocQ8nTJhgfaK/1MG9hrgnzF/o/HNP3PyjYp5//vklj8T8k0d5B7q4hjzmzHn/4X6TR1tOosXckMc8OTUTABN5z7L+nUoP95c1PWbMGKlZs6blFbT+yXuW9U/dEG3lX//0Kf/6p+9u/TsQGG79F2f+ofzr/2XOP33KP//03c1/6Dsp//wzF6HzT15R76TnnX9A9owZM+ycp6KJ5yAmJiZ49DSFBSVMNi/JwsiDEk+ePHl6M2jLli1moMjuOowGxPufPBhQGAMI6QB5PXv2tI87hISAvG7duklqaqrlwfS2b99eOnXqZBIBiF+Oyec8RHmu43rqgaiX+smjPYj26Qd57rtEP+kveZs3b7Y8GKyhQ4daHiABgrkB/JIH8w3BgMB8k+ckdTAjkydPtjyCf8FYwSDBkJA3Z84cAxOffPKJHcNkYwQLs0Pcr4ULF8rMmTMNlFAnjBsfaNqkHIwQY6AcBOjYsGGD9Q9gQP4XX3xh+YwLjz/Ui6dM1MQgQMHevXtl2rRpMnbsWMtzxE79u+++a30DHHz99dc2H9RftWpVCwAHsMA7DpIU7jntUv/SpUttrgEjjlFs27atSTnoM+WhiRMnGuCAf3BBT7l/MCGAJe5bly5dbB7oZ8WKFe0880bfDx06ZNfAXLr5X7JkieXBILr5B8zB7MKM4v2IPOrkfnBfkAqRx7xy32CU6Q95ACHHdDIn5AH+HDMPyCKPPjkmHRBJ3qBBg4wJhwCR5DFWmGWIcZLHnDmAtXv3bpvTChUqSL169SwvISHBQFvomAGdgEvKOtU74jQxX8w18wXBnwHsaMdt2MCEY2xNXnR0tOXB6LNGyIuIiLA8gAFgkzzn1RCG361/t45gtlk/5Ln5Zx1zb8kLN/8AW9YG88+zQN7UqVMNHDD/rF/yws0/z4HbYHDzD8h2GwcbN260POaf5wZy7yTmHwADFTT/5LF2UWGEWItu/g8fPmx5SPbyzz9g2s0/YBvCO62bf7fuPb08CgtKWPwffvhh8Cg8eVDiyZOnkiY+RkUFcvVUsgRD6hgGT4UTTD3MVH5CKvHpp58aE4NkAGYZ4huKZAK1JghQBsMHI4dUBMYRhhMGCCYMpgkVK8rDZMMMcw1SCJhBgBDqYTCZLVq0yNsFhmbNmpUXeZp8mH4YShg6GDv6zrUwjzDNMLcws9SDdIZjfgFRrAnagkGG8aSvABT6Qp8BH4AECOaPvsMcwsgDqr777jsrD/MIAwvgpLwDt+WR2FEnmrUnT28y8U5xm1PhKCwoAcU6PdCCyIMST548lTSxk1qY/qmnkqff//73xqR6KprY0IP5zk/swiO9GD9+vElo2BVHXYUPNJICp1YCo87OLecAMDD9AELKIQXgu4xkgt1uwDp57hp2rmH+2UlOSkoyJt+p3kBIoqjHqc7QJwABO7/sjCMtYAeY7zr1wjggVaItgBF1on7EzjG7zm6Hn76zS861SFPoO7+MEaI+VHbYpWenHVDidp2ROgCGMLxn3pwKT3kkpGPepsTTm05IadkgKYjCghJebk4fryDyoMSTJ08lTaivOJE7DIxTHXLEuwqGx6kDoOsLQ/WshJoAdcPoOZUNTwHCgDmUufX0cgiQgK2IU8sp7cRziHqWs2Pw9GzkQYknT2KqtKglFkRhQQm6dUU9PB6UePLk6VUROsnoibPTjIqH0ysGkKDagjoJgIKdXHaYASboNzsDydAdWNRVKOs2XqibXWVUbPBA5PTDASkwYs4QFeIarnW6zlxLW+jls+PswJEnT89LrCmnm5+fAOEQZUjFIa5hXQIminuNp5dPHpR48lQ0hQUliF1x21UYeVDiyZOnkia896DnDqH/jk42xo78oqqCoec777xjuuyoovzud78zY1h2n9Gfx/gTj0QYraI+ghElhtSooKCuguoJAAeww+4NYmXqRPcd/X3UVFA3QYUGKQwACL16EuomgBOMgamTPN6bgKDyRKjWMHZPr4YAvuwmhsYZAUxwzBoF/KL+5ABKUcR12KFg3OtByesjD0o8eRKzZXtm71tefcuTJ0+lgYhTghQE4mWG0S2EXj7Gtaha4c3FxX4AIKBqhA0E7kud6hdlqQePMoAXzrP5ApOGZx0AD+89AA/ABUNkDHhh6NCld56X8GYDAUgAIXiJAvygqw8BTqivPNEHH3zwBIPsqWQJKQlrFeDcuHFjW694UsJzE+sbsMzaxqaDdQtoBCxjb8J9wlMQYBpg7tY3axg7DwA4QJ+6kTyyrmEQWMvUwTVIClnnPGt4J3JejDy9GHlQ4snTc8Yp8Ybunjx5Kg2E1AHVKJgrXmQwYRDGvUg6ULGCyYKZwo0rDBtAhZ1kGDjnfQjjYMAG53DnCvhwsRJgzpz3I1yt4mUII2AYQyQsuKukHOAHY2UIxo0Adah7IUlxOrL8L2/vRcYW6sXJU8kSoAQPWHhrciAC6QherQAXSPGQEvJssK4B44BjpHyUAVDg1QrgzL2LjIw0cM55AAZ2IRilA3ZQ1cZbGCqNqHex/mmXdYwUkDLlDWS/LvKgxJOngEt3p/4cjsKCEj7w7I4VRh6UePLkqaQJhgt7EEAJgASAAMEowUABMnA/ChMFQCH4G1IU3mEEj4OhA0ywM4zbUZgsx/BxPS6H8TDkmG48DXEOd6uAF9qBwYMBZEeZHWqYO3aQkaaQz640zB3EfxcTo7wQu+nFVRXy9OLEfBMvwnk8Q0IHKMbtL9I7VLF4DpAOIiUBbDuvXhjP8zywTgHUrHe8aKG6yH8HNDCwR8IHiOH5YC1TP/8B/AB1iPPlbT2/LvKgxJOnwDedjZeCKCwo4UOLukNh5EGJJ0+eSppQIYExgtjlxcgcwhMX0lzACswbAb6QbsCo8V5iN5kgWAAIGDYX8AzXpkg7YL5QiUEK46TCHKN+5dRcYN641qmAQUhgyHN9wsgdNTAXeA2m0LVVXojAekVJzj29PMLAHckFAIL1zfeYDznrDGcMSE3wSoeUDhANeMZDGoHsACCAd9YuUhKAOiAH0IyEhLUJ4MGxA9IWwCZrnQCQJEA+mhJOZQtHEuVtPb8u8qDEk6dA0FXeYwVRWFBSHPKgxJMnTyVNBGhzAOBZCEbORewuDiGNQTrCjrF3efokoQPsQUnpI5wvFCeiNGubyNkAGU+vjzwo8eQpYHeJdLcgCgtK2BlxxqUFkQclnjx5KmlCEhHONaqnV0fswHv1LU+eXow8KPHkqehvelhQggrE22+/HTwKTx6UePLkqaQJ1SlUSjy9PkIlLTRWiydPnp6dPCjx5ElMBbuwYLxhQQlGcRh7FkYelHjy5Kmk6ccffzS1Kk+vj9577z3vEtiTpxckD0o8eRJ7BrCDK4i8TYknT55KLRFXBNemnl4f4fQEBwGePHl6fvKgxJMnMYcbOOkoiMKCErx74FawMPKgxJMnT548efLkqWjyoMSTp6IpLCjB7eXHH38cPApPHpR48uSppAkvHS4woafXQ6jPodLryZOn5ycPSjx5CsQ+Onz4cPDoaQoLSggkhrSkMPKgxJMnTyVNFStWtEjunl4f/eEPf8gL5OfJk6fnIw9KPHkSqVSpksUPK4jCghLcdRXlbcWDEk+ePJU0RUZGFrlB4qlkCWkVgfw8efL0/ORBiSdPYoGNXRDkcBQWlCQlJUmVKlWCR+HJgxJPnjx58uTJk6eiyYMST56KprCgBL/0derUCR6FJw9KPHnyVNI0dOhQ2bFjR/DI0+ugbt26SWZmZvDIkydPz0MelHjyJDJy5EjZtm1b8OhpCgtKHj16JPfu3Qsehac3DZQ8fPhI7t57IDdv35NrN+/K5Wu35fzlm3Lm4g05df66HD97TXJOX5WsU1ck6+QVydSUceKypJOOX5acM1cD/zWRz3nKUZ7ruJ56qI96L2n9tEN7tEv7njy9aVStWjVZsmRJ8MjT66CPPvrIpOeePHl6fvKgxJMnkVq1asmCBQuCR09TWFBy7do1SU5ODh6Fp7IMSgx03X8gt+/cN8YfIAA4OJJ1QeJTz8qO5JMSsTfH0sY92bIqJkNTpqzQtGxbpqzckS3LY7Jk4dZMSwuiNG3JkPlbMp9I84Jp/pYsWbXzhMyPygrkaflAfuBa90tydS7brtfEZgfa03ZX7SBlWH8itV+bNdHP+JSzclj7Tf8Zx7Ubd2xcjI9xevJUlon4GJcvXw4eeXodlJ6eLrdu3QoeefLk6XnIgxJPnkRycnLk0qVLwaOnKSwoiYuLk/fffz94FJ7KAii5ceuenL5wQ9JyL0ni0bOy6+ApiU48Lmt3ZsvS6AyZuzlNZm08qiAgQ5bvyJEVscdlze5TsmHfWYncf15iDl2RXalXNV2TuGPXJT7jpuzPui0Hcu/IoRN35cjJe5J66r4cPfNAjp19KBnnH0nmBRHFCJJ1URkqTTk696T8/zlPOcpzHddTD/VRL/XTDu3RLu3TD/oTc/iKRGj/Nmo/1+45Zf1eHpMrixXMMJ45Oq4lOr61O7N0vCd03Cd1/GckTRtnPm7cuhucIU+eSjfhcOPuXb9eXyexSYXzE0+ePD0/eVDiyVPR3/SwoAT94SFDhgSPwlNpASUPHjyUqzfumOoTkg6kB+t2ZVtavDVdlmzL1JQjS2OOy4a9Z2TbwUuyM+WqJGTelMMn7hkYSCede2QpgwS4CCb+W7JzlAuW18S1j5MCEwUVac+RuM6uD6nPtUF7tOv65VL+vgX6H7j2sIIaxsc4GS/jXqbjZx6YD+ZlnQKz9buyJCbppM0b88c8Mp+ePJUWatGihfk19/T66McffyzUr7wnT56KJg9KPHkSadmypaxYsSJ49DSFBSXFodcFSrCvyD1zTfamnDE1pjWxWbJUGe05EenKeOea9CD2yBXZn31bDuTckRRl0GHWkU6QkEwYQx9k4MOBhLKeGBfjM2Cl43VjZx5STt0PSGB0fmKPXJVN8Wdl+Y5cm7+l27Jkrc4namt7j5w2O5i79+4HZ96Tp1dHqB6S2rZtK+vWrQvmenodhNMTH8DSk6cXIw9KPHkS6dy5c6Hf9LCg5NSpU4UaokCvCpRcvXFXMk5elt2HTpn0Y+WOLFkcnSUrd52UiMTzsiftmkkGnNpUAHA8elKaEYZxfxNTQCLzWArDPDFfTo0MtbE9adclYv8FWaXza/Os871uV47sPnjKDPSRpnjyVNK0evVq+dWvfiU///nP5a233pIvv/xSTp8+HTzr6VXS/fv3vX2aJ08vSB6UePIUiIP48GHBGjlhQcmePXvk7bffDh6Fp5ICJQ/143f1+h2ThKzbGZCCYBSO7QQMMzv92F7kMdP6W14lHq86mYQlZF6ZZ+Y7Tud97Z7TZpBv0hS9L3GHz8jla3e8VzBPJUIxMTHyl3/5l/IXf/EXln7zm98U6RHQU8lQYmKiXL9+PXjkyZOn5yEPSjx5Ejl06FChG4xhQcm5c+dk48aNwaPw9LJBCQxu0rFzpj40e1OarNp5UnYcvmKqRjDJqB+ZyhXMcwgj7VPJJTfXzDvzz304kHtXdhy5Kqt3nZRZep9W6/3an3ZOLl69HbyTnjy9ON2+fVuaNm1qgORf/+t/7VW4XiO98847sn///uCRJ0+enoc8KPHkSaRq1aoyd+7c4NHT9FptSjCqzj51RTbtyZYFW9JlXdwZ2XP0uqSdDdhDsGuPHUQ4htmn15PM8F7vi5NQIUXBkJ77t0HvI66J7+t99eTpRQkDd6Ql//iP/yjXrl0N5np61YTTk9zc3OCRJ0+enoc8KPHkSWT69OmmjVUQhQUlR48elS5dugSPwtOLghLc9BJ7Y8GWTNl24JJ5wso8H1AbCscM+1Q6E/fL2aNsO3jZYq0QVyUV38eeSozQ8UfVEfW5cpl0bKgMYWQ9bdr0wHjDlSsnKWCz4VUhofJ+r9+05Nd2gObPny8//PBD8Kj8k911vfc+lacUuLclSWFByb59++Szzz4LHoWn5wUlxMkgGOHCrVmy++g1bxdSThL3j/tI/BVsfxZFZ8uK7Rly8rzXRX8ZdPbSTdmXckYi9ubKMp1XAmvOjzwmszamyuxNR8tlmhdxTMYvS5AZ64+EPV9e0ky9h9jOEZyVjZptiSfkYMZ5uXWndHi+Q9R+5syZ4NHLp8yTVyyG1IY9OToPGRacNtw8+VT2Eu+nFXo/eWet350tscmn5NjxNzMYakREhPTo0SN4VP7o/p0rcvVMnFzMWifnUmfLeU1nj0yRU8kj5XTyaJ/KcDqVPErOHp4k54/OlnMps+Ri5hq5cmqX3LutDPwz0qpVq+TgwYPBo6cpLCghem9WVlbwKDw9KygBZe05fFqWx2TL3vQb5vkJNaBwDK5PZTtZ7BRN8ek39X7nGMNRmLcFTwXThSu3LYo/Uf5xdx2VfMFA38HjBO+8bxLG8pzSzoqknn4Y9lx5StzLJHPTfcUCt67Zc1IWbDkmO/XZed3qkH/4wx8kISEhePTyKC33sixXZnWZviPwpBh98JLs02+DzcnJp+fIp7KZkKITAHj7wcsW9Hd5bK4sjT4mh9nBKmG6efOmeRPFsLaoAKB8o+BTQgnnGhcuXLA6zp7Vl1EhxLW0gbc6pLwlFXCU4HP05/z588GcQN8L+8YWdf5F6OH9mwpE1suZQxPkasY8uZG7VO6cXi8PLsbIoyu7Ne3yqVyk3fLw0g69txvsHl/NnC9n9Z5fyFgtDxSQFpeIezV79uzg0dMUFpTwUF25UngjzwJKrt28K1EJJ2Rd3Gn7+HoVrTcjcZ/x3rV+72m9/8fl6k3vTvhZ6GjuJVkUlWEMG5H+A84GAi6vkUwFAm76VF6SuenWZwbpMWl/1m1ZEXtC1uzMkivXX9+zg9OTixdfHgP5QJmj3YdOy8KoTHOawbhZ27wvAgFgw8+PT2U3cV+5v4F4WY9kV+o1WbQ1S7YnnZB790uGWd67d680btxYmjVrJk2aNJGhQ4fKyZMng2efJEDEwIEDn3DoACDp3bu3fPvtt3l1TJw40RwBhaNjx47JiBEjLKYPvBHg4WVTfHy8tGrVStq3by+1a9eWMWPGyLVr14zJW7ZsWbDUk8Q4Jk2aJNu3bw/mvDy6c+OknE2ZKVfSZ8mDy7GKAg9oSlbklKSTmqDMn0/lKnFPb+gzwj3We/3g8i65mjVXzh6eKreuZAZXReGEZ8309PTg0dMUFpTwYFaqVCl4FJ6KC0quKyBZuCVNNuw7ax9cb7j+ZqUAoyWyKeGczI88au6ePRVNBzPOyZS1KXLw+B37kHv1xjcvOa93W5MvyfT1h+1dWtbpwcNHsnF3lszfmm3MKuCL33Dj96l8Jjw6BgDoI1kac1xWxqS/dGnggQMHjHEPlfBt3rxZNm3aZJuuu3btMlWqPn36GJiIjo6Wv//7v5eRI0fmSRTu3LljAGD58uV2zHXDhg2TyZMn2znUsXr27GlgB8lFWlqadOvWzdpcu3atgXmcdSAx4RwGvkg3iMHEdQCFq1evSmpqqtU5duxYWbNmTV57sbGx5nWQdiHq6devn40L4MPGMbwaLlY//vhjAynUj3oMAeq6du1qfUlKSpJf//rX0qtXL+sPBvfUuXPnTuPhkACNGjXK7IgBVUiGikN3r5+SEwmD5M6ZjQEwcj1RGdd4n96kxD2/dVDuno/StTBQbl0+Flwdz09hQQmLvGHDhsGj8FQcUHLzzj0T067feybIWD39gvKp/Cc+Qtz/jfHnZHFUmty47eNNFEY5Z67JrI1pkph5y5i2cHPq05uRjIG7oIy8PjvLt6XL7bsloxJSGHXs2FEyMjKCR89PqLfEHT4t87ZkSOpp1Dw90H6Tk21Qnn1o9ocxSScUDLw8K1oY+0GDBtl/GH/somC42aWFGUf6gRSlcuXKUrduXWPe+Y2MjLRrIIAHAGDp0qXBHJEtW7YYA79o0SL5+uuvDbTACwECAAi0CV8E6ADoIH0B9KxcudIkGUg0vvjii7zrqAtwQ9vJyckmyenbt69kZ2ebFIRxhKqUARgAL7hL7969u12LpKRTp05WHnU1rkWi8/nnn8uAAQMMdLRp08YACUCI5xnpCWOYNm2aeUJiExqpEP3LzCx6x/venaty+tBEuXViZWDXPBzD6tObkxSUotZ1+sAYuXuzcPtDQHxh2CEsKOEhKEr/sDigZEfSSZm5Kd12eb2E5M1OLor8nIgMiU48HlwhnvITXqc2xWXLsh3HDciFm0uf3qzEuxMbopkbj74Wr3affvqpMUwvSldv3JEFkUclKvmiZOswwo3Vpzcr8Y4jHtmczUfl4pWXF+sK1S0AhQPTR44cMclBy5YtTZJQq1Ytk5wAMpAc4HEURp/rHAFK2rZt+0SMpPHjx8uUKVNk5syZUr9+/TxpBtIPgowiydi2bZuBEpxDAGi4pn///nL58mUZPXq0NGrUyCQ1SEVon3506NAhz0YEMINUA2ARqjYJkEDtxYEUJCAtWrSwPgM+5s2bZ+NF4hEVFWXgw7WLBAcwRhn6Bs2aNUumTp1qUh54OQAK0hbAS1F05eROOXtwlD7U+4JqWmEYVZ/eoBRQ6zp/eKxczokIrpLwhEfNhQsXBo+eprCghJ0FdBcLo6JACcEQF0SmmfGiZ658ImHXuP3QZZmn68IHWwxPd+7eV+YzRWIOX/ZA3idLSJiP6u+S7bkSsTcnuFJeHbHzSjDLF6Xs01dl6roUM+j3a9snkgPc09enScpLNnyHMQeIIMVACoC6FgAAsDB8+HADHIABJBhIIAAlSBKcgfrdu3ft/HfffWcMPtIGYvYcP37cGHmAA8w+5wAXqGENHjxYduzYYWAACQX2J4AQFywOcISEg+sAMPBZ2HrQT+qEAEPUiSQjlHgGcSsMU8eYaB/QQ98BO0hL8GqEBAiQgmoa0qFLly6Z9IUxIxECkLVr185AG/1CMoJEB7BCXnECpZ5NmStXMmYHmNGwTKpPb1y6nijXcxbL6YMTg6skPCENLMxmPSwoiYuLk3fffTd4FJ6KAiW4/UMn/vCJu/4D5JMl1gHeWKauS5Ujr8DzSlmkm7fvyaTVh2yevB2JTy6hxrc54bws3/biOrvPSjA1Tq/9RSg1+6JM35DmN6l8eiIh/EOCHp/68t1OI2mAySaFurVmPcPAY5vhiLKUCVWXQsoAkHC2G0grHKEqhbTCqTuhXcKGLqAClSoHbmDAQq+jDNcBbiDAD2Uoj3E80gwAR0EG9XhGpT/YzXAt5LyM0Q4g5fDhw/bckk+/6A/n+c8v5xkvnlYhvJPRp4LazE+nksfL7VPrAgbt4RhUn968pKDk/oWtciJxqK6QglUxWf+FbXKFBSUsegy+CqOiQAl+9ievTfUfIJ+eSNkXH8nU9WmSkFq4e8U3la7fuiuD5ye8dlCCEWr+9gNqmAED1fznC+uruy7cuWdJ1OPaORamf8VLIXWE1FfaE+/RdXFnZPaGw8GV8uqInWIYshel5GPnZNSyQ3L8Naluca/Drd3Skl52/6ijNI4zfyJsycTVqRKbfCK4Ut5cAkSgvvUybLhKknL3DpBbJ1YpKPH2JD4F0439cu/8Fsne1eUJYJ+f8GRXkKc4KCwoKQ4VBUr4AA2Ym2g+ynFhGu5l5NOblVgHKboeBs7fL3uPnA6uFE+hBCgZsiDxtYISvKWh848wK7QP5B89fV8OZt+Qw8dvWRmi+VOGc+H6S57VpYky+c8/S+J6GDb6cCj3lq6lu2HLFZRcX6wfpx/IkRN3LIUrW9qSAyVzNh4JrpRXRw0aNDCd+xelA+nnZPTyQ5Kr9yDcGEsy2VrVOTyUc9PWL+soR5nhcGv2lScz+g88S4d1XR89fe+l9C311D19Tm/b8xLufGlJgJJJa1Jl54EXByVIG9iFLYwpeplEe04i8iZR7r6BHpT49GRyoGR3t0KfP9QXN2zYEDx6msKCkhMnThQa3AQqCpQc1jdssxHbZFPCWfuges9bb3ZyHrgiE89L0xHRkphWPDHxm0avE5TQHkBkyfpY+dVv35aWHXoZY5N96ZExS60795X3P/lSqtduJF9/X01+qttM4o9ekA0xB6Re07ayekuClXX1wfgBHOo2biP/9Na/yJoozgcYUpiws7f1XXNd5PStQIIpU75VTt0M5PN7RsvkXhGJO3xGmrXtLpNmr9S+3JQ+QybIis1xVk/u1cD1rizSEPJP3nhcd7YyPnixmrVkkyxaG2PjnLl4k8xeGmFjpG3XlzOaOE8/yTup6cS1QP3U48b3KtPrBCUvi8F7XaCEe7kz+YS06dxPfqhWV6rWaiT1mrSVZZv2GABgrRzX++vWkLvHrB/WIOfIZy24dZBj6+yBrT1XhvXMWnHlj+s51iJrizLUzy9rPLR/uMpPzrwqvYeMlyo1Gsj7H1WQrn1GyNFTtyUjZF2SqIvnlL6R6A994D/nqM/Kazubdx6RUZMXyO6DpwyQ5T0nmgL9DzzvlCWful4HSHsZoAS1JGxIsAvB+BsjdDxTPS9gwAgdt76FEW1iZB5OiohqFN6w8GxVVgmHAMxDOPKgxKenUjFBCecKOx8WlPAg/elPfwoehaeiQMmB9PPSe9Y+WbwtR3YcvmwfVbwvhXsp+VS+kwuOtjPliq2HPrPiZV/Ky9cfLg/0OkEJzNmR43ekUYtO8t/++1/Lb//wjgKNeGOkkpRp+r5qbWnYvINknLsvuw6elI8++0a6KPO0YPV2ee/jL2Teiq15zBoJgABw+Kef/0r+61/9D2nUspMyZMqkXXwkscnHpVWnPjJw5FSp07itMox9Je7IWdmXel56Dhorg8fMksatuiow6i17Dp82UPLFNz9K36GT5FDuDStv4EJBECCqYYuOCpKayvQF6yT9/F1lcE5K936jrI0eA5U5OHxKJs5aIf/tr/5a3v3wc1kbnSATZ6/QtFLnOQC6hk+YqwCqrY1/R1KuzcfoKYtk+MR50ldBUONWnWXD9gPKyL16ye/rBCXYGKKT/qL0OkAJ9xBm98vvqkrrTn3lQPY1STlxx8Do9EUbJTUobZs8Z7WuwzZSq0FL2Rhz0Jj1IWNnSq9B42XAyGlSv1l7A8T9hk2SOo1ay3IFNDyfANt+wybLwFHT7NrRUxfJ0LGzrK5Z2kbG+QcWKLI366dlZ+nQY7DE6xoHiNAudeTq1LI23/rVb2XagvWyftt+GaP1HMy5rmXuy8hJ861N+r8v9ZxJ94ZoG321L9Q7ctICGTRqumxLyLR+T5qz0tLarfutDONns2DW0s3WLzYJ5i6PUhDzQGISs+1Zov5Jc1aZVIXNhNA5LOn0MkAJ9hO41SUWCJuqGJ3j/hcbC+wkZsyYYcbneKCCISJeCd6nMGTHeByAgT3HuHHj8ozjOe8I2xKYdAzLMRLnegAPbeCZDukMRuUYzxOfhD5grI4qFobvtIFqFkRbK1asMJsQrgNMEccEr13U79oO1bunfa7BQxblOMZIHYN22oCwh8GgH2N8PIqhAsazC5/GPACgdu/ebf0GsGHcjhck2sGmBFfD2LLghjgnJ8d4vCpVqjzhAcyRByU+PZWKCUqc6+uCKCwowVAKbxKFUVGgJPHoWZmoLxpeqgu3ZsuGfWcsKrUFTfLg5I1I3Gfud6p+6DbFn5UFW7NsZ3LKuqOy51DA04inJ+l1ghJUrFZG7JMPFWzMXxVtDEyLDr0sH7WXarUbG2PEzuqBrOsGEtp3G6jgYId89tX3slDBiQMlMDYwXrUatFBmrJMygBvkd398VzbFHrbrVynY+T/+4/8pnXoNlTVRew0o1G/aTtvfK//8y99Y/obt++WDT78y0BIVd0x+qFpHwcpMBbTn5a/++m+lz9CJsnhdjFSsVEPmroiyXeFOPYco43ZW1m1LlMGjZxhY+c//9a+MGQRQvPPBZzqGPpKYdklq1G9hzCZjadyqi1Sv01T7sk86dB8k31WpJVv2HJVK1evJ+x9XkFWRe6VKzQbylTK3h4/fNGY3//yVZHqdoIQNKtydvii9DlDC2oXh/+OfP5St+9KDalGPTCoA2EaCD7BG8rd8024DF19WrKL3e598WuE7+fXv/iQbdxwy6crP/vlXCsC3SYPmHaWCrn2Aa6OWXeSff/FrXTeJ0rxdd/mb//m/ZOq8tdJOn4u33/1IInal2Fr+x3/+pfQcOFa69h1hdSO5oH8840gPl27YKX/1P/5O/s3/9r9Jh56DJTnzioH67v1Hm3SH84CJGvWaK8g5Zc/ot5UDa5Rn6vOvK8nQcbNlx/4c+dVv/mhgesq8NfLOh5/J+u3J+jxvtbXLMzpMwXfvIeMUmCfa+u4xYIwsXBMjf37/Uxk/c7n17VW+e16WpITN1NatWxs4gXmHKYfhxqNUjRo1pF69evLNN98YCAA8YDcLQ49XLVz7TpgwwTxUwbzjHQuDc0d4oMPrFcw+jD168bj1xW0veYAhPFyRh748xvFIbKpVq2ZaJ7jydVIbfokDBwDB6BdgAUgAUOCRi/bxnJW/fdz1LliwwLx64fa3evXqVg+8GICJa+gPfUBiBA+Hy19ipzAPAB3cGdPfH3/80cZArBUkOvSlYsWKeUAlNzfXvHlRpzOmDyUPSnx6KhUTlFStWlXmzJkTPHqaSsymBFAyduUROXlVX3D64tkYf0ZmbjomkfvPm11B9gV0uzHoC/+i8qlsJu4n9xUmKuXUPYlKumD3fcPeM3b+lK6HCatTPCgpgF4XKMFwPE3vXaOWneXPyrgv27BbmrfvKb9VIBG5i82FB8qUN1QG7DdSs35TY+KqKaO27+gZWbZxt3xS4dsnQAkMFSDgH/7pLWnbpb8xPW+/85GphMEQrtuWJH/7P//epBy6JGzn98uKP8qMRRvlo8+/kUVanvyx05fIV9rWkvU7lYGqa6AElTEYwf4jphjY+EIZMkDQhfti16CO1W/YBANVwybMkU+++NZUd5DufP19ddvJZn3CXLJLHLEzxUARO87abdm6N13eUQaNtus2aWvABdWYLr2HyVu/+p0kHruUx1S+qvQ6QQkB3pynoBeh1wVKkHD8QUEJwJZ1yVpBxensHTHJHOC6o4JZ1g8A9XMF2L0HjZPvlOlHnQo1rEGjpyvw/sGkLOOmL1MGv5rV114BLKABYDFl3mr59MvvZO+RczJ/5VYFs1/YM7Bage7Pfv5L+c3v35Eff2ogS9bFah/u5z3fx848lFM3RAFFrp6vJ//+f/9/yR/+9IGBCUD5L3TNAa6/r1JbKtdoaEDk2x9rKmAZZSALcDVIATigGsDNej+QfV2mLVxvY1u3LdlAUvXajU2SwjiReyEt+f/+p/+fgvqfbOMAwE499MveB/nmsqTSywAlMN0uzgcESEAKgpcpwARgA3fASEwA2AAV4ovAcONOFzUlwInbjMU1cKikBOc/AAHXBtIU1LuoDyYfYOFUnfBoRXmY/p9++slimoQy9oASwBPSFvK5Fl6KPjqeCmCAe2FHSC64BukK1+PWFwABmKF+6gK0MF6IyPNIVABESH8gxkNCooObYuYDCQ6SHSQ16PkjZWEe8O5FHYCacPRSQclVTfcOaq14FnTpqE5kIZ69rmt6qGN9cChw/Ejfi+5/SSTisdzEVXJqoK8ck25rH+nrHZ0HjsNdW1jimrsHtI4UrT/x+epwifmQ9GBfgnnEkKFu8t3cMleco5ykBdoNred5UzFBCWsQCV5BFBaUIPrkgS6MigtKcm1n6qG5tEzIuCkrd56UeVsyZUXscdmbdl2Onn5gu+mcf5VMmE8vL7n7y30knsLeY9f1/p6w+7xSf+Mzbuj5gEcZPkAelBRMrwuUoEePdOSv/vrvjOFp0b6bAZS//X/+Ueo3bS8JaRflx+r1bKcWNau9yszB3KGLvmDVNmVoPs1T34LxwRAeJup//v3PpGmbbgpGusmX31aRv//ZW7Iycp9E7k6Vv/offyP9hk+WJOX4f6haVyr/VN/UYmAgew8eLweV02OH+kfNR6UGFZx+w6cYI/k3f/e/7NrxM5bJv/z2j7IuOkm2xWfI6KkLrX6ATauOfWRvyjn503ufmOoMO9sff1FRuvUdIakn7kqtBq1MpSz+6EUFPPVNWnJQJ2LstCXK2FWUVZHxUlmBWIPmHWyOWnXsLT/751+WWlBS2IegNNDrUt9CfQppWvN2PSTh2AUDHkgRpivTnpx11e57JQUWCWnnFTxvl4917cxeFmEgBPBNHagAvvdRBUnOuKqgdraCj+8VHKRJS10TX1SsrG09lNFTFthzEJt0XKbNXyd/fOdDkzwuXq/M4bJNBt7/7//6V/LBJ1+aXVSoRIJnB/UpVLZYf/+koJu+oH74zQ/VbS2ST79Z0x8r8EBKyfU8c0hPADD/n//jP8qIifPMbmTCrBXy3scVFNwckHH6nLDZsDn2sD1746YvlnkKnDjfS5+1ddGJ0nfoRHvOULEEKOWfy5JKLwOUID1AUgHjTsRogDSgAzUnGG8kHzDjSEOIsA4oIco6kgrKo4aFtIRI69TTvHnzJyQVqGMR/wPVKuriF1fAMO1IKZBOkAdYIR4KdfELMFiyZIkBH6e+BcGYAViQYjRp0sRUvAAnSDiQmAAMQu1RkJTQN6QoEDFMaAtpD2pXOKIAHNFHxkM9qKrh5vf777+3sswNKl8ADsbAtQAhpEXESwGEIKmhHK6SqZd5QHMmP71UUKJMcfKuhTJiQGsZ2KuZDOjZVCaN6iyXc6MDDDtljIFW5hqGWsHK/UtxEr1hsuzeMlMeXI6T9ctGS2zE9EB5B05uKEPOfwduHPMP835DGXEYdgDGfS3zAICj6Z6WAfBw7r6eo13r4345lxkhC2b0l5T4pQEwcmu/nD62SeZP7ydpiSuCoEBBC32kfq6jfhL9sL4rsAF4UL+VT5OMA6tl5YJhconxAnxIlKWvbvzkUYf1VZOrn0Rden7bxikytF9LOZG6IdCOlrl9bpesXDhMBvVuLgN0bvt1byJR6yZqvclyLGmlzJjQUy4f13ZD63veVExQUhSFBSUs0AoVKgSPwtOzgBL38sH7EoxrYuZN2bjvjMyOSLe0etdJszvBUxfMLQxshr4YUf/xkpTSlbgf3BfuJfcJiReSr9jDV2T17pMyh3u6Od0kIwl6n5GahHpf86CkcHodoIR2uE8DR003Bg37igsPAjuqk5VRQm1ky+6j0q3fSNtJdZ6MACXYdAAIsLdYuzXRdNfJi96XaZIVmKhLWpfedjPmRfIwaspC20H+7wqAmrfvITXrtzTwER2faeou7BIjpUGdi53jLXFHZX/6ZVMdm7pgnf6/YoCHuo+dvWt6/Ni7sHsNmEnSzk2et9oYyuq1m0hFBVl9Bk8wZpQxoOoyfcF6U//qryAHdR4Modt2HaDAq75JRjDeZ17YQQf8ME/Dx8+RarUaKyN7TTJ07eefx5JMDpTM3cSu12NCjxymqHLlyhIZGRnMfbnErjM65y9Kr9PQfc/hM9Kxx2ADH6w1wDXSN2w+4hVwAzo4R/5izefeA2KQMLDOsT1q0rqree6atSTCACp2UcN0TbTpokyJMvHzV0bZc7BXQTsApEGzDiZNAZjUqN9cajVsKdXqNDF1R3MIoW3QTro+e2uj99tmQOUaDey5AYCkn7trAJg1yIYAEhlUv+hDC30+UFe06/mu6hiRCvIcxCr4PnHtkbXTpHUX2bYvQ9u6LQNGTtVnoYapJmKDcij3qqlL1qzfwupu332g2azwLgg3jyWVXgYogWD6Ye55DmDeUelyBHOOFATwArkAbkgdsDnBngRC0gBAAYQAaBwBCjCe51lA/cvZWcCwu0BwgBTOcS1EPBD6RBsAoVBpCZIdQAe8lisHEAEQUUd+l8BcS59DgQ1xVhgT1zti3PBl2Ia4yOyAEIAH0k5sbyD6yLVOsgJRjmtdfZQFnLi5CaWXBkpgqJVBHty3hfzxdz+X5fOGSqSCi5aNK0vl7z6WnBTGkGKM89olIyV6/WS5q4DkwZW90qjut9KxdQ25f3GPLJo1UCJWj5ecI+slXZl86n1wea8c3rtUzqRHGDA4mbZJ1iweIXu2zrLzjxQcZB5crSBjmQKaaRIXPUuvXxfok/Ytbf9KyT68Vo+1n3cOyMWcKPng3d9IrWpfyiPKKKgYN6y9/K//+d8lI3mVnMjaYn3cruDAgZ6M5NWSdWiN7FLwFLNpqoKEnQFAo4Bp/84Fsmn9JBk+sLV8+uEfJFX7gdTlno4H4EBfjzN+BSLXTm6XI/uWGnjbqfNzVY/zgIQCpwvZUTZ/f/EXfyHD+rcKtHE7Wc4qkPrwvd9Ik3rf67xO0/52kD//8ZeyVdtdMW+I/Jf//J/kKIBKyz5xX54nFROUoN7I81gQhQUlPDDuwSqIngeUuGTgJPhRZ1d9jTKz7KoviMoK2J8oQ7vn6DU5mBtw18kHmQSg4SUcWpdPJZuYb+bd3QPyDul94f4ALLlfC6IyZV5kpt3HuGPXrAzqLuE+bh6UFE6v06YE5gaJCb8uD/UXJxXg13n4CU0BcPLkdSTAC/mPy+ka0mNUTtZFJ5tKC7ruGecfWh5qXRtiDpqUI2CIG9C3JzEXMJdmy6H/6Sf/XZ+pHyNdl+/6Qx47yfTb6qAuy7/3xHjIp/7UU3eVSdQ2tR7XpivDL31x43mVyYES4pSgHsJOLEzMP/zDP9iH6MMPP8x7Z/NBgIkhiJtjzELzYJIKyoPy5/3xj3+0SNAvSq8LlJC4v9w7VPvwCBd6L1kH7hz3nLUIUOXekyjj1lTef82nLPW4MqwbW1+aH/pM8Ms11i5tBddraKIM9dAHjukD17r6nZewJ56F4LoMrQNVM/qBBgLPW15/uFbrdO6B3XNCfe45cXmhdb6K9LJASUnS9evXTfJQWCTqFyVsVVwgxhcl1Lxyc3ODRy+fXiooUaZ65OC2UrfG1wGmXXIUAGyVihXek0mjO0umMuY/Vf7CJCgdW9e037MZEdK5TS3p172x3Dm/Syp++a4dL1Zw8v03H8iN0zEGBD7/+I+yc8sMSYidLz9U/FDGKIho2aSyTB7TVU4e3SjVKn0q1X/8TBbPHmRSmm8qvKtAYJ2kJ62Srz7/syyY0S8grQAAKLBZPHug/PH3b0lCzFwDR03q/2BSiORdCwxIDevXUhrUrijjhneQm2d3SN2a30jl7z+WaeO6SYVP3pbBfZrLw1tJsmzeYPn4g9/JEC3fqO538v47v5ZcBVSnddztW9WQTjqWHh3rS/XKn0uCgpcdm6fJb3/9M+nRqZ4sWTBMzmdvCUhPmMMHh2TmxJ7yo4K4Qb2bBetScKVg5lxWpHz39fuyfC4BDfXhfnRE+/9z6d6xrgGof/7Z30m6AqpXCUqwZyrMu29YUIKnhnAeF0LpRUBJaIJxzdGmeHEmZd+SmEOXZNXOkzJ7U2DHfWF0tiyNyZWN8WdlV+pVZdYCEeIBNlwLw8wvycTOWg82LOHa8unJxDwFPqCBnfIn5lPnl3zme7fOO4bqy/Q+LNqaZfdllqaVO0/ItoOXZL/eN+ohMi/XhmvLJQ9KCqfigBIYB9x7OmaZXVqYCxgS8mFG8l9TnGSMzlNMSeCZ4j/tPW7zyRSurwXlkfAghBoYal4wRa4sTBkSDRg4FyCRPpFC6wv8Dxxzjr7DSLrzroybK9y0Ak5cW6EptHxBefn/kxzT6I4dA2llXOwJdxws4xJ5eWXznQuXACVbkq/IwGmR8u3XXxgQcekv//IvzXgQvXOI3VvUMFAncQbqMFPooHfs2NGYH4gdUHTIydu+fbvlAUhQc0F91+nXo3vudlhfhIoDSpiTgN2HY6z1+6DHrG1+iztfoenxXD9570PLcJ77F5r/RLl817j/T5QJyQ/3n7UQADyP82mTMboyLoWeB3zkz+c/52xta3LgI7SMKxf6v6Ay+fPdM+eO3fy4Y9cvdxyauHehZYtKZQGUeHqSXjYoGaWgpGbVCnIhS985yjgjCfhJGXLUkUbrOZjnOZN7m/rRn/7wlkSvnyTdOtTNAyVffvYn6aDM/AVl1hvW+U5WKePepV1tadWkqtw8EyvtWlSX3ylTv1jBQOum1eQzBSu7o2ZKPQUNYxWo6IqV66dipMr3n8jcqX1MolBZ/19SkJCnwpUnLfm1AZEdm6bKlwpcknbOl+aNfjQJxILp/aVN82ryx9+9ZSpdgJbmDX80YANgQdJyOm2j1T1qUDtrd+mcQVLhsz+bVGbulD7yhYKXm2dj9Vy6gZMWjSqbetonH/1eEhVccY0BEtTAtE83zuwwMDV8QGv7DziZoqALCdNFnY9vv3rf5nLypF7SoWUNPf+RJMctlnUKSv7pH//2lYMSVB2xuSqIwoISPmRE8S2MXhYoccnUgoLMsb3w9BdJCWpdeO4yhlgBChKV6RvSZKEyx6t2nZQt+8/brn1c2nUFNbfNuJpr+YgDdszWAXUwzcsDLZYCbZY3ABMAGi4Fxpo3r5qYD+aFxDHzlazzhsSKecQwHXU6JCDM89zIDJt35n/93tN2P7gvofcpMK/h+5M/eVBSOBUFSpjn5Mxrsn5bsqlpMP8wa7gDRR1lxeY95uYUJiJQPrBrC6Pg6rN1YXmBxDE7pRiQE5TQztt1AebQXbc35ay557X7ne9617/8bQXae1wuNLldWleOdOTEbVMhoT+0Qx6qW/szrgTLPDke0oGsa6bm4kAKCYaWOaAcBsNL1u2UjTsCrl6N2dLzXBsY4+M+hPY1cPx0GZdQ48LWxpWjn3FHAg4d0s89MGNjjjGOdn129QDKsA1AMkN/XHsFJd5nG+PPy+QVCbIzdofpq//sZz+Tf/Nv/o0BE3afHHAAWOD9h91Sp4LCRhOqGOQ5HfH79++b/SAuGlFhgZCsoJ9OHqphL5OKA0oAqqgyMa+2PnRuHt+/Q4/vn5YNf/9C1of+csxcY4fkJCGBtRu4jmOel53JxyUx/ZK2R15gDVi9ej5Qt6v38drgXGie5eeVfzLx3LI+UCOjHGub/vDMoY7l3tf560vQdQ1It7pD6kOqgUc8bLB47rGXAsy5cm6MoUA9tO7Hx0+vPZ49nifcgAeewfu2VhOOXcy7nvP7jp4PWw/rPl7Pccz9y19//lSaQQmSC9SsAO0YtYcSqmDYaCBR5HnDhoVnqriEmhTXA/65/nmJNlFbe5VR4F82KBkxsLXUq/GNPLyMzcxpyTq4Vj7/5I/GsGNfAvMMWJg/Y4BMGdddMg+uMRDSt1sjAyUVPv2TtFUwQF1IMwAgqC1FrZ1geW2bA0r+SVYuGCozlTmfN6O/pO1foaDka6vfgMftJFk0c4BU/PI9Y/JnTeypk3sw0EfXVwUXSD2+/PxP8vUX70j3jvXk3pU4adqgkrz7p1/J0tmDZM60fjJTARTSnIa1K2ofG+s8JRqAAtCcObbJQEm39nV1rOmycGZ/+eyjPygoWaegpp8Cpj/I9dMxei7NAE7rplUNlHz+6dsBUOLsTJDeaL9n6Xj++3/7v03q00rH+c7bv5S3f/+WnEjdKNdObZdvvnxX6lT/SuZO62tqbqixAViWzx8i//C//scrByVFUVhQgp4hhlKF0csGJeESL0QABTvwMNC8LNm5xyYl5vAlY5KX7TguS7bl2O79nIgMS6iBsYuPkTUqRtHJF03Ksl+v43psV3BPjFE2HwPagbmDYefj75Iz3naJMmbr4pK+bHnhPk5aX74xFJUeg4jH9VCva4P2DACEpHD9fAwOlKnQOhkf42S8+7Nu2fijD1w0L2jMzSpNuOh1c8b8MY/MJ/O6/dAlswnheuaddg3IaFu0E24sxUkelBROhYESjtlpRZccQ1vck6affyBT56+T6nWbSosO3SzeQOdewyQ2Ocd2ZtlBPZR7Uw7m3MgDATAK1AdTDVNMnTAcxOeYs3yLHXOfsQE5qAwG/2mbuAeBgIW6DjWPeknuPPUj4QA00Q7t0w4MCxIREqADJjF0XC5RD4a2v/nDO+amlPpgvgaPmWG6+5Qh78jx29Z3xgYjNnrqYtPrP6hMmmNYsfk4kHVF+gyZaF6JWnXqZnEkqAfjZuphp5d66DPHjIF+Uz/gDAaYPJgzngHac32lHeKkENDxcO5tu75Ln+FSoWJl2Z6QbcHsxkxbbDYJgBKeH1cPO9vR8Rk239viM+XQ8ZvWrut7uMRzvnbPaZm3OTW4UgLMyNq1a80t6C9+8YsSsyl5WVQYKGH8qfq+wo4Du4qYxHRdL1csDkfo/Rs+YY7e14LvH3PIMUDV1qSuH0BN7UatJGZ/jq0X7kGSglzWI9dhQ8WzFLX3mN1j+sL1gBXWJMfks77sedB7QTvUT+LZYk0TPZ3nKf/YKMM12D7hvW3Bqmhzi816wP00jiKc5BOGnmcqR48BOHiNGzV5of4P1EN91BWTmGV2JThr4LknGCTPbtqZQDR4yvH8co1bxySADH1lXvhl/ngf0DbXMFbmB29j2FIhYUzKuGr3BMcXPL+MHSN7vNMxf4yZtugXbeMkAI97zAtz6+bQzUf+VFpBCZ62MChnVxfPWtht4ZVr8uTJebFPfv3rX5sNCFJJVCj37dtnAIbyuNN1uvOofmF8j8teF6OB5xU1FiSR8Fy4DcZTFobq7jpsuZBcEmOFfrBpgOom/ULKiSE9BHhy7oJfBb1sm5KxwzrIv/zi76VLuzrSt08LqfvT1zJmSDu5dTFOTigTXUePYeLbt6xhUoArx7dJh5Y/SZ+uDpS8rcx7FVNZOqXl/+UX/2DqWqYO9uCQ7FdmvqoCAdSb2jSrpgz5UDmTvlnr/UomjOwUACVB240//fEX8vvf/HPAFoX80P5qX08qs//rX/2D/Mf/+P+W3VsUqD48IgfjFkvrZlWkd5eGpo61RMEU/UIS06tzQxtnXwUl7/35XzR/p0l6AD6Aqvq1Ksr7mp+joOS8gogenepLKwUiqKrR10OJy2X7piny8Qe/l/iYuY9BifaNPqKi1qJxZbl8KkbOn94hB/csko/f/53N3+Xcraa+NW9KX71reN9KCxje67XL5w2Wv/9/Xj0oQWJf2LcqLCgpDr0KUJI/Pd5NehJE8MuLlB1/JCbs5sOAw1zDgBOwjx1/GG/StPVH7Xf+lkxZtC1blisjjnRgzZ6Tds3mhLOyJem8xBy6bAH/YOjj0q5JfPoNZfBvyoEcZVqO60dIGXaMvA3g2M5rEODoCzgUQORP7pxTkeI6xkc91Ee91E87tEe7tE8/6E+Mjo/+0c/1e8/Imt2nrP8rdByLo3NsXKHjJM3R8TMPzMe6uNM2P8wT9TJvxBKhb24+6Z8DOa5/LyN5UFI4FQeUYGwOcw0js3jtDjNuhcm9rO8BGN7xM5ZaYEAMZcfPXCbfVa5pMQpgimDYcKXbUBniKjUbGRPNDvTidbHmZhfmZqsyZxj+wgziFpV4HzBwMBsEi8PYFmacOvCo1XvoRGVs7svmnYfN5S+GxBYk7uh5k6xgOF6rYSu9dqMy8tutLZ7f/OODySTmAm57q9RoaG0RGZvYEUPGzdbx3Le26zVpZ0wSDCvSIiLLv/Uvv5NF63YEGCCerwsPLdBi/WbtjJFSXtQYsn7DJxmwOnLiqhm9Mz6MiJdt3GM72bheZQ6mzFupwO6Elhll84ABM66RAViurxjHwxjiQpideEAJ10+eu8YYNbwaTV+4QRLSLll8CoI74qYY5ped+co/NbDrv69ax+JR0L5jDvMnnsvCvG9hiBvqErU0UlGghMCdODNYtmm3RUbvY/evvYK6wP2DySUY4MoIvX+60JlTd/+QGLB7j8c1gA1G48x1nK4/1vv/+sefWzBE1hf3EuPubyvVMA9XrAsCZBJrZNLsVeYtrnajNra2Zy+L1HtyT+Yqw1+vKeuuvoyYNF8Byw1bixjH44ELg3G8eWHYztoOlZjYN0tvzeS5qyz2Ces3et8xexbbdu1vwUezLt61Z5Zn54dqdSyI4uadKfLHdz+ymCjbFYQENp4eKWi5YU4gBui4AL+X9Lnnme01aJxFbwd8sQ5x2tCweUdba9hqYUDPesM7HcfNdJ54zngOkNgEnskA8Me9N4bvgDPeDzzvXLs6KsHWKfeJsW7acdjmq1rtJhaPZX/6JfPi912V2jYvGNUzrqOn79pmW+g9d6m0gpLVq1eb5ywIT12ADgAI8UcAEwAPPFsBKIj1gZtdVFPwqoV3LWJ/dOzY0SQhDRros67X4e0KIIHBOgAFWy08YSExwQUwwAewwbXYiGGwTmwR50EMSSd1URZgQuwVnn0IkET/XgW9NFBCUob9kjLPCTHzzAA7as0ESdq5IOBBCoNtZaBRwdq2YYrs3TZH7l/aI3Iz0cAH0ggM1rMPrbVjJ9Xg/3lUwYIG5zDyF7OjrP4DuxdZHtdhSI5KFupQF45Hy7K5gw0sTB/fXdvW9oP15e8v9igYyWNMb4bw9w5oe5HmEWzf9jnarl6n5fCERR+57myGvksOrLZ2AQZZ2ufYzdNM6nMqbaOBGPrJ+T1Rs2y81xVkAJZQy8rScrcAWa5P+nvrrH5LFVRYOQAU86VzQ7u5OjbmCuN9bHTyj+HqiW0mLbp7YffjOl8kFROU4DCCtVsQhQUliPyd3nFB9DpASWHJXvxBsOKY/rCMvzLfqB/hptZJDyITz5uK2KpdJ8x+BXUl1MMWK2BxKmMkgA3epZDEcIxdhaVNxywWx8yNx2TGEyktmI4ZIKBMaB7JXccv9bg6MRxfqO3QHu26PiyKDvQL9Sr6Rn+RetB/xsF4GBdA5oCOk/EG5kc//DpHoYDJJQc+QuezpJIHJYVTcUAJMT3wpJNy8o6Ck9nSrtuAPNUNEjEYzt0JRFPHmxCMGDvyBD+cszzS3OASXwFmDGYYxpv/zdp2M489qBxNmbtatuxJNeaIOmC8CbqGhy4YNIDO9gRdi1oehgQ3o1WV6ekzdIIy74elZoMW0rn3cIsY/cU3laycc27BBkLouFyC0UctDaYSlRT6uUkZIqJbj56yMNCGMm0EhtsYe8AA1YRZK2TSnNW248zOL7u4toOeec3GM2HWcosBgfoN52DiYHiJko1nInbdAQ416jWz+BF4JyLGRIaCLJgwmLro+KMGsgA/SFBgDFGPYRyjpizQ/i223W52tNmV7z5gjDG4gJSt+zLMUxOSnG1aD23Wa9reAM43lX6ytg8fv2bnuZ45CvcsFgVKygIVB5QgGYCpRSrB/YOh5Z6F3j/WN25vm7bpakwzYKAm3rTW7ZRvflCGcMlmiUs5q/PcVmbo/G7XtY9ba1SnkMTNWLTB7gtrFcZ5X8o5wfXuHAUgvYeMV4a+g4LK2xbNnR3/1Vvi5fOvfzAXuks37LJ1B8AGsODhDdUm+h9Y10+vbe4noITNAoAqsXhaKVPP8wOwAlBRN66v8do1Zd5ac0e8NjpJz4+UcdOX2vXUgzQiel+6AdwIfR54H7AhBpDADTBSOdYS4C3j/B3povUDfKbOX2tgH9CSqKACN8MEW9ykzxFghfeAkzbRBgCPvvE+GMv6Xr3N+s28z18ZLQP1/cPzyObAqMnz9V1xxIJOUifR8tkE4Z0B0AAc8jzwXIZb26UVlAAsiKIOAVBwyQshkSA2iAvWiGokUdCRhBw9etSCDl67RiSYx/FM2BkGhABMABiAF4ANKpJIVAAhABTaBMjgnhcejNgoOB6CevbsabFEsPcCfJAPUEEtE4LRAzy9iOpMcemlghISbntxkftQ328kZcSNsXfnYbbJx22vi6thTHiwfXb/nQQBBhvXvhyHMPBWPrRu8ihjjPx+Axqocq1eNNzcDOd5t8qfgiDkqT66+umjy6d+8vlPX+mnK89/xuz6Tn8ALNiLkI9bYPpGWcZMOTd2Ny7aId+Vc+dcu/ynr+FivgD68o/hRVIxQQlr3j0f4SgsKCGwyTvvvBM8Ck+lDZQUNz1mzvXlqwy5k17w0UdNjA8mv+TBrHMNjL2TYABoYPaRLqAWhSoZ8VcAOfsUCGCbQUJigxRiTzBxzh3zy3lXlnOACOqhPurFPoZ2aC9PImMfvUD/6V9of52Eg8S4SqtL5WcBJYiu2Y3KDfEiwgeAFzPi8MIIETo+6UnozYcSHw5E8JxzBr4Qom8+DHg3CkfoDtMuO1dc63a6CiOuwXVjqCvHwuhZQAl5E2Yul9oNW9l/mG88WGGTAQOMWlfLDr2NWUKC0rn3MGMaYHRghgEyMO3ssAJKAAPsosYm5xpDzu5oVQUyMEsx+3PNlS/XoybC7ioMEIHc2ioTtDoq3gK12c5xhx62w03dW+LSbCc1WplAVGCQBOSXBhgjxNrV8+uVEcOVKnr285XRb9G+h/WFulZHJthOMypqLTv0tPghC1dHK+O6yqJyoz8P44qkJPXUHQMDPQeNDQARTYyXfhBHgujaBGI8f0/fd8rAEscE98fN2/W0MswZLlw/0fZadexuu+swlE41jT6jFoP9Q2cFH7gWRtpyRIEi/5FkEc8C5rp6nSbGvLZo392AFpKfDTsOGrPGLhbUtXMAAP/0SURBVDbul7v1H2VgxtkzhM4PqSBQwi4pgc9CCRUP9Mud7cizrL9QQuedetiddSonL0LFBSUw6Gln7tr96zV4XJj7l2vqfTwHT96/1baGYfaRVAEKWeccoyqXeOyySemQeDRvH4ibAwOP/Qogfe6KKJOm4I6X9gDmfYZM0Pwt8ru33zNgw1qkLgA//WzbdYBJPAANrAcnSQsdl9nB6K0AXHTSZ5Bj+s74cImNxIVzH3z6pYFW2iAhKeFZnTJ3jWTqnLHmqIdNA4I6IuUhThAgjXW/eecRid6bYa6LGSeffcB9Uz1GAoQUCVsq7E/e++gLqVqzkT1HjGvSnJVWv7PDAaAQ26TvsIn6fhgr8akXDEizdnGljSQF0PHhp1+bWh3PKRLGWUs2mYSTd4eNW/vF+wlvemUNlCDhADjwDgeUEAMEIlo8roFx54stF650AR5EkucaflHBIu4Itl+UIxgi1xBZnu8GMUAAHXi5QzULSQmBEPm2AFwAHqhkEd8E4AFwIaYJKl6o1tMezzfl+J5BfJNQ7XoV9NJByctIMOF5AECZcGPilfF2qTDm2wEG1JuINVIQIHnW5ABCuPrIo03XZ5KBiCDIAIDQb85T1v2nHICC/w6clIZUTFCC7WNh36OwoAQvLuPHjw8ehaeyCkqeJcHQB1JgBxomH6CSP5ndh6WAZOaJBEAIgoTH/8OlQB3h6g+Ai9AUvr9lIT0LKMFwEHek7EABRiCcMPz+97+3HSrUVUJ9yfOfYFi8/HnRs3vFjhYibqLW8nFhN4kdL/LZ8erevbuJyzEOxliQD09B7rDxYESgKyL1cu2cOXNMl5g63UMI88YuGIwgzCGA6Ntvv7WPGkQ7ABl22cJ5uCsuKOmvoASGJ14BSPN23Q1wrNqyy3YzYdZhDGL2ZxlDgE3G8AlzLRAgTDS7w0gYqIvYBqhdYEcBUzF84lxT8/r6+6oWdA29cdRJIncftXYJXjhd22inzBj64pSByUN9hN1WJCmrt+wz1ZJF62KMcQFEEGiOHViiqhPozY2NX+pB5QTbinXaP2I5oA6FPjsSkv/6V39twCnuyGnrKxKFVVvipZcCi8g9KQpKVpo0B2YLJojAb+jMUxfAAoCwdusuGTFxvjFgm2IPKbMWKzXqNpMZizfYbjjxWZBy1FQGi1gp2Zce2nVISNZGJ5jKzrgZS5XZfXxfAFLs1MOAMQeowNAu0qXaOmaYTRjpIQp+egwYbTvfzB/xVVDh+vDTrwwYzVoaYSo9c5ZHGCMXzi6tIFDC2mNXlfXmYg6wflElQf/90KFD8sMPP9izhLctdqiIV8D641mBWKeUY92Grkl2bfEpD/PkvKXAAFEu1AjeSdZhmBzxrLCZQDvueTqoN6d4oCTKwDVr1exIxs8N3r95BnY37zwki/X+IbmasXij3T8YcXf/UCs6rGsJVcLJCixYW8S7gUFvoXk8H5F7jpjtFZHM4w6fMTA6Q58ZmHDao31stzr2HGxrF7CDdAQggNogYBtJCYAbCR0gFvCDalPe2tZ3Nw4aAFFHz9w36Rx94h6jzoSK1d/8z7+3fm3akWzR2JHW8OyiZrgv5YzZJHXqOUSSsP3Q+qibdUeUep6r6Qs36jrbZdJOAFbc4VP2nCLhW7xum85RcxkwcprMXhppKl9mL5Vzw55fnnXUzvoNm2QgxkkySTjPiNIxVqpez4Ah7R7ROUW61EzHTCwWpIwdug+WkTpP2JsBoLhnrP/3P65gY0GqybOBdCf/ZoRLpRWUsDkFKCH2BxtWTiLBOx7AznlsSHg2eK7YsOLZqFSpkj17PJsu5gc8FcfEC0HCwWYC1/Pc8T0hNgp1IOkguQ0FyrIxhxqZ212mH3z7+CYS/4TnmueMYI/umS5pKlWgBMb8ery5xcWe41jSKosJUru6gvz6P+SlZXMHBZh5JBlcA5P/SP/rLzFBknYtUEAQlDAYONEEoKANQAuR211AQyQZ/HcR0q0PmizoYdB24+5BU0ubNr5bIN4I7bk+K+DAw9bYoe1NMmNt6nlUyTCexxalSYNK0qTeDzJhRCe5c2GX9W/RrAHmYQxblBED2wRUvl4WgHrRVExQAo+FZLAgKlM2JT6V/fQsoITdIHaIEIezGwxDT9RaROJE0kXKQfRbdpuQqrADBQhgdyoUXPDC5oMB00ZsBzwLOcL/fMeOHU1Mz45W27Zt8z4k+QmGDRE6O1qO+KgAcvjoYJzIbha7ZLTPRwIx+9tvv206x9TLLhuACV1h+pI/KF1xQMmAEVMNhMAQw/RifMsOJuosMGeomMCcUxbVLRghdmA3KjNOPju87KoCkFGXWrphpzE8s5duNiZ5e2K2MTYBRmyTAZ3dh05bkMTVWxKM6UMdix1iVGJm6XV4CMJIF3sX+sD1GBOzC406DVHTaQ9VlZWRe/V/YGz8oipCn2gDKc/0RRvMABcmhjGPn7ncxsR42CWGAaMN7GWQiCD5QO0G1ReYWzdvlIch7dBjkM0NOvLstLMLTF9QQ0MCwo46IAgD42kL1wtexrIuIm25Z1G2aQvAtSMpx+Yp9H7QHn2DAeMYxm7H/lyLNL8/AxuRQD1ItOhD134jFZidMiPnaQvWGehjnpdvUsYfQFLAhkNBoARgDOhgfaHL7tRAPv30U1vXgIp3333XdlHJR5+XZ4Z1znPCuqUMzxTrFoAD8wMTxjU8d6xZ1jwSSspRhl1gjH1hioj6TIRsdnABPzwn7OCycQBox5NjyuGDckQRW1GgBCZ/4pyV5qwDmynU/1DNc/cPNUSAH/cPiV3e/Tt63qRS3D/AIWuT3XxUjDBAx0Ce+Y5SkAywBWyy5qgD4OAM3QG7PBPcf+wuYNZRHaMfBDEEvPJMpOi626qMNnUASGgDtaVtCkzy1vaFh/YsodqHJBLbDPqENIw1SD/pF2sSAL5uW5KthSY6VoAKtiyABgKCUm96sF7WGVJFniXWJnPDJgDPG+8D1jGbEPQVYMX64zngOUXlk80BnksM2bl+5KQFZszOPXD3gz4yh6iSsfHAfDMnKyLiTBpCnW4MSE6QxrBZgN0P4AwwiC0aqmPMXWFru7SCEghgzXehuMT3BFDhAERRtGnTJpOOOBWt5yEYQLRbQjUKSppKFShRphw7jK7t6xjTfk/BweQxXaRti+rGtN+/ts9sK+5pmbTE5YHI7wpO8HAVvXGKJO6YL59++HsDNJdObZeTaRvNvS5uf7G5AIRgzwHomTmxl9mkYKiON7DeXRuZZyzav3Nul9mkYHyPi+OTxzbLhZwt0rzxj3J43xJtM6hChfqXApCYzdOCHsQaS8YBncuH+k3W36o/fKp9mif3dVz3LsdZP4gpsnHFGHODfPfibjmwZ5H01XYsGrtT6XrdqZighO8P674gCgtK2EmD6SuMyjMogXHjpe8SYudw5UIT4vvQl3r+ZC4atUy4c29SehZQQqRqvJHw0gY0ICYHePDSh2Fix4rzgA2i17ITBfGChzlDqkHCewkfCXajYJ7yiw5Z6yNHjrQXe7t27QoEJYgdkazQviOYNwCGc6FKn9kNI04EYncYNKL0spvGzhZGjjB3AK7q1avbmEKpKFACYxCw6aht+vIwDzDvp3RIZ+8EErucztAWxsHlw8yRB7PHuna66DAy5MMYobYSWh9qX+wa80xQFkYfBsNdQz7XsfZZ36iQcR31WJ4md971h8R/lzhHn7me+miPsQacRzy0umxMekzfUFmhDdRWOO/y3PhCE33FWJ7y/HIcOPfQxubyDQBpP9xYre3gMWWonzL56ycxF4yR/1xHOexWGBfH/NJXVw/1uzyXH5jPJ+93aCoIlGDc6nTdkfQB4gELSAs5hlifPCsAaMAyQALiuUCthDpQZ2TdUgbJCWCaPAgQgqQP6SBqJ5QDgLMZwLUAFIgNAepnZxlA5MA77W/euE4OKTc8ZsXhsKAkcL/vS79hk832CdAMoCvw/mn5/PfP5tTWWqCMrXMtT92sZ8q7+rgPnCeP61xZ1jfr84lnQ6+364Lrjmts3Wke/13/KfvEt0Lr4F5TJ+etvmB5t07oF7/WnpajfpKtdy3Hr62Z0Ho1UR/nXHnqceuW8fDMkO+eQ9oIrNEgYNKy7hl3azW0ftcG6zP0eWUs1MM52qJfofWQ79Y/bT9xzwpIpRmUeApPpRGU4HI3cs0Ek3YQ06Taj5/JygX67lKGfv3SUXI8bZNcOLldZkzoYcELF87ob9HXMYpv2vAHGT2knaQmLJMOrWtoPePt2nYtq0tq0kr7/4kCl91bZsqhuMUWk2T0kLayQOvAgxfAZs/2OXo8QOIVUPTr0cRirODhq1PbWlZvHijR/t46u8PsV4jLErV2osyb1s/Uto6nrjfXvngjW718jHkJA1zt3jpLtqybaGO8r0AFQ/aRA9uUSVBSFIUFJews/+lPfwoehafyDErYeWZnCX15RPeI5PkA8MLlPL8uuWswgMXLD64bQ8s45hARP7tlfBRCrwst+0R+uLyQsqF5ZSk9KyiBCUK3FsYeKQUqWUhIABGIv1HnwhiQnWJUSwAcMFChDwWgBt1czrNDzPqGABHoy8PIwWghimdnl3rDEQCD3eVQd3aI6/GGAtOHAWNHZcbYvWZHmv4iCWF3GaAP08busQNB7CDDBIZSYaDEJRgBmIpw5153os8wLQYQlGkhD4YHxuXc3cfJMfEwdg7guGTllaFxZVw9HDum3jGY7hrXLnmO4YMhoi2YI/fc0A/qLmhuS2sqCJQAvlEVgZAG4t3HgXX0ywHoSBodKEGC4VRDeKaQknCMeiNABmkJIB8pn7O3Qr2R86hpAVZY37h1JLYCUhTUKyEkk4AS2uUani0IULNta6SCkgsFghKXWA/hGOTXnmDAdd3BpDsQQT79PRtcZySYc8fE880IZejdumQNu3zy3Lqkbp7tALB6PAeuXQe2HBihPQdyKMN6d8dlKZU2UMK6ZvMIqZ97VlBP5Dvh1IUB3JRBrYp3uyO+Pzw3qC/yPXHfmvyEhJKNKb5tbB6ggpWfaJt2QlWy2NxCW4BvEd8zpJRI3Ek8+6h1UfezSHeeh0orKNm8apzgtpcghF99/o4FXhwzvINMHNlZUuIVGDw8YpKGlo2rGGgI2J0kyohBrSVq3QTZGTnd3P12bVdHenSsZ9HYd2yealIK6ud6JCm46iVqOu0O69dKtm+YImdzoizafE8tR7DCfj0am/F853a1nwQldw+YtOaTD35n8VOIZF+7+ldyLiPCPHj9+O1H0lmBzOjhHQ0oJSjgwa0xQAm1LUAJHrVGDGhdJkEJEvvQZyY/hQUlLPhQA+BwVB5BCR8CdutQF3j/ky+lTuNWUrtBK6nXrJ2sMpUT/SDpR4gPCmVtZ00/EFyDEezEOavsmN0kypL4z4cIY0mMa4+dCVzHTjW73PznPB+cgFpCIHHetcGxE/nzn/L8L2uMFelZQAkMEwwNIAFmH/sSXtCAAtSk2KllVxedXFSiIGI3wFBxjDQF5gzpCAaIPCh8aAAG1ItB4q9+9StTe2F3F6bus88+s2uxqcL4EODCzjKJDw1t1alTx84DdGD4YNggdp45T79h2jjH9S1btjTdZD5stWrVst1lJD+u3VAqDigh2blSdv/pE2odqDNhY8KzQh4xDKbNX2dqKDwDJFRPWMsYeqMW5q5HPQo1sJlLNlkZnoGALv0jMy7GfiQ+9bws3bjLPAlx3uZCmTvKowoDY4YKFipktIV3JsqwMTBh1grzvsQGQqgqVmlPBYESpBcAXAgmCakFjAnrD4CN1I/1x1oGwLPmASO4FAVgI6kDZPCsUIbnAuABqHCMEvWzXmGGeJ6QrlAHRvBITADgXAfgxw6FDw4ieucEAqlhVOTGYoES7pPdzzDnXmci7g1qhqh54eoaiSXrB7fQ2Bth88RawzAe9SXWNp7jsKmydaZjQq2LNcsaJh+VKPJYl9MXrLe6caGNyhhqUO55QJURWxbaB4yjBuaeJdS7yEP1ERsoPIWV1jksKJUmUIK9Bmud9z3fAaTnfGNY7zD+PGMQ65vnAaN0vgVsDCAt55tEGepBEs7zxveLZwI7RjbM2CgAsPNNY6OADTHADHZhlGFzC/DDd4JvnmsT4htCXCKePb6DqG4CTqifDTwS3xzGQH0lRaUalNxJtlgmvbs21J5iB4I9XLp5mnp4PUEiVo+X2ZN7W5n9uB6+ptcqgFi7ZITF+MAWZc/WWZKo5wg4mHV4raxfPkoG92mudSfZMaAhR3+vn4yRgb2aydZ1k6SPtje0bwtJTV5loKZbhzoKSjZI25Y/yZF9S4PG6/vl6qnt0rje99aHowfWSHrKBhnct7lMHt3F1MXq1vjKAE+g38cCNjAKtDauGG1AqayDEtxe880piLxNSUiCwYFZad2xj+nknr8b2NVasmGnVK3V0KJm8+LEIBEXoviBRwcZLym///MHUqFiFdm675jpoeMqEQ8p6LpTJzEefqhW14wRccG4eN0OST9/xxi4Ri06motHvLGgM4/LRrwb1azf3HSM0cnNvHDfgA2Gy7SN28xjZ5VxLUOMFelZQAlqKOz6sMBRk3JehthBwlCQDwCMFoxYfjUo5/EEla783onY0WWHixc35wAG7I4BeAAvfGy4lp0s2qIPJD5OvOiR1ri6+SA44uODahb18tHgGlS2+EDxMeE/u9BcR7/Z9QLohFJxQUlpTIBlXH9+X6W2efpJOXnbgHbEziPy3kcVzA5m/MylFuwQI9+VCvQnz1tjeu0AewfCibny3scV7BmC6WOXGN31b76vLn9+/1PZHHvEniMMjmkXEMIziFHuis179Rk8asa1GOhOmLXImLeufUbos3XWnmuMygFDAP/8YyitqSBQAgPidMlhZHgueF5Yf26XlTXKji0bTUhKUD9kDbpdYDahYJbI4zljHTvDdozXHTOGvjzrm3LuPMRuL3lOXYznhDynV0/ZS9pGYYbupTmxLtPO3jcPVnhjwztX9qXAJhFufv/8wacydPxsXWtLzRUvnrNwuoANCjZWtoGkdQAecBLxq9+8bTYtxP5BzQkj8V/95o/mRhu1Nb4FqGhyHWsUd7643Q7YZ20wA/chY2boc7TQghiOnDRXn4/T5iQAN74YszupSllIpQWUYLMIOHfMPO9xJJE8S4AF1H+RDCIB4ZhvB4Af6SLSQja7AOJIVCiLjRUbYnyLkCCyYVWxYkXbEADsAPzZAKA8ZQA4OGXhPM8qz1SFChWsrCPa5nnkOeeZxPsXkkny2ahDvRmiPjQE+EaWBJVGUIIUwexFHh42w/WvK7xrzH+TBgFD9zlT+8i2DZMVDPSSW+d3W+yOqWO7WYyT+dP7mtpWzpG1smH5aGmnQKJx3e9l3PAOFr9kR8Q0mTauu9miICkZOaiNSUFuntlh+Qk7AjFWalX70oI8IuFAPQt1LKLVE5/EjOzvHpB90bMNQGEE7wzmsVPBwJ04Jz07NwjYslCe8WFAr4AmVvswXvvzUPMwiB81qG2gjjIGSgDdhUnywoISmCgesMKoPIMSvLngschJJojYTKApjA/xLgLowOAS/ecW7XuZoSQGfUPHzZGEYxfMABdPMJTHQwyMGp5b/vz+J8qgpcjyzXvM7SmGjfNWRGm5WDMexnUou2hTF6yTJq26yPbETAusBRgCGMGUrdmaaIbD+JknkFVZYqxIzwJKiiKYJxgsVKjKC5VVUEJfkZJgPLtG1yUGtnNXbDVAgTcrAAMMF5JDmCZc42IMi9SitTJToaAElUmet2ZtuhsDyDXsFGOw36ZTX5PCsFtMzJKYxBxT24IZJK4ELnvbdxtkLpOJmo2KC3Vj5Lw35bR5/8JRgBnflqFnpyBQ8iyECldh7+z8BLgAmPMRAZC8KBXmErg0J8A2LrF537OG8VbF+xo1K+Ko4OEN6R5ScvIBFRjJA4bxGOZACWqKeKZiHeMdCwNyXBePnbbYjNKRtiRlXJYxekz0dNYt36Mmrbrqd2KrGc3XadTGnoWLD8TcISN5YW2nnr4jqyLjzXD+UPYND0qegwDwSETYTILYQELCjfQBKTqAHckkEnEAARsC2CDCYLHhhPQEkMEmGdeiUoz0Eek8EnhAAlJHgAPXA0qQkiCRAcSzMYDKL+rIgH82yzh2mwdQKCgBuPzud78ziShSTwCTU/Vy7bPhUBJU6kCJ/iJFIBJ85uG1JpG4fX6nMe2XFHyQbpzeIXcu7NaywVggysw/vLLXJA/Uc+vsTgM3SFqI7H7lxLZAOQUH5Nu5YJth/99KsiCHl4/rdRwrmMh/HclioPA/1EWxjoF8gjHmLx+aHuk118/EysDezaRdi+py/VRMmQMlRVFYUALa//rrr4NH4am8gxJcpTq99vi0i+ZSEvWRDTEHzONLg2ZtLYgWu2LseLFDRbyElJM3TYTPbhaA5EstgzcX3Fyyk8WuLsxbncatzS/+xNnL7SNGoK93P/zcVE1g2vBkgotWJCa79GUNA/fzX/5W6moegIYI2bgYRQWgrInqXxYoKY9UVkEJwIHAdAQfRBrBWifi+7Gz9y0aNS5CeV5+UuBN3BNAPy5G8exFdOhQUILHJEA+cVG69hthsRdMDUsBDPmAHDz5EPBu0ZoYid6XaSAnYleqJGddl7qN2xp4p0/Ui54+DBzPMwEhkbDs2J/zxoGS101lEZTwDLImUftDAjhl/gqpUrORDBk7Oyj52CD/8rs/WVR5NpUA30ixARt4iSNSfCgowZtV9wGjzVsW65sNK8DIRK2/m35D8GKHp61G+o2JTT5um1bEGiKqPeqJuDPGUxxrF3sU6jynaztH+wJwGTpultkuelDy7ISkBPVEt4vLMYw9IAAnJxCSExxLAEhg+HGkgqQC4AA4QKUKZyioZyFBQTKJlJw6uBa1FZyysJHmPDlSHsk54IUNANRbAEKAEuwOnQQScupbSDBpC9ff4YhrAD9vhKSEdJ2I6REW8f1ybrQx+QHgEZLIQ+pAyrsueEyCudd68v5zjSvryrjrQgGFO8e1eW2FlM8fH4X8p/I0uf7Zb8i5vDJ6TvtFBPb9sQskW8FXAMDkq+t1pWKCErRMnGpvOAoLSljIPHSFUXkGJUgpWnbsJdsTjsnWuGPmm50gV3tTzpiKFcxWbFKWBWzDbz76v0TVhtlZqEwS0X+RYvCR+LZyTdP7nTxvtfzmD+8Y40acggZ63dzlkSbxAIigf0w0YnzZoxKGZCU2KeC+EneixH4ApKzSX1S+iKiLi1JASbixlNbkQUnhVBZBCc/N0dN3pHXnvhZZu8+QccZooXJCdHSkGTBruCd2diYABpi1qQvWmrpkflBC7BUkIkhAcHnKs7Zxx0EDMKhvofaCxBB1RlRYeg8ep/XhVva2dOwxxFz4YuDOjjLtwfQRFJI62TTwoOTVU1kEJUhJcOGMVI4NqD5Dxuo7eZjFT0FFiwClJinJvG5SdcCAc9zAmn0alKyxKOvE7QBUN23T3eICIf0gHglSd+xICFhI7BQkKLibZr3zvmczC+nipYe6tjXtPnjSvg8Hc67bt8eDkhcjbDxwROIkDjgnIc8xWaj+OskIfBLAATVj/qNCjGMTbEtQXQQ4IPFAysh/gIazF+E85SiPXRYACOkG9ikwbdidkLBPDFVNxl4MdS7q5FpACnaUoQRAwrYLoFNSVOpACYlYH6ER38trApzcP2iqYGHPv670DDYlSCALorCghAcEUWVhVB5BiWMCia6LW0oYnloNWhkTg7EuO2MwVujAY+sxac5qC6iWcuKu+avHQJ7zRAXmWoK1ETyKnd2I3SkWWA7JB8HWMHTMPP/APlK1GrQww0V2zgi4xscO3/t8gAaOnGaqAVn6BSIOQ4MWHa1uRPZHjt+yD1j+cZTmVBQoIcDhi4j+yjqVRVCC2gqxGAAhuw6cFD20aNI8R9hFLVgVLT9UrW3AG9DBuDBch4mbNHeVqWmFghJUZOo372BBFpEQ/ve//juTKgIkmrbuZqoxMGnYiBBp+xe//r0BDvoBE7k9IcPiXRBpvv/wcfassmlwIPuyAv3jpmL2JqpvvQpCpRIVGGy28qt8lUVQwvu1/4iptoYAF4ABPF+hgoUUDzXF6nWbmoSOtcfaBhCwnjsoOB48dtYToAR1L0A0EhG+A2/96rdmL8X6dtHlkeix8fR//ef/at8h4oXwXJAWKXhhc6pz76EG/JGc4NABQM73Ydj42R6UvADx7UHyEWorWNYIWxfUw14WhXORXypBiU+vNxUTlKCC6FQkw5FX3wqTULFCHx19eBIqXDBQnOPDwA4seXxknAtGdn4py4eJczBNMEl2reaRz3nK8+uYM46pj1/Kkk9b/Le2NR9mDVfCGA2TR3nqLitMa2jiAzR+1RFJStcvtRIvPHZ08GT15Zdfyscff2z6sm8yDVuUJIeOlyVJyUNl9nMtmBzMGP3GqxBeg9ZtSzY1FIAGx6Fj4n9cylm7LjSPoJBEk0YtEkCO/Qj/CQoHmMduhEBylMVtN+cD9Qbq5lmkLQyEUYNEBQZ1r6yLD8werHHrrtbfsgZK1u45LYu3ZgRXSekl9Nv/4i/+Qn7+85+b2grfk1u3bkraiWtlDpSwniN3HzXvVgBp8tLPPzIvWajyso6Q7KGu9XhtB37xwoUNk9s44hcgjY0g9eLUhGt53+NRDjtFPHE5j1yoIALEH8e3CnwvcFeP3QlrGxtH8g7lXpMeA8ZI9/6j5HAum1VlZ475JkxcnaLPtX7UyjHBjKHSVVYIiQ6xtv7u7/7OvsvYx+QGnWqcThomt46v9KDEp8epJG1K8ETkAnIVRK8blMCUu6BS6NbCuAMEyMPn+/MEKuSjQr0BEBC+DLteqKCEO/ciCdAC2ODX5dmYACzap9CyoYk+A2AYNyk/o0V/3bnQemznDsATMk/Fae9FEx+gaRszZOzM1dKkYT35T//pPxkD49K///f/3sTjzugPMZ8LdrhmzRrLI56C8+yDO17yCPTmfMjjQYs8ROGIuyF2jsgD/Lgo6hgvkod/d+c32xkXYoToPAwhPicPA0bnyQsPLXhNYVeY5wVC1I/RIgaPLmo8nlvwisL1TleZXQI+TuQ5P/YYIY8cOUI6d+kmPabEWETrx0xOKU/EX9BnAjDg+swzCbPFGuMcayrcc8V6t5gmIXmUc3UZQA8Cc5hC8vlP/ZR9vDHw5FxxHe8B1r3bBACoEPke16kAHBchuywkQMnWg9ekZb+5tm5Q60CqiFQbLz3kofbBMfmcJw8ddqQXkHumcDXqpBiol5CHEa7zBIeuOnl4InJGtu75Qcfeqfayo0wehr+otUColhCX5y//8i+feK4//vA9GTt9mUxck1bmDN1Zn6yf0DyO+Va433DPKu/e0OtYs7beg+PnnHvX8h0ziYrW475nGNK7sqHpiXe6rn3cE6MiiXc7ADhlysy7QxPfhNmROdKi6whbT7yXId7TvK/Jczv/vM95r5PHOoV47/P+J4/1DPF94DtBHt8NiOeA54E8PCjiyIHnBeN18niOUMvi+cH+gzwYcdSoYLKIm0Uenrecu2zsQMhD5cs9P5s3b7Y8bDqcoTm8Ehu9GKY7LRTsPiiH8Tvvfwh1LPL4PrjdZL4b5PEd4XsC8X3hO8P3hu8OhPoX3yO+S86DGN8rvltc79TA+K7xfSOP7x3E94/vIHmh8//ee+898Rz/h//wH6Rnr/5ycEsnuX9uvQclPj1OxQQlrFGekYIoLCgpDr1uUIJKFLueeB+BUSFoISJwdo9Q+UC33D4IQebIfSDcy5o894Fweu4pJ+7YTiwMC8fuOhL/MVDHu4rtsuo17vrQevnl2F3j8ihLPjtY5IcyaG4HDTfBe1PO2TnyUk7eMQ9egZ3gR/bhenxNAJDRd2xWGDe6yai8GEMX/KixWzdG8zm/fluSfcRo/2D2DVOnQYeZ/tFekv5HXxmvMOzkubZeZuIDNHldmqzakihLFy80F4gE6vwv/+W/2Evv3/7bf2svT16mvLR5ufKhgPAdTx4vZD4mEC9p8riGjwfES5e8wA5tgCFjh4c8dqvcBwVGijxezA7kILkhD7DgPjIwYeRhnOgMHtEj5uVNCnWtShmYNc5DfDD50HC9A0PoK8O8kec+RjCJ+7QfEVu2Sv/ZcZJyKiBxCDeHPj1H0vcA82nBEzXZ3AaBTVlIgJLNiRdlyMyttm5gRHjxw0ABisnj16k/cp489OGdzrl7pjDCzf/8uAjtkHt+kGC65wcGiTwYJPf8wMiQl//5AeD8q3/1r+x5/nf/7t/J22+/LcOGDJJ1W+Nl3KqUMgdKSnuyDQB9BRE8EQAfrkxpTrZRtSFdpi2OtPXkAC7rjPVGntuhZz2yLslzm0a893n/k+eYdtY33wny+G5APAd8T8hDPcs9PzDz5PH8AFSK8/y4bxK2IuSFPj8uICL9dN8knh9ABC6B3SZb6PPjNgn4HpDH98HZtfDdII/viNt44/vCd4bvjQM+ADb3TXLfH75XlOF6t5nAd43vG3lONYvnl36Q5+aftgBSDpD89V//tVStWlU2bdoiGbt6y93TCvY8KPHJpWKCEhw1oN5bEIUFJSxk/GwXRq8LlAR2Se+bByq8VsUdOS4HsgJxPeo3bS8DRoyTlh17m97u9oRMe0kfVoCCCJ7YBAZgzjw04EEQLMTnAAHysQfB2ByjQ3awkjKvGvgBqNA27S7ftNtAQuqp27bzyvXowtIvxO4AD9RVUCvBaB5wgk4wUeERxaMzTLvUjUoJzBFtjZuxTH7x6z9I/+FTLJ/d3ZUR++Tnv/yNuY8EPABSKA9Aof8Hsq+ZC0j0mweNmiztdMzEdli2cZeCoEcG2vDS1bXPcDOcRBcZd6jUj079N5VqyMrIfQaYMJgHlLTvPsjaA7SEAqeXlfgAYVOSoHMQSnwE2KliF6yk3BiWBXqoaejC/WXO+5ZPJZuc+taCyCdj7pQ2gsn7/vvv5W/+5m9s1zU0CG+KvmTLoktgn0o28U1AfYvvYnkmJC01a9YMHpV+wt3+3/7t3xqvh8TIbaBBJxIGe5sSn55MxQQlbOK6ja1wFBaUgKL//Oc/B4/C0+sEJUgsCM6GFAGVraFjZ5tROHq9l3UuEKfjqnHZxp0KWgLBDglkCODAJSNGhviBr9ukjVSr1VgqVPzRpAYYj//zL35tnnvQhce4sXnb7vJd5VoydNxsZdSvm6tgvP5gXFi7YUupXqepfFLhW5NSZF28b560mrXrbv0hQNbelFMKdg7JF9/8aAbyAAZcRmKsG3Dn+8j6SzwGjHPpF4buABAiBRuQGDnVgml16DHIxu5iLWzacdg8vwDGAEl4GqJvC1ZF2XjwEIPv+svK6WKgCXj6qV4z7eMGiTt8xlyz4iUMUAIDDKBCX7lb35GSnHG1REGJ974Vnspy8ESfSi6VFUN3dqhDd3lDqazGKfGpZBPfhNJi6F6SRFDen376KXhU+gmpE5uFSI/ykzd09+mpVExQghQvvxOUUAoLShCVIoIvjEoDKJm9NEL/3zdd2kGjpps9BFIQyuAh5cI9kV4Dx0lHBQcw/kgFqtVpYgaESFmQJMCIcz1eSzCwxf0oQapgmgEpq7fEmx464GDPodPSc9AY8yqE55NOvYaYJAZAgstgVLs++PRLc8uIKhZABPCAMSKugfcoEAjoAAdUqBgPjCd9o45eg8dLt34jLMDW6i0JFqRr5OQF5i1o274MixCMUfDkOWtMHQuDy8T08xbDAZerP9VtLP217NHT92TG4k0WNftQ7i0DHUiCkMj0GIgx5Ghzc4lUJRSU0CekQF16Dw8YE3tQ8srJgxKfwqWyAkoKIw9KfAqXPCgpe+RBiU9PpWKCkgYNGtizUBCVOZuSUFCCVABXiDD+jZQBR/Jw/n7AsHVddJKs33ZAOvcaJv1HTDEpAhKIek3byeK1OyzeyOotiVYfLh9x7YhrRmKQIC1AhQvVp16DRpmP+vp6HUGreg8ZL+NnLpe+QyfKpNmrDFAgfcGFL3EU3v+kgkk8eirzTxBGorXD+BP5PTHtkjH+GE4CBBhPHiiZssjioSBBaaPXoUY1dvoSBV6bzasK6loLVm+zWBC9Bo+zWA0Hsq+au1XqA+xQV9e+I208a7ful9qNWpv6GeAM0fi2+AxT9SJgHd5jqtRsKFvi0uSCzhn6yIAWD0peL3lQ4lO45EGJT+U1eVBS9ui5QQmxRATDfFwuB1NB8TYIIHhPz93aH/78iyQCFN47qL9hAg+6OCC3ta9Xg3mUf8S7N6TfXM+520lPj4Hrbmk+Y71/6Mlzz5Jol+v5DXeemCy0zXl+CdwYrtyrSMUEJThnIGhoQRQWlGCUheeVwqg0gJI5y7eY5ymCGqKiRd6kOYuMiSeo4abYgybpILq6RVlv3MbsLlB/qqv/l23cY4wfkgNii8CIE60XqUW/YZPlh2p1ZNGaaJNU1KzXQmKTT1jkduKJdO83yoBEtjLygAeY/YRjl6ztQaOny+S5qyzw4bptSQZKADUJRy9a/wEvACSMyw2UKKAYNm6OdOk73Ow6UKv6l9++LfvTLyngWW3xT1DnIlbKd1VqGWDJvPhIDuXcMCkJNiOTZi+VEZPm2bhRISOSNtIfxj54zHSLIfFPb/2LXl9b20+29j/6/BtpoyBnzLRFpj5G5G1csZr6lgclr4U8KPEpXPKgxKfymjwoKXv0zKAERl/T8ZT1snbJSFk0c4ClxbMGyuG4JQFm2jHUlIWh1//Zh9bKtZPbA0y3Md7aHsDGgQnyAA8AA/4DYBxICGXQXZ5dmyg3z8ZK2v4Vcuf8rkB7rpyee3hlrxyJXypn0pVxph96/ta5nbJzywxZMntQoO/a72P7V1p9RJLPi67uIrHrdfR788pxsm/bnMA52ncAwtrSdukX/Xd5If0A9Ny9uFsO710qN07vCM6Ljok6guO9dmq7ZBxYLTfP7JCU+GVy+Xh0oD43JupxwSQdgGEO3Hnq45j6mK/Q6/L3qahUTFBSFIUFJegEv/POO8Gj8PS6QQmG7kgWCBSFpAFjdozFCUKIuhXAw7lyRPpgwQknLzDmHoN11KP2pZyzOjFWj96XoUzgI5NszF2xxaQiqHchdUDqsmbrfjNOj9yVaupdXIOxOMACycqG7Qesb0g0XD8IgAVjiQQGyQW+52mbAIm0x7Wmbnb+ofmoR6rBeYzkV0TsNWkKUXyJ8YDNCOMgojXetpBquGjuSIxoj0Q7eORCIkOZ9duTTbpDEEaCa81csknWRCVaFPrZyyJN4sN1/UdMtjEgRWnRrqcHJa+JPCjxKVzyoMSn8po8KCl79MygxJjcBBnar4V8U+FdmTS6i0wa01Uma0rYMU+uKnN9G4CgzDEM/CVl6E+lbZQGtSvKwhn95RFMszLMaQoEACrGYCsTfe/iHjmftUVyj6yTG8qYw8SfSttk5QASAZCSLOcyI+XIvqV2DiYcRr5F4x/lROr6QBn6CEOu7Rzcs0iqVvpUxg/vIPcBEwoODmje55/8Ufr1aCyTxneXccM6SI+O9ST90GpZMmegDOzd1MCM9UvHevPSHhkzpJ189/X7smHlWMvLPrJe0pNWBQCK9um+lrmUu1UBzTq5firmMSAIzkHawTWyM3K6/FT5czm0V4HboyMKQmIMfDBmkSOyP3aedGlXW3KOrJXtEdP1V+tSwBWY8wS5fzlO50WPFSTdvbDbrj2p82ogRNu7rmDneMqGvPmzvmlfmVeAWx7IKk4qJigBXxQWiy4sKMEVHG7kCqPXBUoco4ZdB6pYMPAwz8TbIOAhtiRnbwfAiLsG0HLursiZWy7eQSAIlbPrALzgJYv/uNFF/QtAgB946uN6ynMtthnUnee7/vST/uZdP2jPuWc0gBBUr3L9Ce0fLh2JLxLwDBYI/oYEiP+U4z8SFIzs8UPvbEA4zy/G/jZuTa4fLtGWO0c9RAsmDwDGf/rJOVS4aAPQM3zCXPMY5tp4mcmDksLJgxKfwiUPSnwqr8mDkrJHzwVKlAkePqCVjFWGXjkQTema8CaYIvExc2XiyE5yTpltGPElswfKjs1T5Z23fykdW9eU4woeZkzsId071JNWTasaULmpAGTZ3MEBkDOqs2zbOFmq/fiZMul1pEaVL6Rz21pyQZn+PVtnSe8uDaVn5wZSv1ZFiVo3yerr0OonOXl0w2NQon28fXanzJvaV9ueJtPHdZfdW2Za//bvnC+N6nwbkERIjgGbrtrOltXjZcWCoTauACgBBCXJsYOrpeJX70l1BRSZCi4WTO8njet+b+2PHtJWLikAoA36PqBnUzmSsMyAA32hz8P6t1JA9p100/FW/eFTA1HZKettHN0VDHVoVUP2bpsjB3YvlL7dGun5VTavMZumKmBqL7ui6HeqjqWPzRVgbOTANgZg2jarJhtXjDEJD/U0rPOdTJ3QQ/r3aGKA7KHep6VzBkmkjs0kUw4sFZWKCUoqV65s8ecKojJnU+ISDD/MvwMW5T3BoAI4AoCiZJhVYpvgLMABopJIHpQUTsUFJZxj7YemZ5VsUUdR1zgQH+4ciTVTYutRgbOr+1nH9iyJNkLb4X9Jtvc86U0DJdyD/OubZPeqgDVX1FotiWTrpITadON0z4Ebe7iyryu9jDn3oKTs0fNJShKVIW8nf/rjL6RxvR+kcf0fpF2Ln5SxXiTySBn/2PnSpnk1mTy6i9xXBh8mf0CvpgpY5kjkmvHy6Ud/kNiIabJ83hD56vM/S4Lmz5nS20AIDPjRxBVS8ct3TVpwMTvKwEz89rmSocz8+mWjJX7nAunavo6MGNTGmPhObWo+CUpuJ8uRvUukgQKH6I1TDCwADgxkJK2Uzz7+g4GMxg1/lLo1vpEpY7rKjUt7rD+PQUkAfMmDQzJ3Wh9ZMKOf9mu51K9d0aQ1D7Udxrhy/lCJWDVOmtT/PnAdzD990L6sWzpSWjT60f4fT90gLZtUkcN7F8vg3s113r6XfbsWyuC+LRTkfCfbNgT6eSxphfToVF+BymxZNm+w9O3eWM7pHPToVM8AH+Ck6g+fSJz+nzaum1Sr9KmBPuY/TkGbSKbMntxLVi8eIenJK2XkoLZyPnNLACi5e1hUKiYo4TlwgTzDUVhQQhChZs2aBY/C0+sGJT6VzeRBSeFUXFCCmh82RgTdjDtyxhKSrjTND1c+XKKOo6fuhT1H4jwe6QhEGu48yep4hjafJbm6U0/eM3VC1DbDlXvRhAoo6oz8x3NdoN2Saet505sESoijhKQWtVdiSBEPKvD/rN2rcGuOtcFaDUh4n6yvpBJt0jfaDHf+RRLjO5B9XQ4fv5U33nDjft3pZfTJg5KyR88rKRkxsLUx8KY+hC0DTC//Hxw2taxuChqmjOkij24kyD1l+Ht2rm+gZMPy0fLBu782UDN6SHsFFm0l88Bq29GfNLqzgQDsQHp1biBXT2wz9SaYeJh0gEGHVjVl5PCO8kPFD2X8iI6SdWjNk6AEVaer+0xaULfm19KvVzPp17OJSUcOK1BJTVimQOQr+3/t/E5Te7K+a7v04SlQomObNr67zJzYUxJ3zJUmDX4w1TIM5Ht1aWAgIXr9JFNns+uwL+G6m/tlhYKcru1ra9k0U+tC4pO0a4H069ZIfqryhYxV0AZYmjuzv0mVUCkDlFAvEh3sW/po2dGD28rMCT3lzoVdMmV0V6lY4T0ZO6KTAo42MmlMNwOBXAPgQkXtTPpmGaDjRzVt1YJhgfsT7l4WlErSpoRIpN9++23wKDx5UOLT8yQPSgqn4oAS1PumzF0tH376lVSt2VCq12ki1Wo3lhET55vNlKn/XQ1IvFBHZIcZ2yVTBQzmo064fluyubVOOXHXopyHSuH4xQaK+Dh4aOMcUjSkdagLUgf2U9gqrdoSb21iy2Tqj9RvdT2ynVTaory1G2zD9YM+0T871kTdTr0QNcLpizYqILkiMxdvsgCilKd+q0/L2w76hcfHqF6GqkqSOO9UI1HTdH2gLvKJ5WN2XvEZ5qhi6cZd5siCIKhcy3U2Dr3Odsb1mP+oUaKu6fpOcjvHdg+0T/Q1oBr65L0MHQd9Dtyjx+fzpzcJlBD4lblv122AuTr/7R/ekQoVK0uDZu3M1TqORxat3WEeA1kvqL4SnHbOsgjZre8VtwZtfeVri3vD/Xjy3tBmII/kVHXJ495wXynHuqQs57gWEIRbely9U5bzj68PrI3QtU+Z0L44L4z0iXKsCfL5n6qM/qK1MWZPiLv7hWtizM07niRtjQXXIb95begv/6mP9m1NBtu254S1Gixn49L/gbKBte3Kun6SRznmkGutHXet/uJohRha2Ciy3t2aJoU+K0UlD0rKHj2vTcmg3s0MGCycOVAWztI0c4AkxC6Q/cp0jx3aXlISV8jmlWNl1sRecjEnytSNxgxtZ5ICpCYrlFmeM6WPAYszGREyf3pfY7IBNQfjFku75tXlkl53+liE9OxYX2IjpksP/QXcbN0wRYFILe1Dc5NetGxcWY6nrAuAEmXAYfBrVP1C24WvzdKULfOm9VVQUFu2rBlv53KU4TevW0HbESQc87VMfwUG+UHJ+BEdZMLITnLxeLSBJdodMaC1SUpS9q+wOunXg8txNjc2TwrQclLWm4rW6MHtZIKCCOxbMMqP2TzN1Lc2rhov4xRgrVs2WvZsnWnSn9TEZSYZQlUNoDS4T3P52T/8jSQq8JBHhyVRwQp9WLt0lEwZ21XmK1A7snepqW8BuAyA3Dsg08Z1l8rff2wAJU+CVNxUTFAyZ84c2bdvX/DoaQoLSu7du2dRFwsjD0p8ep7kQUnhVFxQMmTMDGnfbaCpMCp/YC6vYRTSzt63wJ94gyN4JgE841LOKsP0SDbGHLIAnnWbtJXlm/YE4vYomMGDW9VajWXGog0macEBAwzFkRO3ZcKs5bJxx2ELAIrb67Zd+lnAUZikZRt2yc9/+Vtzmb0/47LEJuVKoxadDCThNhsPcOwiD1BGCvfUXD9h5jJjIAePmWluucdOWyy7lBnBAx79JRgpHuu27k2XP3/wqXz29Q+yMiJOxs1YapIh2sHNN+WI68PO+ZY9aca4tWjf09xcj9E6087oOIIMF3GCGBuM1byVW2XkpPlyVM9H7E6RSXNWWh7utnE00bRtd/Pq16RVF3M+AaOFQwkkUXjlI1YR9wWbNuYkMf2S9Bo01gKp0i928zMvPLAAqXj7a9C8gznKyDj/WEXsmLZNrCRs4mrWb2Guw5EEOMcV4dKbqL4FEMCVOcAEF+0wwymn7traxtti45adpF3XAeaUhDU1XtdWTGKOLFkXq/Pa3Dwsch+OnQk8S4EUYPaJO/VT3WYKZLboPX4oe1PP2X2oUa+5eWJMPXXH7htrloC2Y/Te4/qdNUTw3dFTFspqZcYnzFphQOjo6bu2lqmzW7+R1qfDubdk6NhZWmcLi4W1T9swQKH9wDEL17LOec4IzktgXc4THwuQPHPJZmX4Eyw+FcGAx0xbYt4jrQ5NrBekNcMnzrPnAc+QBNxFwsKGAgCG9cUYEtIuyo79ufremGnj5JkdrONEysEzigdJyrbR55sYVkgKeVYb6RyzORCbdNzmhWeUZ3np+p02zz//5W+s7aTMy+bwhdhYPP8TZ6+0OtyaLyx5UFL26JlBCYy6Jpjr2ZN7mw2ISzsjZ5gKF7YXMPwPLu+V/TsXGDjAOB3Vq9vndhqjPGNCD0uoaAEK+MWoHQnD1ZPbJHn3QjPoxmger15XTmyTC9lRMn18d/OaBXBJT14lVxQoIH24ZcbcAQlFRvJqOaTXPHL9VYBxOTfabD+QrOzbPte8XOUBCJL2ASNxDMjNSJzrgvm0Q0Kigieu+dP7aT96yMmjG/MkE0heAtcF6+N6BSa5CkxwArBlzQQ5uGdxoJ93D8je6NkyaWRns2O5eSZWx7xd+7zYvHBhD8JYARjYkABQ7uhcONAF+GC+6QeSJOaJ+cJ4nrECniaP7ipzp/QOjNGNpbipmKCkSpUqBkwKorCg5Pbt23Ly5MngUXjyoMSn50kelBROxQUlIyfNM0kJgUFhggiKiavpIyduWcR+mDGCedao18yARdSeo9K0TXdjhldsjpMZWganCQT4ZPcZr2wwKpt2HDJm0JgvZW5gMmYtjTAm4ze//7Nsjj1sLq9xPU1MG2Ly4P4aph0mkGCfeLarpUz6lHlrlLFZLq0791GG/5B0UuaqhjJtMHFf/1DdvOftT79g3uRg+qL3pRuAad6upzHpOF3AlTft1G7YynbPAVCNFTBsjUsxwAUjNntppFSoWMW8ySFR+fLbqrItIdN2fBkHu82NW3aRncknjGmr36yDns+SEcrM0ce+wyZpveNsvlopswtIAeBs1zKAEuqBecS99pY9qcoQioKvzuZ6e6yCk+bteigznCEzF200ILNgdbRUrlFf1m8/YB78Kv/UwOpGkmQMae5Nnc8Veo+2yoaYA+ZJEPfioZKq/OlNNHRn3gF5rMsFCkqYH5jw+k3bG6AFRDZTEAnzTdwlGGjuZ51GbWTBqm2yass+A5tINDKUiUcywX0kptXMxRv1/uw36UqCAh/uN2uLdQogBSRw73ChzjODNBBmG1A6b2W0Me9ICAAsrK/hE+YYSI6KOyozFm8wUIHUDQAVtTfFgAXrJFUBAGuS8bH+ho2fY94cm7TuYi7d8crYoftgA7wAkIkKXOgXHhYB+riZB5SQkCix3lmXETsPKWiYZaCcdT5g5DSdm25a31EFJSNsA4PnvMK3VfR5Xa3/Y/U5qWJ9Z6w8z1v3ptrzRqwuQBUAjed7f/p56w/gZLuuc36btu5q7xs2OZhzpEW1G7e255ixA3DoOxKT/Pc1f/KgpOzRM4MSl3BJa8btIenBoUA+u/WUgSE2aYQy0/xKijH55urWXePK8su1MPZIKYjpATNNItZI0PA8cB0xQzSP8uSHxv/geurivGPGLdaIlnt4OHDugf668i5RhnP0MzSfRDsk/lOPxTcJ9p3r6Fe460iUoSyxUUL7SR/cWMizcWgd/Kcc7bix0G/yOeZam0uu1X5QzuZIr6EOnfOYzVNl7tQ+chPVNOYytD/FScUEJdiTnDhR8LMeFpTEx8dLhQoVgkfhyYMSn54neVBSOBUXlIyYOFe+/bGGjJ+xTKbOX2u7q0gq0s7cM4ABQ8Eu/fsff2nMFcxLvSbtlJkROXNH5OJDsV3Yek3bKpN8WxLTL0vz9j2M0XKgBDsLmCokByTUaZDGABLYoYbR7t5/lMUCQsXrvY++MKaoUcuOJnkZPXmhAQiYoEsPRFZsipM2nfsb80H+is17TSWMetj5btC8nXxT6Sc7xy5zr0HjZdx0dr9h2roaA0Vg0RmLNonyOub+mgCn42eusP6gTpagYKZ+s47KCB4z1SuYN+rqM3SiSVtgoGAE2aUm/g+uw4eOmyX9h08pFJTALDZp3c1cdDM3MJjMSeKxS9JPQQ2MMmAt4dhFYy6RIAE2kIawk7xJwVyGMpHc02Nn7prkhmvYsf/0y+8M3HhQ8mRingG7BkoUXAAqkCoQj2ragvUmORmvgBswEKdMMeuXNQHobtK6s91D/h89fVuBJFISrffsXdvhB5jUbdJa1kUnGij4SoFsxUo1dO11sPaGjptprt27KOhF6ka7SByQkPVQkIDrdCQfLTv2MsDC+mRNnb8rckm/xwBQQMwHn3ypdbY3CQogG2kfEg7WZuSeowZWeDaR7gFMARYw/diq0B7PNuAmPyhhTaacuKOAZYyps/E8I6ngOYrac8yAxUeffWNtIzXq0HOQrdcW+jwn6ho9cvyOAQued/LefvcjGzuSkGa6tpmTDj0GafvrzAslMbroT0N9Rr+rXNOA3w5tjw0R3iO4yH/3w89NnZTnv3KNBva8AZwKWtMueVBS9ui5QcnLTjDcMNgAG2PAw5R50eTACQDBgYOCkmP0ARzh+hIO/LzKxDwBThxQCU0GhNID/c9/rjipJG1KUlNTpX379sGj8ORBiU/PkzwoKZyKC0oGjZ5moAOmGPUL1JiQksBIV/jmR5mszHfk7iPGaCEdQIUJxojdZRhkgnKy048q10G9dvehk7Zbin1FqKQEdSx02WGKYKo4RwwdmPLI3UdNFWTqfHZKTysT3t52R7fsSZHhCpo2xhyUYcpgEewzNjnbGH8YdZgPmPWVEfuMOUMljONdBwNMDn1CRQaVl75DJ0nEzhRTGSHgZ1c9D1DacyjXyhrjpICsZcfetiO+M+m4VNdxApKomzlkLKirfV+1jgKlRTZ+dpcBEcwnTB270YyncesuJhlq2LyjAREHSmD4mD/mLELB0ceff2NgDyZ48doY2XUgS9p1GWBMHBIQ1LkAb8QGQu1l96HTxoxSX6wCG2wkJiiYYo4CTPBsD0ryJe4b66qigm9smxwoadamu67ftZKlx7hJ76bAGAmGSfV0nc5eukm2JaTL7GURtj5hnrGLgEHeeeC4nt+s9zpF5q7YamACCV3rzn0tvtV2vS6w27/H1PU69hxsYBdbC+7l795+z9YiaoQApoDE8LCBc9bjnsOnFNRGmboZ0kuupy9TFFwgbURS4tYkY+k+YLSp+aGyCKj5sXo9fUZTrU2kMUjUOvUcaiBslIIW+gko4XpUAllvPDuxSdm2Hus0bm2bE9h6ANRjk7IMiDMnSE8bt+psKnGJxy4bAKFdQDqALjr+mK79zaa2hYOBNp372TyzEcEzgrRy54EceyZ/qtdMtirwJ/guGyKsb+aCPjC31ElsL+Y83L0NTR6UlD16ApTkAQN28VMDDDnSDhcB3UkDKGdSC81jF99JMmCGSa4eVx6m3dURyihzravj7gE5n71FdkXOCARCpH4Yb85zLXWEggOO3fUk2icfiYbLz7suCCDkmLkCXjZviMUVeUKKYOepS8et/1HFioueLaeObtK+6DnKco4yQUCAmlrijnmB64lYHzp2J1nh1+pNedxHlwBGzBG/9JOyXEs95HONky5RL7/B9resnSh7omc9bsva0MR1t5IkaecCyUjW+8o8FjT/3DfXt1CQVkxQ0rNnT9m4cWPw6GkKC0qKQx6U+PQ8yYOSwqk4oCT70iNZoAzGD8pkYxPCjmz12k2U6Z9sHrhgbpBYsLOJagu7zOiOz10RZWoVMCNzl0fJJmWu2ZlFv50dfhg81FtgJEzCcPyWqZjAXABq0DvnHBIFdnVR8SAgKeou8WkXLB8Giz5hIxJ/9KKp28DsIf0A4MDsx6dpW8q0EGMIW5f1yhjVbdLGzo+asjDQp9xbZkQM+IHBg2nH0J3dacBRlRoNFbQM1/FeNTUpGEgYufjUC6a6ggQkPWijARhAZQwGkACk7DAPGDHVQAggAUZ2xsKNyhSdNPUzGDV2q2GInXSD3fI5yyOlUvW6pjLWfcAYCzZKHezI12zQXOd/qoGpY2fvmQ1AwEammTJqK3Uub+qcBuwa0LUfPXWxVFMwAiPLeJFuPW4rzD1/A0EJaxDQ3XPQWAsCm3nxkTlyGDV5oan8sRZZ2zDFlENCBeDkHlbT54E1B2jMOBewUaG+gznXzaYIIMizgJQPkB+rYKV52+4KPJsaM49dBcFvJymQADzwzAF6kRaOnbbEQAprjXUJM43NBlILJITtuw9UMHDc1iuqgUjKUPNaHZWQd3/5ZV0u1P4DXliTrE2cVfA80iZSUMA0kkb6icoVeVzrrsd7Hs8SEre2nfvb85eQdsmM0HkGAdIAEezJADvMEe8I1imgHMDGczNs/GzrJ/UAvtjkQFKENDNXn1FTe2vZyYAH80ubu/R54f0AsGP8PM+AfWenBrChj/nva/7kQUnZoydACfYIOVstCCJxQ3KPrDeGduu6STJ3at9A5HMYdGWCsWUgKjqubLEFwSYCt7fYZVAPTL95g4LJVcaYuBvUgb2EMd3KTBM7BDUjbD3uaDlsJD7/+G3ZtGKsPNLzGHfPnYJ3q8kWoDCPcYbJ1oTxO9evmD/UAgQCJPD8tXvrTLM72RExTR5gtK6MOoEGly4cbjYpVSt9ErB7gWGnPmXiTxzdIPOm9bO6LihwwdXwV5+/I326NJIbF3db/av0emKf0K+bV/aZu97vvv5AknculFOZEQH7GAUeuDHGoxiAjrgkXEP0e+xi8oCQ9p+gkBjq83v/UpyVZd5O6DwSnHH1ohGyYfkYC4DInDGWzQpGuDdNG1SSccM7KNg4bPNOG8RQIYDjRa2D+C7NtMwFjP31fm3fOCU4/4sD869jJ8I8121aOTYQoJJ5pW/FBCVNmjSRZcuWBY+eprCgBCP3qKio4FF4emmghBesfiwsBV/Yz5qe97qXkV5/24W3T5lXOb9FlfWgpHAqDighoR6CNxx+2cknsXvKNTBZSDTIc16iyHcBPy0Fz5NHfe486l2h7ZAX2JV97KmIMvxnTfFLXVxPvXasv+z6cy3MFHr/2Jugnw6TRZ85j3ci6nPlrT96Pf13+a59fmmDMpS1azinx4/7FmDWyIcBdWMI9DngYcjNhbvWtUOiDPXktRdSh5sfEnUw91zv+ux+qcPmRctZ/4PjwZtYaF3kuets7FrWnQ+X3kRQQrK50vnhnrg8u0c6b/xn/phnuz/B+bRfzSOfX865a909dvecZPXor91b/XVrw+oO9pUAt9xXwAjnyXNrgjqt3eD1rh/UkZenv66u0ET7jI+6GGNgrQT66+rhutC15q5FUgLQQHqC6iOSUwA8xvyUpS7XL9pxzwn1kzhP3916d/10ZfilXcZu9QWfH/Ktn24ug+Vpw44Zk54PvWeFJQ9Kyh49AUoesgM/wbxqDevX0oy+CdjH//n627JxFYuIfkaZblzQ4gVq1qRe8vH7v1UAMFWmje9mnqrYgd++cbJ5pLp9LtaMuSm/QIEC0dOJqxG1bqK0a1ldls4ZLJNGdZGkXQutLYIQEhBw+4bJFq9j2YJhMmJgGzMMN2YaYHI9UcHQZPOCtWzeUIvRgdE8RvQ/Vflc6vz0lYwf3lGq/PCJgaHMlPXm0WpI3xYysFdTBT5/NAN0A1gAkrQN5laYOohZAoBI1v5U0nno172JSXAw6h+ndQJc2javLrEKpHDni4crQByAADfHgIQoBQ64MUaK0rF1DZmv1zBGwNZd56FLQQHAqF3LnyRLfzGg79ejiYEHgk/+VPkLM5Bv3bSqTNd+3VRggqcyvGxRV82qFQyQncmJMvfMcxRcEJOke4e6khAzTxrV+c7u16ljm5+Yf7yB4Z2M+eReLNA5N0N8ve8myQGYFBOUEJz91q1bwaOnKSwo2bNnj/zpT38KHoWnlwFK3Esy9dRdwVsIzI77SBQ38TLkRRn60X9ViXZJ+Rm5V5WYP8fYhUvug8NuNfPr3MKGK1tQejy/RQOT4pT1oKRwKi4oIXE+NOU/F3ocml/QuedOofWF1I8OPzr06KdjpI6NCs97XtnQ9MR1ARepMICs4fxlHePkjq28Mky4h8VGhQRTxDmuZ83DQME8Ffa8FCcVNHfh8skrqDypsHP505sKSoqbmEvWBPeXd144ABCaCro3oXmsG95noeeLSqHXw9Db2gvTTv7EOmVdh1vvJPetpC7q5Jj8g9k3TNqBgwWcQ+RvL/C/6PZJVraAvhY1FzbneW0Xrz2XPCgpe/QEKEEtaM0E6alg4NHVeDmXGSGVvv3QghpOm9JHvv/6A5k6tpsy12OkvQIBUx26maiMbl3ZHTVDZk/pZZII6uEYEMCuf+1qX0qzhpW0jt5Sv+Y3xiDjApeYIJSPWj9J7iszDAgaMaCNqVgd2rdUr2+pQKGnbHQ7+U5SApDQenEpPGNiL+sLMT5g7Dso+NiwbJSO7Jhdu2TOIIslMrA38fpS5Iwy6bgTxguXSUqUET+bFSljh7U3t79L5g2W0+kRJpUA2MRtVTCk44GJnzq+hwWErFmlgklvdkfNsv4Tt2SZxVnpYmpSSH6Ius54cIOMp6yVi0bIeW3nkRuDtk0cEoIiHj+yzjxwDR/Q2sAOrn6ZZ32LaD/XmvvgGAUrSEdMGiNpFu0dUPLgerxJOqYpOAQk1fvpG0lPXi1LZg0ycESsl5pVvpDmjX60+Sd2C7FPDsQttjEznvUKlihnYOkZJCWnT5+Wq1f1A18AhQUlWMbPnEmY+oLpRUEJjDw68LgG/a5yLalep5HpnqM3zsucXRkYC3ZpeNnBdPDCg1HBPz1xFWBcENsjjo9JyrHylD17J1AmwJgEGBauw2CPxLH91zocoOCFf0bzuJaPA3n0gXIYVIZ+LOgHL2gMYlE5QVXEvbCtj9ov86GvzBHXHaMPwTz6bXlaDn/uZzWPNnipA6zIc4wT/WQ8nKOuU5roH2MhH31iRO38z/8hyLn8yAwpq9RoEFTzaSRVazU0DyzssFEn46JPpEAdgTbpk82f/kcFp9egcVpXms0LbTNWrrf+aDmXh7oCajHoWhf0AfOgpHB6FlBSGhLPj1sPLs89H+SRWFvYp6A2Eo7pogzl3XNBHvYYS9bvNFCD2lOgrK5bLYfhO+pYrjybGtjKoJ6GATKGwxjewphiMExZVFR2Hzxl9WH0/LjN8Ou0tKXyCkp457m14u4995Xk7g//ue/8uuvceZePXRU2Dgn6PcBpA6p31Jd3n/XXXVtQyqszWJY6YPSRILg8lx6vnye/C/Qn0KeHptJEHahOUi5cHxg/zweqknz7AO5P9Fuv4zhJ1y3qUpTD1onvHu0AtvMkMfpLWTeO0PYcWOM3f59J7tjl2TxQf3CzDy9o9CFQ9sl5Zaw8VwRyzRtrsA3XH/sf7BfXhrbpQUnZo/ygJGLVeBnev7VJHWD8G9SuaAzyji0zjMnfGztftq6baBHMr5+OsZgeLZtUNhACUw+jqyvJpB59ujYyl7ZEMgdg7FAmHnUhpCRERT+wZ7HsiJwuY4a0t5gm+2MXmPSDuCYXFGCgarRj6ywZ0LOJrJg/JLCTr4DknrY5rH9L6dqhrmyPmmmSCyQgl09EG/iI3TzVABOxOlDHWr1wuMUfAQjg2pcx5YESBUPXFRCgRrUnZp5JNSYoGGHsACSkDiczIrWNagZukKJU+eFTk2hEKoADcKBeNTsICvTpNTWp7h3qyVkdY+r+FbJz+xwLfggAuIFLYFS4TFKyWsHaj3L62Ca5kL3F1K2wqWG+CXyoT5cFjWzXorpJXYiLkpqwXO/TYenfs6nFXgEstdL5BUzSl1rVKsixpFUyQwHU5pXjzMVwC21jaL/H8x+9YbKpeOGmOVbbIzI86eG1fc8kKalXr54sWrQoePQ0vRabEl5S6MLiEhR9VzynpJ66ZbrduHrk5YTaB6oe6PJu3pliYmn0iTE0bdyysxnBxibnmO72W7/6rRnLpp66bTtG1Ik+MXEYABtci6EgLhbxZIJuLi4SiS/ABwxGHFeotI3OLLq9mecfyeL1saaXi+4tLg+dfiwvVbz8YNiKJ5hBo2fkfUBIeExB/xaPP0kZV405mrVkkwEY2ueDQjmMAhs072h65TBP7HpNmb/GdHGRbmCYuCn2iDH56PH2GjzODIXnr4yWaB0n3k4+/7qSbE/I1vYff2hIACPGib0BO2nEscBlKq5a96dfsvbQZUfXuW3X/hK9N11ByEMDLcwvevK4f+WjzDX0Y3/GJdOFhwFEvxqvQ9gIMF7mBN35f/jZWzYedKLdx+iJfnlQUiiVJVDCmoeJQv+e9cQaIMGowIzBlPH8waigY961z3ADEA5kMD4HHDBUJo9ncXVkvLn4xd0xzwK2BJxjkwHGDVsA3J0S5R0QD+jAGBrw3annADPQbdauuyzfHGe2B+j4o+/eWp/Vhau3G8AHIHEd/afPbkylNZVHUOKYatYK72GYavs26HpBsusYesrC8GJ3wb2iHOe5fwYatB6OAaU4JJio7yG8VLFeuL+UM7fAhdxn1iHvLMrijY6yXfuMkKHj5+hauWigGuafNcuaZv24/jnQwjne1ax7NmzwqIZdF4CJPvLe573u2gx8M6jrvH3rajZoYbYfrE/WNn2hHBta2M5gu8F4F62JMeP89LP3rU3mjHqZH8ZhAJxxKIBxG2z0gfZJ2DRxjb1ftP98V12fLD94T3j2OOa71KJ9D9v8Sz8bmCvqoY1DubfsGcSIH/VM3BHzfLtxMj88827uec4xtKdta1/zPCgpe/S0pGSi7fIT8+KBgoDI1ROkmzL/g/o0l85tahlTfO3CbmOwG9X9Tnp3bSifffwHi9a+S4FLtUqf2e4/qltEVSegIPkd29RUwNBcuravK/u2zTFpAqpIg5RZRkKA/UnO4XWmejV7Sm9za9u7SyMZpOCjd9cGcmD3wqBkI1EeKOM8e3IvKztxVBfrL8EcYeyRzuzYFAAlgKhlc4fIdQUNSGUIsojKUu3qXwaCLQbrI94I9iEDlNGnzxuXj5GrCsqGKpBq37KGHFNg0bNzAwMHMxV8EORw/dJRprZV/cfPTEUMcIC6GECsm54f3KeFxR3p1aWhDNI+ETASMHfvCgbrMP6Jck3boN56Nb+xfgNK9kbP0X53l8Y6twChxvW+l4jV462vSESa1q8kPTs1sLKoZdG3xvW+s74TeZ45JVbMohkDrF5sTLCxQX0tMP91DOCgntaR+dc8wFRsxLQAWCLOSjFByeDBg2XLli3Bo6cpLCjJzs6W0aNHB4/C04uAEj5GMfuzzVgVw0R25Hk585KGYT6gL0H8pbNDz8sd7yG4TsQDC8ajeO0BwKzYvMcMcDFaJO7CHv0gYKw3cNR0e0lWr9tUliiwQAKDAR8vfrybfF+1tuXXbtTKYjqs37bf9HHnKNMOUKhcs6G99PHog8ce+sgL3r1E+SixIzt57hr7WMJwRcWlGRCYMGuFARnawsAXN6i4/+zad6RFih48ZoZJN4jfAEghpgE69xjvYigMwxW5K9U+sng2mTh7lY4xUf7prX8xg0cAEMHrMOBs1aGXfXyTs67bhyB0jukLoAxPTBjmjp02zwAUBsrMM8HvcG9JnAQ81OAlZsueI6b7T0CxuToXuJDEmwwfQz6wSEEWr9uuYz4tLdr1sL4s37RbgVw7M8DEZWvFSj/ZdajuuPl6ol+6HjwoKZjKCigBoCONMCDftK25II3Q46OnbiojN9sMjTGyxXsPHsE++PQreeeDT/VZIg5KgCHCABn3rLgvrlS9vgFhdoGp85e//r0Fj3PMHgngzTobo8AYA37WGQwbRsV4Xlqn7wLF3nJZ34ec76bPHDET2IAAmPOswfhgyF67YWtLGDUTVI53UrhxlpZU3kAJzG5y1hXzEsU6qalrAAlXYtol6aDvegJRkl9ZvxF4XMNxA0wvzDAxaACseIMCiBLIEMPsPkMm2nuR7wWbP6xP1gXG33hsI8imY45DE+9DpGi8x/km8T7mnW8BPbUN3tM/VKtj7+1sBci8V/l20D9iirBhlXbmthnAV6nZQL6vUttABC582fgCpODAgU2qwLsaqckjBSOXbXONunEWQZBI+sg7GQcPfOt4JmD+kRriqhewQABEvNyx+QNI4VvBhhWbb3xXMcbHQxjvcrzQ4caaWDnNFajTh96DJxi4B6gMnzDPgkQGANIjBRk3rH42s/gWmZF9VIL89o/vmCc/njXuE26GcQvM/K7fnmRz9stf/0Gm6vOOdzM28vius7nIt5z2MPoHeHHfZizeqICFDYpHHpSUQXoClCizj4QEo/VAVHMkE/vN9gEgcT5TGVAYedK1eDmiAGV/7Dzp3K62Ao/pZktyInWjSTwIVog6lakD3T1ggIM6LOAg3qK0bozByUOa4uqknKkoaV9Qb+I8Uguz/6AuUy9KtP4BkGCuryuAwoj8vgIgfgm4SDnybxCr406yqX9RFluS2+d2mWF5XqBDHSMqY7SVFzxR8y7pGGgDSQhSIQzcMUZnjgBtDy/vNTB1NiPC+s848HqFsTrqWPQThwDUi/QiIIUIqm8F26Vu7HRQ07qh19zRfiEFmjmxp8Rvn6vtrQnY0gAYNNEegSG5R/SDeUTSEh8z1/pBu+QTpJGxMAcY+ru5xODfGbozF+ThHIC+5M1HMUFJURQWlMTFxcm7774bPApPLwxKEgOgBCkILy/ExOxs8YJlpwfmnWi4qFTxEuQFzMsfiQH+/XvrSxjmGCkLO6GAApgN3JLiWQT1Ixj23oPHm9cdwAaM+mBlpPHOQ724KCUfAPP7P71vwISd/6+/rybLlNkGFPFyRc3Jfcxgxth944NB4LnajVrKh599bW4/8dDDx4qgdKhpIZ0AwNRt3FamLVxveRfui+0sIaHAswsMFC5Gke4QaZjAcQR2Y6eJXTY8yyC5QaLC3LATB4Axd6vK/E1RYMQHJSBmf8zEOlCCJIV4DCMnzTB//owHt5h8vPjwNW3TWcv8KK0791MweM0+QowNydO2+Az7oMIQwMDBKLBLuVeB2J/f/9TU7pq16WKB8JhLAFrAxWbAlarrS2jyoKRwKgugxIEEvPMgZYvYdcRAOFGxeVZ5LlboMYzT599UMg8+/OcZYZc1ADDEdk1hfOav3GpAxQXCgwlq2jbAgLrnjh1fmBYkJKgtsk4pj6eifUfPW3yTjz+vqIxSc9ukCHhQyrU4FbhWhXk7cSOg0tlTn2veJwR/IzAeXsTyg/rSlsoTKOEdwH0ljgUB/IiVAbD46ruqysxvN5fQRGdn3D9Uq6vrZrbs17XAuwWPWLsPHbeNnk16/wA1AVe1J+w8my28a3l340GtrTLovD9pA4Ye1b3QeTUPVmfumWtpPGnxvt6emCXEuUGy3rJjH1uvSAk4BrwAHviurN+WaMw7XrcAQnyH+Hbxzty886BtUOFimvcsz0UowOYbyMYWwOaIrmHAOhtnqAQT44NxRew8IF/ptwiwxLeBGDrYZgHa2UwDsCBNByyRB1ir37RdQDK4+6ACgJamMcDGHd80JNyZFx5Kx15DDNBv2X3U3A0nZV4zcBDYLMwxsIHUiesAdrgM7xmMlcLGAH0BdAEAuVcETyUaPc8UEiS+a520DTYMuF+AJK7h27xkw069LlGiFHwhQWEuPCgpe/QEKDGGVJlfGFT+44IXRhoQ4WJ2OIaackFXwDC/FoGcvLtaT9AtbV49JFcHDDHHT9Tr8oLlOOY8ZUOvCU20RTvWVkCty67h1zH+gCoS4+CXstRlDLiWDa2P62iL9p1tBXkcW716DeN111Mf+bgCduPkHG0wTy6P/67e/G2SQvtFWT0mWj5A46nr+OWYNq1scJxcS99cu4yfc9Tr5oLr8s+lXRfMC+1bMUFJbGysZGZmBo+eprCg5MqVK7Jvn6K+QuhF1bd4IeHqkd2vhLQL+nK6Z+pGLTv01hdvrvQeMsFeummKHmB8YEbYRaJMbHKWfSTYeeHj0bxtIOgbO0J8xNgddWoeRLPu0jcQhIp2ew8ar3WPt48PvuVhlhCHUxbGihctEgBezt36jbL/MDK8POk7/4coYEI6wAs7Ie2Evnh32gsXCQ5SCdSi2IXiYwEw6NJ7uEWqPnzitvWNcuzkdVbQdDD7qrlX5OUOk8QHietwwcgO2vQF683laSP9uCBG35aQYX76129Lln7DJppLxmNnAmpjro8kQAlzRURvdJEVBwn+63HZyK4bO3Odeg+V6Pg0+8/HizljDvDVT9A6diO37ku3nUb6hCvOfsMmKxN4wRgB7gERjGEo+PjsUqDBPJr6m37gXF9CkwclhVNZkZTQN6SHgGYALNK2zcr0sFuMRATgjBoVDAnPLWsHJhH1LK5lfbDGARAwgbpc7TwbCKwlAhUCJGDkjGE6/9CYvM+//kHXasC1cKVq9WTx2h2mZsJ6RAq458hxk4rgUphNAOoClAA8HHhH/51dbHbPeynDh1vf/OqPpS2VN1CCpIB36zvvf2r3B6lwZ30frd6SYBJqmHRiepDP++pg9nWTeAEykc6y+cO6+7ZyLXMnDeBo0b6XvfOIW4NkGnUs1Hth5mGY2bQCFPPud88Wa4L3aoPm7U16zUYSG1qsO+pAwgFzDUPO92Lr3gwDUjVMStLfAAcxQHif0wZlz90N2NpNmr3K+onEZbi+p9locsCENT1WQRnPDRtk2OMR+JDn6Sutn/XcTr97AC0ACCAASTeMO9cwJ7j15n9f/Q7wfFE/3wxAU7uu/axvuOxeG51k6sTMEaphAANAG+NDndG9q+kXnrtQdezWb7gBHcbA5kAPfS4BQKmnbsigUdNNesQGGgEaiY6/eF2MlWEu2eRjrgjoyIYD33Ge5c07D0vHnoNsAww17CPHb+g8eFBSFukpUPKsyRhzZX4dE+7TiycARCh4eNWpmKDkxx9/lNmzZwePnqYCbUqKEr+8qKE7L2d898OsEyEWQ/eAKDjZbBsQn6OmVK9pe315DjcGODo+w5gdRMd8yNiRhzFq2zVg24HeMIHP2BX6rkqt4Iv6tjE77NTwIeDDA1DJuvjIouiyI3TsbMBWBYYaUAPjDeOCmogF6dKyvLDZVUOHFpE74mcYf8dkAWAAF7xYUTVDusDOV+SeVGOaACbkIYXgg8tuGpIc1MNQddm047B+HO4bg8+uLx/gTlrPMmWqYN4Qu9M2RvXMGbYz9Ll67cbWBrvH81ZsNeaK/mDozs4Y40Gd4Ced36o1G9l4Ms7dNlU12kZiE5AIzTDRPKCN3T9AFjtlfCz52CC9Qfd/4OjpFsEYFbPm+rEhPga/qJ5xL7gv9nHK4YPjbUqelcqSpARGjcCMBJrjvmO3FbH7SN7OMCCCHd+4I0RNn62MVkuLM8JzZM9SznWTvgXUFFfYM0vwtlUK2ms1aGFAgvcETBPAgbW8bOMeuaTMzvn7YgwV6pjLN8XZs8uaBoig4486aLY+m+ycs1vNMwgzij49/Qq8E3ZYrBNstGBWw421tKRypb6l7wDu/6qoeNuUQrJMDBwk47yzsOvj3YONBP9nL420HXikZ9x/3i98A3g38u7ivYrktz72dso4Y1OCpIz1iSMVQAxMMu9spMGUBbC4dcw7c4iuT9YtoKCvvmtRB2ZThusBGtjLuW8MbZKWrN9hEpM1WxNkZQRR5LvaN4Xvx8hJ8+ydCuOPPQqAhW9YwKYqIJXAMB91JjaWCE6IKho2UMQbQqLNRhDfEmyjGBfScjaOWM9spAHUPvr8G3n/4y91fZ816TQbYkhWlm3aY20T/wanEag17zp4wsowZsbKd2d/+hV7xlhjAEXbENQxLVyzze4JYAuJI/3gu4cLYuoigCIAEXDGZgDgv0qtRqYKxjxjEzZz8QaTZrIxxmYcm4hIVBgvKl2oajMPHpSUPXphUOJT+UvFBCUrVqyQ5GRdNwVQWFBy6NAhadSoUfAoPBUFShJSz8qYFYcLBCUkXobOMI8dFvLcLpYZFerLm3OUs6QvMM5R1hnPUYY8PmBc71TAUOvgBUwZPgLOiwj/HbMcyA/sWlEWMTo7rPTJeSlxZV3CcI886nV51MGxGT26PipTzjnqDRhIBtS+QvO4Bl1o8ty4aZv+m3GkXRf4cNIf1xYMV+A3YOB47Nx92zXjQ0TdlHNlSYwJOx3GF2DYAh5baCN0ft2Y6Sd9cGMhn19XjjYDDN79PPBBu65P1Ms514/QxAdo/Kojpgbh6WkqK5ISdjgB1tiPIMlEfYX+8vxhW8QOLqCbAIOZFx8YqIBZYhcWFRLqgBkE/APm22h5doNZV6goAjh4NmiHhFthdmRZy6jgkJeoTA0SUFQZ2XTAdiUjWDcJ6QqMDrZcgXXKGn5oaw/Gi34DWtzz5K4rjam82ZQw37yDkF6wVpAwI3nm/uJsAxVRnKEg+UBqzbsLhhaVP4zicbLBxg1rBnDCTjzSA9Sb2MRBco4zEuwLuc8E4mRtIVkHALAB44Ao7yzeV6h90RdUxwASSG3YHGNNYWOIFNm9s7EXpCzqv/SZulEFZIOMsaDKij0HzDhj5VnBVo+NHY5t/Pp+ZfwAehj75Qq4AF9s7oyctMD6DYCmftYx9lc8LwAAxsn1ABc2owLv5sA4UOmlb0PHzVLG/7JJOgA1ACrGii0LbSLR4Nit/cDvfZtzrgc4YM/C2ABLgDWeTWy3UHcDXCD1R5JPhHg2IHgO+RajgQDgZ9OPOaBtbEKpF8DF/XLSSQ9Kyh55UOLTU6kkbUr2798vP/zwQ/AoPBUFSg4oJztl3dFCQQmJFyEvxtCXY965kPzQFydMBExw4FyAIea/uy5/ffmvL+h/YdeFJsqg444tDEyYuyb0utB6SHw0eLmT7/LyyoXL03Hxn8T42K2z9jTxMQ8ty3+YLsCAMzB3gMLNoUvO7oTz9IlfVza0Tlevywv9/7jsk/OV/3y4xAdo+oY0iU85E1wpnkIJUDJ4fukHJSTAKpIJ1FVQC3H95dkwFZage23cerP2OWYtc+zqYA3iEpvyuJZ2efwPHT9rlDgkoeuScrRL3c5NdmjdLugbEs3QutjcQEXH2tRzBcVmKE3JgZLZG8o2KBm1LABK3Lh4n7m1AkjgPnEvubec5/64zRnegdw7zlHe3T8Sa9HK6nnWAfWS59YWdoGcQ2IGUGZj68l33CNbX5RlTXEOKbhbv+4dTFm+P6hcWVm9xq2t0LHQR8ZDHZwLt6ZDr+E5on7qpu38z5Vbx5xz4+R6/mOj6Orjfe/GwdgpT52UoQ+AFjwoAtb4Zrh5Dk30met5RmiH8ZPn1Nqe6LP+Z46Ya85zzFxyjnlgzOS5frt+cR9de3wTJq72oKQsUe6+AR6U+PRkygMlXQsFJTNmzLBYiAVRWFBy//59i7pYGBUFSlL1Kzptw1FJ1xdq/hfxiyZUMNj9QQTPjj67QW5nnrZ4AfJidOXJe5z/5P/QMvnz8idezu6ljOrYqsh4E41zDYwR5/nvEtfwS73srrFb9nQ/XXvB6zQv1GCd8uwa8iFFbYrdOHbbeNG7MlzHx4P6OC5oTlx7SJl26QcAhwB8mJIyrj5Rjl9X98tM1EuasTFNDjCRnp4iQMnwxUly5GTA3We4efTpzUuAko37zsq8zSnBlVL26GDGORm36ogxoeHG+CoSzxTvyjf52WL8BtqC34vXnVgPU9enmWpyeabyBEqOJwyR2yfXeFDi0+OkoOT+ha2SE9ezUFBStWpVmTt3bvDoaQoLSggBj1vgwqgoUJJ9+qpMW58i+7NuKSP/8l5+8LIAElzSwqBjSI4ub3zqeZNacN657wUo8MsuF8w+KgD8pwyAhpcz//mlbmw2HPOev10S48AOBle62IY0bdPRPJUg1t5z6IS1R12AAUTY7PDRHupOGCviphE1Kj4I1IeKGeVJtBno1x0rH2hPDMhguIhnmsatOppBPEaL6O5SN20G6rqVt5sHeMEQEe9kAUmOzomODXUIdrUYJ/r36Ccjwkc/mnLMFeVc2/y+zMT87c++LdPXp0r6CW3Q01N06859mbruiCTnBHTew82jT29eIm7SBgUla2IL9lpS2int+CXbkECN7liYMfr05iXWAd+FOREZkpSmH6pyTOUJlJw+NEVunVhpjGhYBtWnNy9dT5S7ZzfLqSQi4xcMSjAPOXWqYPX9sKAkPj5ePvvss+BReCoKlNy+e1+Wb0uXNXuUMQ4yzi8jwSwDSvAWhT44eut//7O3TLeXHX90fTHE+6leM/P3ji4rrnUxNMTTTyDY4XTzcoUhI8a2GFfigQqgYQHbzMD2SWACg4guPPrGGAkeyLpqnloAARj94Vpx9+GT5j2MAIeT564wfVzy8bWP1ysMyFGxQtcYQ3IM+fHMciDrSsBlYvMOBlw2xCRb+4CVuJSzAY9cm3Zbe+fvEZRriblFJggVrhXxbsKYu/QZYQaP1Pn3P/u56SmjZ4+OM7EgKv9U3/TyASUYcKL7z3jQ9cdjEYakGJCiy8zxywYmOQqa1u89I0u3HjPm29PTdO/+A5kfeVQ2xWMQ7kGJTw9M2nzk5D2ZG5khO5LL7m7yyfPXFXCnyJ606waywo3VpzcrsQ7iM27qukiVjBNXgiulfFJ5AiXnjy2ViymTlBndpymMy1qf3rykoOTKsZlyNmVWcJWEp4cPHxYqSQkLSo4ePSqdO3cOHoWnokAJlKpc6NS1KZKcffulfYQcKAFEEM8ADyBIBTAAxMMKHryi9qZK1z4jg0EQM+TbH2uaq1JUlgAmg8fOVABx2hh5jMOJjQBwiU3KChhZKmOfX1pCu6g64YEEP+ynb8KwPzRd3XXbkqVpm65mIEiAKfNJf+G+gQNA0MGcK+ZVCzemGCgCfpCuRO4+Yu528ayFi1K8lOC21xnr0iaxH+gzBoOAFCQjxGshEBa+5gEbIybOl606Zrx2MTYMNAFGeC/CeBSf/lv3HbP4LHizQXeXeVq6fqf5mKf9gXqOIJN4hFkRsdf6wY5m6By8SOL+H8i5I9P043OYgXgKSzyqREifH5VlKjvh5tKnNysBTpP0HTpjQ6ox9mWV7ty9LytjMmTDvjMvdaPKp7KbWAdbki7I4qhjcvP2veBKKZ9UnkDJjQtH5HTSMHl0ZY8yox6U+KRrQEHJmQPD5drZwsOJdO3aVdavXx88eprCgpLiUHFACQSDxQ5fysn7LwWY5AclqCq1aN/DbDaI34GLxCatOhtT3kUBBF5/AAwEaQS4kIc3HlSsYMzxfoLHE9ww4qsezyz4c3dqVa5dQErqqTsWW4WIt4ASjPjO3RFzSYovfDy+oEpGXAaMZ1t06GUeSlBUoh380G/aecRUsXBv2rRtZ4u6O2nuCjM+RGKBipkzAnSgpFrtxgZ4iG6PoSDt1Gnc2jzKfP51JTvPmAE70xes0zlJMFebqIqh4obKF7EdcNOI6hcSHKQ9eJNBfYt2mb/RUxfZvBEjJjo+U9t/SUCSuTv9QOZFZZbpnd5XRVdv3JUl0elm2IyjCJwXhJtXn8p/ApAc1V/UW3YfOh1cIWWXUOudqeBqV+o1D0ze8MSmy770mzJ9w1E5hmFJOafyBEoePXogFzPXyIUj40VuJhlDGp5Z9ancJ+79rQNyKW2qnE9bKA8f3A6ukvDUokULWb58efDoaQoLSs6fPy+bNm0KHoWn4oISKGb/CVkUnSUHc+9KVgij/zwJRh07i9rKgCMlgQH/8af65gZy/AwC/g0xewtilCCdcJKJgNvCgC3K3BVbzHaD2AbEKpi9LMJ8q2+OPajMes+AC1Fl6JE0hLaNlIIYI6iOoRq1KTbR6mretrvM0uuRsCB92bjjsAEWVMoAKUvWxVg8hp/qNjVXkUhlkM5s3HHA1KhWR+2T4RPmWRRcbDoYoxsr6lsE6wI4bNieKCsidhuYAkQR8wH/8QT42qj9wqf86qh4C5ZVuUZ9HU+KBSKjPP1GkoQKGUEm6zVtZ0AHVTAivjMOJEAY7nfTckTMxkYldPzPkwB2h07ck8XbsiU6MTe4IjwVRRev3pZ5EUdlc2Ig6N+LPjc+la2EuijqjnhhW6LPzua4wm38yhIdyb4gszenye4gMGHTItwc+FQ+ExJ47vveYzcUbB+T/WlngyujfFN5AiXQo0cP5UzKPLmcNkMeocZ166AyqV5q8uYkvdc3iRyfKFcy5siZw9Plwf1bwdVRMF2/fl3u3LkTPHqawoIS3HW9/fbbwaPw9CygBMKwefn2LIk9ctUYrOeVmiCxQI2KIFf4mk9QoEGwKlSmUKeasWijqXOhNoWU5JCWJZYB0gGkAfhKR0UJY/Ipmo/HD3zXd+gxWMFGZ5M+YKCOBKbf8Cnm6cqBBBJuHnEriZ0G5bEhgZHHUDwp86ox80haCLiYeuq+BWtsqP0hECN1Uweesbr2G2n9HDxmhrZx3SLJL8TH+8lAcK3QsRLHAdWvxi07W7BDjOY5T5sAE2IukD94tNaVec0kP/iMpxzRstt3H2hBrKbNX6d92GxABxDGOcCa+fdPyjX7HMbEGALuhZ9ffQspC/d5Z+pVWab3Pe0N2Al72XTz9n2J3Hdc5kZkSMzhK+K8uwXsjR7ZTqNP5SO5d6IZges9BowgKZu7+Vi59FR3+uIN/R5kyqLoHLMpcN4HmQPmItwc+VQ2k1vb9j3RlJh1W5bEHDdpcO7Za8EVUf6pvIESCGBy5USMnDkwWq5nLwqoc8GwXt8vciMpwLTeVLBivz6V+cQ9xbnBdb3HV+PkxvFlcvbAKLmcEyEPHxRP/fL48eOFevcNC0qwjJ8/f37wKDw9KyiB+BBt2psrq3edlPj0m/ayeh5PLLzcnC97GHd8ouPRyvKvBvyl4wudnf7QsvzHMN2pZbl8jlHHMj/rwfME7EISg5qXvUxD2uc8bbp2Ah6wdBzal8f+4Oln4Jhy/NI3rue8u97FXqCOUDe/LtE2vurx+U55EvUEXAdrXfRFz4fW5eaE+pgDfOrTT64j4Y2LX9uB13aZu9A+MS/5x1ycxH3kflJvQsYtWbP7lGyKy5VTZVgPvjRQ9ukrsm5XtoE7ds1X7jxhethIUfDItCH+XLlNsUdvS9SBq2HPlZuk9zAq6aJs1P/LYnLtHi+LyZLt+0/IhStF7zyVVbpz74HFs1oZkylLt2fLku05slrfGVHJl2wuws7VS0g7Um/J1oOld01FJl2SnWl3wp4rqUSbEfsvhj33QknX9tbki7J2z2m7v9znFTuyJPHoWbl1p3zbkOSn8ghKHN25flIuZq6W8ynT5ULKZFPlAaTcyF0i17PmaZrvU5lO8+RGzmJNS/TeTrN7fD5V73X6crl9NSe4CopHtWvXlgULFgSPnqYStynJTw8fPrIX0uKodFkFOFHmFUaWHZXSpjsPc/88zPmblrhv3D/mKyHzljIWJ2WR3t+E1DPy4OHD4J339KJ08ao+KyeuSHzqWdl75IxsSzwuW+JzJCo+t9ym6k17yZApK8OeKy9py74c2XngpN3T5GPnbfeYeDVvCt1/8FDOXLwhqTmXbA5w5BFunl5W+qlZH+k7ZlHYc6UhTV60Vb6u0S7suZJKE+ZHyuxVu8Kee5HE+wnNAe7rkayLcurCDbmrYPRNpPIMShzdu3NFbl1Jl6un98iVkzFyKSdCLmB7krnWpzKd1sil7E12T6+e2iU3L6fJvdvK9D0HDR8+XKKjo4NHT1NYUJKZmSlDhw4NHoWn5wUljngxJShztSgqzXYG2SlMOYUxvLYfVGMIxwD7VDoSbkq5T9wv1NTYDVuyLUcWbjkm+1LOmKcdT55elGpWryKrVy4NHnny9OLUoW1LWbViSfCo9NGBpHip9VOV4NGrIr95VNL0JoAST55elMKCkri4OHn//feDR+HpRUFJKOF5Y3Mcot0sU+3advCyHDx+11SP8lS8vAei15qYf4AI94P7ckjvz/ZDl03dArWijXr/CI5WWNAcT56elc6cOWOGcZ48vSy6ceNGoYaWr5vu378v165dCx69GoqNjbWgZp5Kjjwo8eRJZNu2bXLs2LHg0dMUFpTwQkxKSgoehaeXCUocXbt5V5KPnZPVOzJkYVSG6aCiO5+YdctcyqIe9ITRXBjm2aeXk5hfZ3TKvDP/ROfnfizdnmv3h+jS+9PO6X0rvR94T2WbeA8VFv3Vk6dnpdzcXLl0iQ2U0kmAJrQVXiXVq1dPRowYETzyVBLkQYknTyKVKlWS2bNnB4+eprCghGiL7NYURiUBSkLp8rXbpmMcnXhC5kemyfwt6WarEH3gkvm4J8Kx7dprwqUk0hR28j1YebbEfDFvzB/zaMbvmpjf3UevyTadbwzWF2zJkAV6H7YmHregmJeu3g7eKU+eSo6+++67Qo3iPHl6VqpTp47MmlV41OHXSUgtvvjii+DRq6HNmzdLfHx88MhTSZAHJZ48iaxdu7ZQqWxYUHLw4EGpW7du8Cg8lTQoyU/nr9wy15gYhK7akaVMcrrMU0YZhnnboUsSl3ZDknLumF0KLlOdO0Jnn/Kmq3+Z+pXOg0k/gnPDPDFfyTpvzB/qWGv3nFIAmGEgkHmOTT5pHnLOXy6/XoA8lV7q2LFjkTGTPHl6Fho1apRs2bIleFT66PDhw9KzZ8/gkafyQh6UePJUNIUFJahMVKlSuKHdqwYlofTg4SO5cv2OeanZf+ycbIk/Lku2HpPFW9NlcXSWudXcuO+sbE44JzuOXJHEzFvGfIdKBCzWQzDxPwNJCykobSntIIb+PSnlCMaveGJMj+MeYIzOPMTqfDAvG+PPyrIduTZfeEJj/iJ1HlHHyj1z1eb3wQNv/OjJkydP5Z1Qp4iMjAweeSoJ8qDEkyeRyZMny65du4JHT1NYUPLgwYMijUtfJygpiG7fvW8uB1EvwjYlOvG4rN+VLUuiM2T25qOmgrQyNtfiPKyPOy0Riedl26HLpqZEAK/9WbfNwB4GHjsKpAlEniXx36mLOcY/lPnPAzUkBxY0BQDOkyn0vLvGQEU+sERybYb2hWPKpp6+bwbn9Jv+m7qVjodxMb6VsSdsvNh/zN50VIFHus0HrmSTdH6YJ2KI3L7jPWV5Kp2E6lZycnLwyJOnFyfcUaampgaPSh+dPn1a1q9fHzx6NdS4cWMZPXp08MhTSZAHJZ48iVSvXl3mzp0bPHqawoKSmzdvSnp6evAoPJVGUFIQ3bv/wAI1XbhyU7JPXTE1sF0HT0nE3hwz1iahqrRUwcvirZmyICrTVMNwcbt8R64sjQkEfITR35QQCAaFyhjqTkgedikYiEu7LvvSb5o0ggRQSMq+bapRB3LvGNjhl2PyOe/Kch3qU7tTr0lsylWrl/q3Hrho7dEuMV2QAC3fcVxwAED/ABv0d+m2DOt/YCwZNi7Gh9oV4yUA263b92wevHcsT2WJKlSoIHPmzAkeefL04lS5cmWZMmVK8Kj0Ed5p3n333eDRqyG84Zw8eTJ45KkkyIMST57ENoTOnj0bPHqawoKSffv2ySeffBI8Ck9lCZQUh2DYb9y6J5eu3bZAXjlnrkqWMvRpuZeMuSfgY9zh07Ij+aSmUxKVcFw27M6WNTuzZeWOTFm+HRWodFkUdcxidSzQhIH+vIg0+10dm/3EMecph8oZ1y1XYEFkY+pbr/WikkY7O5JOWrsJ2j79oD9E+KZ/RMjH4Jx+BwCHJ0/li6ZNm2bvI0+eXhYhhcBusrTS8ePHZcmSVxtHBcc2aEh4KjnyoMSTJ+W1790r9F0TFpSwa9KjR4/gUXgqb6DEkydPnjx5ehOpT58+hapUeHpx8qDEk6eA8xo8cBVEYUFJcciDEk+ePJU04YUoKioqeOTJ04sThpYxMTHBo9JHR48elSFDhgSPXg1169ZNZs6cGTzyVBLkQYknTyKtW7eWlStXBo+eprCgBH2vNWvWBI/Ckwclnjx5Kmn65ptvZN68ecEjT55enGrUqCEzZswIHpU+2rFjR5Hq0y+bLl++bEEbsWdp2rSpdO7cOS/q8s6dOy2vffv2kpKSYnmoVDZv3lzatGmT54gCr50wHC1atMiLeYJ743bt2tn1u3fvtry0tDTbLSVv+/btlpeVlWXAiDznrvnEiRPSq1cvy9uwYYPlnTlzRvr37295q1atsjzaLc0g05EHJZ48idy6dctUuAqisKBkz5498vbbbwePwpMHJZ48eSppwnVgTk5O8MiTpxcnmOLCDC1fN129erXQ4GIlSTAM58+fl4sXL+YxDrdv37a8Cxcu5OXduXMnL+/u3buWxy/HJM6H5lGWeiDqoP7QPGxaXB59cHlE3icP5zsQuugAKPIAUdCgQYOkYcOG9r80kwclnjwFNiB41guisKAEl4RFGdp5UOLJk6eSJhgQx7h48vQyqChDy9dNDx8+zGP0PRVNSG3KgoqnByWePInUrFlT5s+fHzx6mrxNiSdPnkot1a1bV1asWBE8Enn06JHtwuZnKh0jx3nOuZ3aZyUYVnZqAUPs1Hoqf9SpUydZvnx58Kj0EapP9erVCx55Ki/kQYknT2LxkJzaZjgKC0oyMjJkwIABwaPw5EGJJ0+eSprYVVm2bFnwSOTKlSsyatQoSUhICOYECF33kSNHmlrO3r17ZejQoc+8Gw4YIX4Fuu+8265duxY846k8ETYOS5cuDR6VPmLnn3XvqXiEi2ci0pd28qDEk6eiKSwo4aP+4YcfBo/Ckwclnjx5KmkK1SeH0Lfv0qWLdO/eXVq1amVeitBPBaj86le/kokTJ0qHDh3k17/+tRm/otYxfvx4c3HerFkzSUxMNIkKO+UYy2KUiyEvdOTIERk7dqz9wkAAcCIjI82gt0mTJhIREWGSGDZt2rZtKw0aNDBPTkhluAZQhLewOnXqGJPkJS2lk5CqPa8k7VUQYNrZVXgqmoYPH27PaGknD0o8eRL7phJAsSAKC0quX79uXjMKIw9KPHnyVNLErjFeeBwBUPCehAj41KlT5iVo9erVZhjctWtXAwy89MiH8QQ0ABIwrgNUEI9h06ZNBlKoG5ASFxdndU+fPt28D2EIzXnqAWQAbgi2B3jh3UjdU6dOtSB3eAfCkxMek4gUTn28F2kztN9lmfByxLw56VR2drYxgr1797YNLIho4ABD8hzIw1PSuHHjLI95hTB6njRpkuU5L0tIvwiSSd7GjRstj3meNWuW5TlPkNgW4YmNPEAlzDvqdjB75PHr7EU4Tx7lnU0S9ZC3YMGCJ4BuaSPGjltgT8Uj1l5mZmbwqPSSByWePIlUqlTJ3u0FUVhQUpydJA9KPHnyVNJUsWLFJ4zisPXo27eveQiEAAQwzYARvPAgWYEp7tevn52H2XUvQCQfuB09cOCAqWjhvhSpCoADLz8w1YAXvH0BSgAVgAzKIJVB159zgBIXERwmGmCCRGbYsGHGAMMkkVdevIbBxK9bt85AIASIwCsaQMMBL1TdmFPycnNzLQ/vSAA+8gAyEBIAwCB53DOIbw2AhzznhhZp1v79+y3P7aohecL9LHlIppz9EICUPH455vvFefIo7yRW1EMeLmRLs6QEgPvZZ58FjzwVRdxfwGhpJw9KPHkKfDN5PxdEYUEJH+2idFo9KPHkyVNJE9IPJByOAA/kubgEY8aMMfsAGFyAA+8ujOhQy4J5BpDwH0Z0zpw5pvYFoCHuAUwq9irs+vOLyhVMLbuuSAZiY2OtHAAE6QpA49y5c/bLNdQJQIFp510IEIIRT09PN/Uux4h78vQshH2UA9WeiiY2JtioKO3kQYknT0VTWFDC7lJRD48HJZ48eXrVhNoNajhuR52dbyQY7HwPHjxYFi5caGAAWxN2nGFYsEEBsCD9QFrCbj1qPUhKUOdBzQjpCjvzEOpbgA1+UQ3jWjw2ATYgynMdYGfRokW2M4+6DQCGfiCtQX2oMF/sZYkAaB5geSqt5FT/Sjt5UOLJk5iNJ9/mgqhA9a2iDO08KPHkyVNJE9ILVKiel4i3hOpRcYkYTey6YoviY0UE6P33388DbJ5KnlD/c9HKPRVNqG6VZnU8Rx6UePIkZhPKpmBBFBaUoIKACLkw8qDEkydPJU0VKlQwtatXRahvlWYj6NdB6P/6OXl1hPTv3XffDR55KorYSCgLkjwPSjx5EtM4QJugIAoLSvCo8tFHHwWPwpMHJZ48eSppelFJiacXJ6TmSM89vRrykpJnoxEjRpgqZWknD0o8eQo4NinMXX5YUAKSKcrQzoESXDyiT43HFVxkoofNzgWqD3iiwUPKsxDliUWA4Sr1knhJs4NZ0sSHFylR6IQhGi5sHPSrMFU3Nz/O00xhRF20RZsY9L6oSJpxoHtP+6GB4OhvYYvCkydPnhxVq1atUG8pnjy9TkI9c+bMmcGj0kselHjyJOYEBlvNgigsKCkOffPNN+YGE680bdq0kU8//dQCLmIUijcaPNewgwHAeBZCrFO7dm3z/kW9JAzZAAslTRjBYvyKy0pHjA/9cufrPj/hyrJ///7mWz6UABiANm4AY2Anh8BuALeCCDCIW1N+MQQCjD0v4VkIw1+iF9M+hruMC3CC61PnUtWTp9JM+b1veXr1VL16dQ9KXiGhOs03xVP5Ig9KPHkS40mfGZTgXQbvMYVRfvUtAmINHTo0eBRQAYMZJsqxi3CMBABwgUccoivjnjN/0COY9rp16z7FkANWCG7m8ufOnWtqHbgARaqD9w129HDticQDX8h43SEReRmGHFehblyMEVeioRIEJDz169fPi0EAAbyI8kw5gBYxC+g74IG+MOa33npLVqxYEbwiIO2hLcqGBlDDuIe+MhaAFh+eevXqGZAjD2kKc0LgypUrV9rHCe8+XNOoUSMbh5sv+gjQob94HAoFTbRPcLkffvghz387HooGDBhg/aENmD0AGHUjlWHO8B5Ef7hfBDajHvT5AZf0ES88zJEnT6+K8scp8fTqiXeLV996deTjlDwbuRg3pZ08KPHk6TnVt9hFf/vtt4NH4enLL798ApTAuA8cODBPzYoXBeCCgFrssiH5YPceaQFICWkArsGaN2/+hBQEaUWVKlWkYcOGFg+AXX2YfxLXoR4GuYjLiG6/++47M3RjR7Vly5bGOCMlAKTAcE+YMMECm+H2E886qC8BIvDMEzo5xCBgVxDGnLZJVatWNQBC0DbaY25QiQIkAFgYH+Aj1HCHOZgyZcpTUSvpIyCJOgATRIVmXLgbpS+owNE/PN0AWIjFgKSFsQCiOAcw4z/tA1wAZvwHYIUS9TJmgAzj4DrmAgaDe8G8MteAE/SXATnMHW0DYJh/xkb7zDVtAiwBYQ7oePJU0sTmRmHSRU8lT2ySeEP3V0dsgLmAkZ6KJr7PfK9KOwFK4C88eXqT6bkM3WFWizK0yy8pyQ9KYLzZWecFyweN3XkY3549e9ouUPv27Y3h5RoYfkcACphmdESRTMAgoxrFDj/RmJ3kAUab3XySs3+BqScf5h+phNMzpZ9IDgA/qJaRAEf57TwYN1IC1LVom0S8AyQF9JHrAFGAI0AZ5wEFtBkqqWBXEQZ+3LhxwZwAIeVAogPjzzXOgBfJERIRB0oIygagoH4AiZtngAdAB5CHV6KmTZtKx44dDUygZuYIoOUkGkSVRkqEZIm2ASvMORGZIeYIURqSJV7ujmgfCQztA74g+sPYPYPi6VURNll+vb1eeu+997xL4FdIfEOLcsnv6TGxNl0w1dJMXlLiyZPYM/DMLoGLQ9h9hAIXdtDZUXegBAYWqQDMPAlmnh03HkykAOwEIeVAQhBq0M2uKJKSUBUqCCYb5htVDqQw2LSsX7/emHF2+yEMugE7WVlZJhkAeEC043R0Dx06ZCohnHd9dXTq1CnbyQi1KeFapAqAI/oFg47KGBIUGHn60qRJk6fU0AA89AsgwVgpBxgA2ACyUG1jFxgCMKEmBZjC9oO2ACfR0dEGJDZv3mzlABBIl2DUAHmACQJdkh86X0gyACGAKeaCOaVdJDIAH4ChE3cDJrknSKCYX8ZEcDp2nqiba+gD88Y9pq/5582Tp5KiWrVqmUqmp9dHbPqUBZer5YX4/rDuPZUvYvMRNWhPnt5kQnMJfFAQhQUlqCfBiBZGMNw8ZI5g1gEJTvcYpnzt2rW240OCOUcSwS4+dh1ISZAWwOyG6isDYJAGsMMfStg3wKxjBwHYAGnBSCM1ADhAqF/BqBNJGdUjN3DaQLWLOmDQYbRDgYcjjPIBB6ESFKQWSCoYA8y6M7wHTAGyAAgw6q4PoYS6FICGa1DxQn2MPgDCmAP3ocf+BIBCv5kzgANAhPsASHAxY5A+OTDBtc4uhLnI7wgAYEKfkGzQPuCD/uAVjXwXEZsdJgeOqJ+y1MnuE/cFAMN8kZgbH1DO06skJJdF2bd58lSeiO8cqs+eikd8l9lkLM3EtxT72lC7W0+ePD1NYUEJDPvHH38cPApP7Lyj2lSW7AuQtiA9ADz53f6iCQACAETK48nT6yCAtFdleb3EBgwbPp5eDcHAvqg7+DeJ+Kb//9u776DLqipt4NR8NePUVPnHOFM1Ok45M44zUzqmUccsQRCQqIKAiCjQklQQBAHJOXSTmtDdpCZIbMkg0GRJTVZyTgooIEFQknq+/m3uag+3zxu6+73vDe96qnbde/Y5Z+999tlhPWutvQ8rfy+DGzslrM1kEomJDIr24XZzbCQltO6xoHwoWKjChSrWLvQDDPap6U8k+gfWPrVbTRPji0996lOpmBhHsNizwidGB5uw8C7oZfC4sCFP+6cDEomJhjXWWGO+TaDqaCQlrAijWVzKxYtJkvk03IEWBoSO9kXnCwsr+y06p2myCP76669/k3tYIpHoH1B8DLcoLtF5WDs43G4pibGFLYGXW2651lFiJMSHmnsZ/OjTdSuRqIpcbv33UGgkJRY42053JNBO+EaHDydat8HCYs0EcOuKb4AYMKyLqH+zA+mxsJylhRahvsYDQUFyIi3uG9KShnva4Tpp6/R2BbPoXJ52v7LwPV0PEon+hM0zDGKJxESBCduuh4nRwdb6XKN6FVxVbNtvTW0ikRgejaTE7lJ21xoNbNO77rrrFsvE/vvvP2/RtDUnAhIxderUshOXjsmnEsmwoNpHCO2sw2fZrlqIjMXz0rP7k0XiFn/7MKNdK/iNMoHWP1QIFs9b4B7XheuZRe0WwNkGN5FIJBILDsSwfXfBRKJXYPfJXv0CPnct3wqLHTQTiYkOG0PZ3GkoNJIS7k6jXcButyimZsTCBwMNEFyoTGTcshTAhwL5hiMZa665ZrGC+Bq5jxGCXZ0sqBaPuCAyrB++wYHYcBGzFS7Y6tb3T5pcsvjiuidMQ7biRVSarCuJRKL3Yac7uxEluodlllmmWLMT4wNW//aP4SaGBnfz4b4Q3S1QvvLWqO9SmkhMdPgOIbl+KDSSEq5SrCWjgfUk3KYQEtv8IgU6YZAIH+TzTQ+dE7lAEnw7g7k1Fk8iGu73rQ1pxHoW3/UQ797QNNgeVDpNpMSCN1vvJilJJAYDPhJKaZHoHliecwe08YNt35dccsnWUWIkIHFjtSZ1rGANFtmHp0YvEqZEolvwOQseUEOhkZRwwVp66aVbR8MDSeDTybLhq+Qf+tCHqv/5n/+ZZ+73bQ5bB1ssyWpi1b0O6/sZFqGDjotoIEPcvFhZbPPnmvhoX3yokZvXXnvt1UhKkA8uYbHdmIEKqUlSkkj0J/T31NJ3F9YK5hbq4wfrLJu+e5VoxpQpU8rHmXsFxitu7VzTY11sIpF4A4wOw+2C20hKEIrRLrSzM451HM8//3w5tnMIH0rCBHcqkB7iwmTj44g6KktMsCWWk1gHgpggLtzAYi1IfYG7xfUsIE2d3eJ2A4I0aCdYV3wZPUlJIpFILBzWWmut3KI20bPw3QPeFt2GbyqRW/bYY49Re5okEhMN+MKZZ57ZOpofjaRkQeDL6RatWzMSQA4sRmfR4D4VXy4fTyAmLDPIUH6IKpHoT3AHvfDCC1tHiW7ApicUQ4nxAUt/L+8mlXgzKEIPOeSQ4m5ujW26OiYSQ2Pbbbct/WQoNJISlgWuWIsKu18xYe64447FHeu4446rLr300mI5QRr66WvwiURi/LHBBhvkV5ATEwqsUuuss07rKDESrEXlodFpcDnh/cGrY/bs2cUqwrV85513LkJWbvmbSIwMXkzDfTuwkZTMmTOn+uxnP9s6WnTwR6Zpi/UgXMNs4YesCPwvM2TIkKE9WOiOmDSdawoEBJts5LgydiHrcnzDFltsUTaHaTqXYf6wxBJLVB/84Acbz41VCFmFNcQCdsEOaXYazXUjicTogQvYlGooNJISHxs8//zzW0djD+5d1ovo0Bay2/LT4voMGTJkqAcayMsuu6zxXFMwlhhTfIy16XyGBQ/vete7ila46VyGsQ9cohekzU/0QFbho950biyCXUJZr2ycYxOC9PBIJBYePsw+3BqwRV5TkkgkEp2Cj6h2UkGSGBl2RqSoSowPuCP5tlcikUgMGuyIW1+D3o5GUsJnkskykUgkugnC2XA7dSQSgwaaeWQ8MToYH2bMmNE6SiQS/YxGUsL1Yfnll28dJRKJRHdgQ4zcPa+7sBZwOB/gxNjCGoX84N7ocdBBB5V1OIlEovfhg+tcrIdCIymxpV18/DCRSCS6hSuvvLJ8xyjRPXz6058u2vvE+MA3v/KDoaOHjzHnt8gSif7AGmusUXbiHQqNpISWJj58mEgkEt3CqquuWj7QmugebMkcH7pNdB4/+9nPqi984Quto8RIsHGOr0QnEoneB0WjTa6GQiMpoaVZc801W0eJRCLRHey2225lJ6JEYqLAmk7f9UqMDtaT2K43kUj0PxpJCX+vDTfcsHWUSCQSiYmK7bbbrmyHmkj0Io4//vjy3ZBEItH7mDJlyrCKxkZSYqGdDx4mEolENzFt2rTq+uuvbx0luoHllluu+sUvftE6SnQajz32WHXSSSe1jhIjwdehh/tCdCKR6B2sv/761cknn9w6mh+NpMR6kltuuaV1lEgkEt2BL7rThCa6BxsN8NtPjA/4XC+55JKto8RIePTRR6t77723dZRIJHoZv/rVr6rnnnuudTQ/GkkJzeRSSy3VOkokEonu4LTTTqtuu+221lGiG7AbVG5RO36w/fJFF13UOkqMhMmTJ1ff+c53WkeJRKKXMdI2/42khGYsF9qNL3zh0pd8wT7O3/3ud6s999yzevLJJ0vchRdeWOJ23XXX6pe//GWJu/TSS0ucD13GFs5XXXVVidt2223naY/mzJlTfe9736u22mqreftDs4R9//vfL/u733rrrSVO/q7ZfPPNqxtuuKHE3XPPPdU222xT0rzmmmtKHP/y7bffvsRdfvnlJY7Lwc4771ziYkK1TePuu+9e4s4777wSZ/tG/r/i4qN4WPP+++9f4k499dQSp+FOnTq1xNl9iUuhraq584ibOXNmEZRee+216uijjy5xFjxq7Ez5tpwTd+ihh1YvvfRSSZPJUJwvVMfucj/5yU9K3H777Tdvh6Go/7322mve9xkuuOCCEqf+MX2I+rfIMrattXOOOH74FqzCddddV+p/6623ru68884SZ4tV9b/lllvO2/6zXv++FQR33333fPVv54qo/yuuuKLE0RZG/V988cUlrl7/8VV0X+bee++9S1zU/7PPPjuv/pEAUP8HH3xwiavX/+GHH17i1D8Xz1dffbU68sgjS5wvtbbX/2GHHTZvZxwuKeKa6p9gEfV/9tlnlzj1r2yJ7mL11Vcfdl/5RKKbmD179rDuIIlEondAFjr99NNbR/OjkZQkxh+bbrppEcKAQEigJECGhvLFF18scb/5zW+KIA6E7YgjHAIBUBxhOtgoYVIcglOPcyyEa4Zfx651HlwvLXEhXMor4kLgVyblEKesoOyeQZxnirjYVz4EU8JtxNHKAsH2mWeeKXFh6hNHcI04grJAcBXn1zE4L8714W8sbXHSjTVTyiBO/hG3MPUfcfX6b38nvVL/EdcP9Y9UcWdJdA++qk85kRgfIICUDolEIjFooEQPJWkTGknJ448/nn7c4wzWBdaSRCLxF6y77rrVrFmzWkeJbiBIZWJ8wCK68sort44SI4ElmiU7kUj0PkKZORQaSQl3n8997nOto0QikegOuMqFRSfRHXAlDEtbovNgEeWOmRgd9t1332rjjTduHSUSiV4GN3WeEEOhkZRwr+CnmRg/8IlNbU8i8WZw+cqdn7qLxRdfPHdjHEdwxQyXycTIsE4v1kAmEonextprrz2sJ1auKekRbLbZZkXjk0gk/oKNNtqoOuuss1pHiW7ApiexuUai87D75VprrdU6SiQSicGBTXKG+/ZYIymxa5MdfxLjBzs1pck+kXgz7CKX26MmJhLshphb3I4edvCzK2Aikeh/NJKSm266qVpxxRVbR4nxgJ2HckFpIvFmjLQoLtF50GzZFS4xfsg2P3rYuvwHP/hB6yiRSPQybAf8i1/8onU0PxpJCR9u351IjB98u8Pkn0gk/gLfcBluUVyi8/j0pz9dvquTGB/YWju+U5QYGerLduiJRKL3seaaa5bvmA2FRlJioZ2Onhg/+PDd9OnTW0eJRAJ8uM9HFxPdg49x5nwwfvAB1mWWWaZ1lBgJvtWUu8MlEv0BW57Hx76b0EhK+LQSBhLjB9tA5i5DicSb4Wv93EkTiYmCBx54oDrkkENaR4mRMG3atOpHP/pR6yiRSPQzGkmJLfZ8YTwxfvA9hjRBJxKJXsNWW21VBOVEohfx4x//uJo8eXLrKJFI9DIsVbjkkktaR/OjkZQkxh9bbrlltf/++7eOEokEnHrqqdVtt93WOkp0AyussMKwCxMTY4tHHnmkOvbYY1tHiUQiMTiYNGlSdcopp7SO5kcjKfHBsuH2EU6MPY466qjqjDPOaB0lEgn4yle+Up144omto0Q34Bslr7zySuso0WlceeWV1VJLLdU6SowE/um8OxKJRO/DTo7DrQFrJCUIyRJLLNE6SowHcuvTRGJ+XH311UVznOgennnmmbL5yWhgp7RjjjmmmjFjRnXBBRcs8phGQWaNozV3EwVPPfVUdfnll7eOEiNhv/32S3fzRKJP8Nxzz1V/+MMfWkfzo5GU+IjfIC+0u+OOO6o5c+ZUt9xyy7CTpon4hRdeKN8QqePVV18tW5VK4+GHH27FvjGBjlajKF872rz44outmDdD/G9/+9sxIyoagcaQSCQSC4IvfelL1e233946Gho2JPDRXaSEeX777bev9thjj0JqgIbMmPn444+XY99lMibZfp4irP4tFJq0G264oTrzzDOLwJkflk0MhUsvvbR8QDGRSPQ+jOezZs1qHc2PCbWmxOToy68+tLTDDjtUm2yySXXQQQcVMgEIgO0F4yOGs2fPrnbcccc3TZYmUR9rMvnuvffe5cu7P/3pT0u8dA2QAcSinVRIH+Sxyy67zHPZQmbqH0/ksmJSb9JQSgMxakKk4dd1kb9tPffdd9835ZFI9Dp233336rLLLmsdJboBk8i9997bOhoaxj7rT1hIwMYd55xzTvm1Lsi7NAZ973vfK+SEUsaYaSG9YP96CiME5Pvf/36JM/4ap4PITASoqx/+8Ieto0QikRgc+PxFzBFNaCQlfIhtxTlIYO3wvQOm3jowNqRD8J0QZOPAAw8sfqomxI9+9KNlAg3Yhea73/1udcQRR5SJmluBewlO73//+6spU6YU87tF6ybTnXbaqeyshfjsuuuu1be//e3yyyVlzz33rE477bTq3HPPLUSnTn5OOOGEUpY6KWG1Ud5tt922lI2lh/8xzSQgHu5Tdtskut/z/vrXvy7l22uvvZKUJPoK3/rWt1IL2kcgUBvzNt5447J5B2sHBcrWW29dwhVXXFFtttlmhXA8+OCD5ZeLHhjTWEZYWYyRYIw1jk2kj/lee+21xTqVGB2uuuqqMocmEon+RyMpIYR/7nOfax0NBnwDhFXkvPPOK8cmT5MgawXh3jlaPpOkxbVIx/nnn1+sFU8//XS5J2CCPOyww8re6CZaH4NhhUFWCP8mVeSElcIuKtL2iyCYoGkDkRKMcfHFFy8kqP0bJbY53G677arXX3+9FVMVi4yPasnzG9/4RtGmmcBYbBAfZTZAy2fllVcuz7LiiitWRx55ZLH6iE9SkugnINRDuTgmxgfGGAqRkYBc1C0qlCNhFTGWsYr4ki/XYBZirq/G39hu2FaRxtyTTz553k6Exlr3DoL7lvU26mSkrd/NBaOxDLmu3bV4IoL1DQlOJBK9D2sEyatDoZGUWMtAozVIQBBoU2jxWDJYOKwLMZixNLBUsEDYxYMAb4I966yzipauTkpMFvWdyWxZyhWMdYllBClhkUE0ALk44IADSh4x0d59990lIEWIDdJCo1gHEoN81EkEVwiaYy/1uuuuK89DYKNdpH08/vjjixsZ8oHw3H///eUZCBXMZfy7k5Qk+gnGoom0yLkX8dnPfrYobkaCNSWsv8Y7VufddtttngXYV8qRDuOleGOssdT4aiwEYzPFC7KyxRZblG9PGLMoe4abxHodrOQs2JRI3NI233zzYiEfagcarrwjfUHfvequbsWfqLjnnntG1T4TiUT38bWvfa3IqkNhQq0poVkyGbIg0OAJ1pjQXNHEmSzF+aW9szc/f+pwLwCaW1aQ9ddfv1xr4jSpShs5MRmbbE3A7kU6TLIsKe7baKONyqSEWHCxYtmQD21PfeI1Oa+66qqF6EiH9UUadrURZ4LzARqaMmX3TFy5gDaOhYf7BOJz3333FRLj3iQliX6CPc2R7kT3cOihh46aFFDgELgpZriT1i29xjzxxinjkLGL4iTW2XHnCgUQSzKLyY033lisJf28JTGB+fOf/3whbeBZwv3WvDFz5sxCvMLVlyX9U5/6VCF31iyaVyjSKNZY5c073NtWWmmlN81NiUQi0eugoDGuD4VGUkLIJtAOKkyCBPx2bZSJkma2PgFyt2pabM4iIY26Ftf9ca8JxPn6pAzSj/RiETq4rt0Ub8cs10snJm4YbteugLTa86/nl0j0AwhkhNtEol9hDqFUokyipKKcuuuuu8p4TGNorkXIfKvKeUTj3e9+d1nXyeULMadM4xrH0kKR5frVV1+9/J/oYH2bOnVq6yiRSPQzGknJzTffXK2yyiqto0QikUhMVFirRjhOLBxCOWRdDlfaiy66qFi6zbNcba3746rL2m0zEi7E1glyLwYWE98t4RrsvlAucQdmAZ/osEZJ/SUSid4HJcJw7paNpIS2v74T1CCC5YFbADctrgK9sGCQpYWrlzKNxo/ee2q3xCQSiwKDhQXJtLd81gk942lhI8DZjCLcDJl5Y8vudmj/1krxKV9UsDxa9zDSIuSJiM985jONk4h1cGO19pDLEiG9F8bhsYZ64prFTZf7L7LBJVffOvvss8tif25sXHatG2RF4ebL3Q2cv/DCC8u6RWsFXeN9LLfccvmRxbkwPhg3EolE72OttdYqG54MhUZSwtzMh3VQQeAndK2xxhrFHG4CYP4daXFhJ8GXmOaLb7EycVuxQ9hQQEYspqd5SyTGAnZEIixxlyIkEZ74vvNjByTANXaeI0SC9VOEeWsFbM5A6ALCpY0YXBsCLU2xtAxI/Ov50xOwXOOXosD3eQjBtMlgl7lvfvObxe++fQcoi30JbAQzaxGkefrpp8/brpubpGfgagn6WGifERn58m91nbJYoxXjns0snPftjSBl3GrEuW4iAfGIOqyD65Fx07smSGs3sWuhtiIuds1C+gjnyKZxVluxni92mSKwxwYiznvf0o/2xFKj7rWdfpubtB/tDqEwtnPR0ifEqzuuXRb2G/O5ThvTP/CBD8xbx4Okx1yg37GWmCvUofWDEx3Ggab2mUgkeg/mgeF2U2wkJQbMQd4nnXBD+K/veGWgN6laVGs3LMJKfEskdugiuLiXiR2RYTY2GNJgucek4psKhCumdpMP8sMf2ERrEbw41xH6AtaOEK7qfrG0ZjTWJiYCW5TJu2HmN8FZbG8CQ7Jo3KTL1M/KZfKyeN5EPhaa5MRgQzu2gDY034RIghQSoi1p99o7oVNbcy3Ntu2mbR8ehIY7Cq0lgVKbJVC5lsDpq+A+kKddclFBWlynf9g9jllXWzf2sJC43m5zrpE3glQXPpRRWsiIfuA+mznoS74HxOph0wo70FG0SEMeBGD9Ut/Q7/Vn1knpO0eDrd9baO1X+gRtedFY65fOhTVnokJdWveA1CGPG2ywQdltcN111y3vFMG0EQgFCiLn44lIiLHLf+e0GRZr9el9GO/EB+GRB4Hce3SN9ue/ewYViIb1JYnRQbth1U0kEv2PRlJCw2WHqEEF0oBorLPOOkWAIWTYLYs2zoTHAsEkTBuFSNDMEfbtKoMYmFAJ/hYZxqYArC7qbOmlly6ClXvXXnvtcr8JWZ0iEbYdNuGE9hhM1O6tL1qk/SEQ0SxLy0SNXSI1JnsaRMIeYYx2mCmfFs43VpQPOaJhtiCyaaF+IlGH9qQNhkZWe0Uw9BHCIMsD33ftT/+wMxytNQuJdgqEd/cgE1//+teL9te1+gayoM273+YNoO+43rax+grNr/aqDxL4KQJ8O0gaBNkvf/nLpVyBICUIjH6CVCAfrCa+beGZuHfpO/J23j3IiZ3vwLX6JMuMtKSj/9TdYigN7IKEICFaCA8yI62JAO2irkQJBClRPxQi8ZVe7YL233jlPXBDUrfaljHOzoAUPCAeoUUcEdxwZ6rDeGr3KgvEEUgLvMN6l0gYn4wRiUSi92Gbd0qrodBISgYdhAmWDhOi7SkJ9rFnvK0WDXK0e4QtEyYQkJAJwpUtMgFZIYARWAg6tKwIg0mYFpnlxaSMtBDqTMjS41NnAg63EJM6oatuKQmNLCsMUkIDSchCPLjLAO2QNAkBCA/Ljzzdi5TQPk8UwSmxaOBGQuDT/kNgBL7wBHhkgTBOENW2CaN+Z82aNa8/aJcIQCg1uOAgA7TeLCXIg3bOasi6p9/oU/ofgd9/FhR9RnkIo+973/tK29dPpRdbxoK2rczavbwRHOnSNCM/tO6u0U/khUCBsrsPWIFYTd2vv/vug3QIycBa6nkI3UFuPDNL5kQh+z7E2uRKGpYLSh5KnbCyeY+UN6BtbLjhhmXhNqKJuBrDvBv1h7hS2lCsUOAghxYtGxudV/eIivHNWKcdSNu42E+geGIZpNiK0FSngMxp68NB/7DVO6uktCfyWihztfpIJBK9D7K38W8oNJISQsMg739OUKEdbX9GkyYCEBWGXBCuCPcElvgib3zQy4RKiKJVdQ3BhUBjsqA1JOAhJCYY7iGEO9dIk6av7v5hkjUpS9M9tIlIDiArBDPgFmaCps0lJJrk3at8SAyhj5CHmBDu2v3wE4mhwIKhrRLitUHCo/akHZr0ra/QfrVN/Yf2nHsWwRS4PbF6EFIRBcSAdYJVwbUIPEVAbIsdVgftG/khbBLIbJ2KvGu7X/ziF8vHlpTFGoQ6yZaP/BAFZIJiACmRhv4QPvkUBSyJ4fLDyomUTJo0qViCCIsUDARrro76r+dTB/qj59d/9XvPo6/rhxNFEFJfLFDt4OrqnVGqeA9h6TVWIW6A9C255JKljgHhZRFbb731ipuX8db93rd4c49xUhtQz4gkoZvixbvQDhCdOjntBxjbtWVtNIJxWhsiVFOKmVusxdHPrCmpKwec14diFzT3qW/KAmkFCexH6K/6VvQ3fWs410jElZKvHeZcc6A0tJumNluHNtlkAUwkEp2DsdvcPRQaSYkJfvHFF28dDR5o4QgvTZpOE6SJIUCAIqSID/gvru7fTqgRFxOJPOykZaIJi4gX4ZrhFmqaZAy49ZcmzXqZWEwIWJ4hBCMDsAE2dk0z0TkfeScSowUhUBvUdtuhfdX7g3YXbV6bq/cT7Vw6YYXUVp0PgUPblIe2LB1BnH4VQifFACuLvtQO18pbvoL/4qRfz8dvu4DiekQjiAvoL3GPMih7fecvJElcvwnEiwrjTXv9gTjjUryHGE/F1a+P91KHd26sC7gnxjjXGsva142I017iHfUTkP26JTygbhF/JJpQjoxxFebOKF47RJQJ7RQCiDQCp34RHXM16z2rVT+CJYzyjHJDf2Q9osyLncc8u7qjZPPeHVvDxvIW7c24wvNA/VgH5xrKDwpC8yg3URY2ykOkl9KR9Zb1NNwAlUM+3Eq0P5Yn1lP5Gg8TicTYgHV3gUmJycBAl0gkEomJjaHctxKjB5e2T37yk2VhfwQWOKTE//CxttaRpQAZYZXj8kgoJhyzCLLmiSdcs/a5lqXSGp5+BIsGKxsgpVxCbSqBoCAFXD2QBy7PLKuUAja0YC2jWAD1Y30l4hGgPEHqeBIgKIgPyxLC5z93QZY69Sue5U4a1r95V6yA8kSWJpoSIpHoJBbKfWsiwKAvxMCWSCR6D9y6JtoWvL0GblSjcXMxlrImxdjKQhaW3IUBTXhYYvodtPAIRTu43rKCELbVn//WbRGYWVYI6YiHfhAWFO6T6pawbR1PP5MSax9jfRfXTM/i2e2oxfqx2mqrlTVgFrJz4aNl5VqpTgIsslyirUELsI64jvuge7kTsn4gOOoabKjB0sRd0CYa1o2qY1Yn74ArWMoHicTYwhi3wAvdWUpid5pBQ/ib00jRUNnpZbgJl39vu38qky9faIMhjcpwFTwacG+QXn1QTSQSVdlmNjabSPQubAhA22zHv7AEEDZZAhYW1utx3ePKQ0gdzuTf67AeioBNCI+AcLAIIBnWWyFh1mGZe7kocT+yNovXAqHbGkhWEhp9cw83JxubIC/ckfoR1sggAp6B9cK6EPOzjSY8r/oQbw42PyJjNK2sJnX3a5akWJeGVCAk1pIhxeZ4xMY8y8JizRySYhc36+BYWKx7k6d7uHlJg4yQazITifFFIykxEQzimhIDuQGqbjoy6NPAAO2eRZqYnMHRehI+vMsss8yb/J8NgHaIMZgxyRskDZYGM/fS8PBFp6WhcTEQGvRod2xr6Zr6bin83/kTy5vmjFbNJMxH1j00YsrNjOwZDMi0PHyKDZq0OTRM8jD4ukdc7ChkQoy1JolEP0Gbt9Yj0T0Y54b6qn6AUE1wrq/RCVDiGAeNYwRpli9rArjXuJ7CRx7caoyDBFDCJHclSiHCqbGwnwVE2vnYuTECK4d65Rrn15oJBMxYTTFo/jAnIWPGdZp8ayZYAcw3ziN90m5ac9UvYAmz6DzqhfwRUDfikLggpeZsc1xdUQjhdu561wSkEYpHYwmrkqBdxfbk6tV9lIzSNQ9z7aoTn0QisejQNxkHhkIjKTEQDuI+8CqDNoXGBFg4COxIisGKoP/Vr361aPl8kyG2qaStqU+IsdWvyQARsGuMbSt9I4QWyy8yYCClOaSNMeBJ16Tj1/UBpIRmRzmYk2nJDIi0R9IzSCNB7lEO74a2x3V2cKHVMZmbrJAeVhekapVVVimCgvK4P4W7RL8Bee9nDfkgwBf2EYThYHGxsdNYadwSbJtM4DTG2hbYeBm7BhIUkRTCNpccY63x2VhHEUQJJM5YxufffQTxiQAKpYm8xW8ikRhcWKsVhoAmTKg1JVwMTJoEeWA6t8iOP6lJ0FaCLBK0dsy4iAHCwTJR941GZpAC6fl2gS0KY5tLGhxmYJofpIS5na8sIuFaYJZvJyXIDe2NhXl2YJEfYmFyp62hAYo0peM/8zNtm+NIWzwrC3M+/2PlEWeCl08i0U/Qp7TdRPdg7BlpByIKEdsr256WtlkIbTXLb0xCxi/jExgnWXiNSxQyFCvWr6y00kplPLbI2LU02hOJlJifKJISo4P5sd1qkkgkehPk3OGUXI2kxPZ4NPSDCFYLFhHkgwvBVlttVSZNVoQgG+Jp6Gj2TJz82uvrTlhKkBsTdaTBfUG6gjhkwC4isVMK8sCKYfBEShCFgEmZ5SU+TIeUiDMpIyU0xfyMkR+TPbLBlM8KwmXMBO5+ZWZxQbQQLmXhLsG3W1ly4E70G/RTLjyJ3gbLB2sINxgKFYGwSOvP2hykhLIkFCgsvHY64mbKeoLEICDLLrtsITnGOusNjJ3WXUwU/351aU5JjA7c/bSTRCLR/2gkJVgM68GggsYNOTEBmgDq4JvLqhFrMLh6EfDrEyICw9edDzCfVK4LwC+YliuOXcc1wQSNZCAn3Bn81l1SxHGZc43dZpjuxblGvHzivLT4EgvSYYXxS6OISCJQLCzgnPJYMJpIJBILA66nTWtF6qCgsVsRYuLDsgKFCGsyBY0ACAZFD3DLomgxTlKouIc7F3cvCiGuXBY3G+tYro1/iUQ7zH2UcYlEovdh7TSPoKHQSEpo1HNv7vEFArGwaz4syqN15ELG9QyhSSQGAZQH7R/RS4wvPvvZz464piQxdjD3GscTo4O5k9IukUj0Pr72ta8Nu1tgIymhrbdVX2L8wBcbsUgkEn8B33pa8kT3wNo6UVynegEIyVJLLdU6SowEHgqpRE0k+gMUXBTpQ6GRlFjX4Cu+ifEDNzFkMJFI/AX8xX35OpGYKOBCbM1gYnSg0LO7ZCKR6H80khKLDPkHJ8YPFqsPxx4TiUSiG7CF+X333dc6SiR6C3ZuQ0wSiUTvw+Y1se65CY2kJDH+sJOWXbkSicRfYGc8lttE9/ClL32p7C6YGB9QUFnsn0gkEoMGSq5Zs2a1juZHIymxo1TslpIYH9iRwLa9iUTiL/AtHi5cie7BDoL5ZevxgzUlSy+9dOsoMRLsdpmKi0SiP2BTiuE2dWokJfFV8UQikegmLIob6cN9ic7CdsC53m38QCloO+TE6LDvvvtWG2+8cesokUj0Mn79618P+yHcRlJiEsqFduOLSy65JCeiRCLRc1hhhRVys4FEz8L3xnxoOJFI9D4mTZpUvuo+FHJNSY/AV9x9eT2RSPwFP/rRj6rZs2e3jhLdgE1PfEA2MT649dZby4dwE4lEYtCwzz77FCX8UGgkJb7CO3Xq1NZRYjzgWwA///nPW0eJRAJ8IfzMM89sHSUSgw/u02uuuWbrKDESLr300mEXziYSif5BIynhRrTkkku2jhKJRKI7sCjuD3/4Q+so0Q3Qaj377LOto0Sn8eqrr5Z1JYnRwa6VdvRJJBK9Dwp432IaCo2kxBdSb7jhhtZRYjxwxBFHVGeccUbrKJFIgEXuwy2KS3Qen/70p3N3o3EEEp7frBo9CDh33XVX6yiRSPQyWIGPO+641tH8GHJNyZ///OfWv0SnYKtNH6qE3XffvXyTAe68885CDBOJiYgnn3yyuvfee8t/vvU09bak1S+G20ow0RkYl7yTROdgdzNzwYsvvlgE7HXWWafEW8vz2GOPlf+JRCLR7zj99NOH3TilkZSY/C28TnQWXszb3/72au21164OPPDAasqUKdWqq65avfvd7y47oCUSExEXX3xx9ba3va36zne+U3Z+Wn/99atll122+uhHP5puLYmBxEsvvVQtt9xyxSrFFekLX/hCtcUWW1R///d/X75hlRga6mfy5Mmto0Qi0c9oJCV2//jqV7/aOkp0Ervuumu12GKLVX/zN39T/dVf/VX5P2PGjNbZRGLigU+97w7oC3/9139dfoVc8N4dUJikO1HnccUVV1R/+7d/W9r6W97ylvK72mqrpdV8BEybNq3afvvtW0eJRKKXwfI+3OcvGkkJVwkLTBOdxwsvvFB9/vOfnyd48bdL17nERAch+CMf+ci8fpFbpHYPiy++ePmIZaLz2GOPPea1+fe85z3V7bff3jqTGApcOnPdWSLRH+AZdPzxx7eO5kcjKXn55ZerRx99tHWU6DS4cb3jHe+o3v3uf8+vVycSLcyefVFx4/rf//1wGZMS3cGNN96YQt84guvWW9/61mEXgyb+Ai6dvhKdSCR6H7fddlv1xBNPtI7mRyMpuemmm4ovd7fw+muvl0Xg9z/wQHXnXXdXN918SzXn+huq66+/cfDCDTeWZ/vud79X/Wj7HaobbrypxDVe2+dhzpzrq1tuvbW80wcffKhsM/qnP/2p9dYTI+GVV1+pnnrq6ere++6v7rzzrurGm24e6H5x7XVzqm9+a71qv8lT5grGNzdfNwBBv7j157+o7prbLx5++JHqued6y12n25bb559/oXr00cfm1s891S9+cVupr6Z6HISgTx9x5FHVGmuuVV119TWDOxfMHbfMdXfMHcfuufe+6te/+c1CKx4OPvjg8oHPRCLR+zCfDDenNJISO99su+22raPxg8V+sy+5tDr6mGOrw6ZNrw49fFp14smnVscef0I1bfoR1fQjjhrIcMSRR5dnPPa4E6oZcyekpmsGIRw+9x2e8OMT54aTqkMOm1YdPm1Gdcyxx1dXXnVVasKHwfMvvFCdd/4F1VFHH1Mddvj0Ek455bTq6JnHVdNmHNlY14MQjjzqmOq4439czTzu+GpGw/lBCfrFiSedUp71jX5xRBkLCG7W13Qb3/72t6t77rmndTQ+eP3116tbbv15qZNpM44o9XLM3PZ+8tx2r76a6nFQwsy5Y6LnPuromY3nByLMHbc836mnzSrzgDHtyLnHZ55zbvX008+0WsHoYDefww8/vHWUSCR6GTvssEN1/vnnt47mRyMp6QbmzLmh2nuf/apT5g5SSJFtEJll7dn++uuvVX+cO0mZqAY1/PGPf5wbms8NSvAOrVfiA/z0008X7eedd91VJuB999u/uv2OO1qtIQG0CZdcdvncfjG5OvPsc6r773+grLVgYXr5Zf2iuZ4HKUykfkEp89RTTxXXWSZuyor9Dzy4WBW7idVXX726Yxz7pp0Hpx56eBFUb7nl1lIfNOm2y31tLkkb+LlAmNvum84NWqCMsn7VO3/wwQern15wYbX3vpOLEsb5RCIxWLA+lCJhKDSSEgLjRRdd1DrqLAy+tL60JgSuV155ufgvWwBu1xECWIbBCiYh79Y79q698/vuv79Yx849b2gGPZGAuLEQnHDiScVf2uSd/WKwQ/SL3819xwRw7/y2226fK6AfVl12+RWtljH+UK7xEhCvm3N9NXXqocWNyfOrB/WhXpSjqd4y9HeozwWUkFy3KSePOOLo6tm573wkIMzD7eaTSCR6B/r5cJ4xjaRkzpw51Wc/+9nWUeeAkJxx5lnV/gccXLSEJiDWkaaBK8MAh7nvnBBuMtpjz326KoD1AkzMM487oZp+xJHFfUcnbqy3DAMfWMRYjXfedY+ytq4beOSRR4adRMYKd99zT7XjzrtW99x7b/mYYFN9ZBj8gKC8/tprxc2XouqFF4bfZGHfffctW4gnEoneB6soRcRQaCQldoAajw823XzzrdU++06unp4rjBqImgaoDBMnEL65dO2x1z7VAw8+2GolEw+XX3FldcBBU0t9pFUkA4WNjQ322Gvf6oknxv/L6j7qN9wXeMcC5oB995tSFnYj5U31kGHiBFYx7cD6oXPP++mwC2Ovu+666sILL2wdJRKJXoaPIZ988smto/nR1TUlXLZoQwhfaZrPoA2wlJmIZv1kaJ/DQQbLyMGHHF6dedZZRRhtqqcMEyv87ncvVE8++WR1wIEHVxdeNLvVUsYPNj3h799JXHX1tdU+c0kJq8yLL6ZlMMMbVsILL7q4mrz/gUVGSCQS/Y8pU6ZUl112WetofjSSkocffrjaf//9W0edAc0HjfiNN92UVpIMJSAlBLBLLr2sWAomIrgw7rLbHmW3o+wXGYQ3+sXvqtPPPKvsSDaIOPnU08oOhNp8KqgyCKzELOfGwyefHPo7JNa/Dqd5TSQS/YNGUmLR2FJLLdU66gx8n2LLrbYpbjom3KZBKcPEC3/4w++rm26+ufrRDju3WsrEAoHs+1tuVTabSNetDBFeffWV6qLZF5edicYbF1xwQbFgdhKHTZtRnXzKqWVBfdPzZ5h4wVjIWrzVD7erHnlk6I85T548ufrOd77TOkokEr2Mn/3sZ9UDDzzQOpofjaSEtuqWWzq7qBIp2WCjTcuiRtrhpkFpUYJn4ApjkgsfZROr+IUhQQZI6QxXVgOo/Czajjj/2+MGIRCYO0EmkZJrrr222uz7E/NjWOpgvUkblR23+omU6B8WJ4+ly5n2ZYH1UPUwmj45KAEpOfucc6sddtql1VLGD5/+9Kerm2++uXXUGXDROXrmsUlKMswL+rcxYMNNvjvstti2jL7vvvtaR4lEopex5pprVscdd1zraH40khKuVXbG6iSQEoNNJ0gJ4vGb3/ymLH477bTTCsEi2CAGNNB2swlBx7XyN/gZBCMN5yPef+lJxzdUHEd8XO/eO++8s5o9e3bZotC5etztt9/+pnSFuN+vckRZ6ulGnBDli8FanPP+t19fj/M/rhOkH/+HSjPi/I97Iz7SiG9mjGVASq697rrq+1tu3WopEwvqYNKGm/QVKdFO9Ktr55LJu+++e177am83ER/3iY9n9Bvt3H/h/vvvL1qV6K9xTaSpT8rTNz2i/UaeQr1t1++L8vRTQErOOfe8aqdddmu1lPGDTU+0x07C91iOOfa4JCUZ5oXo0xt/Z7PqoYcebrWU+UGWEBKJRO/j7LPPLvLwUGgkJW7wFd9OolOkhMBhAt1rr73KM/zwhz+sllhiieqKK64oa2W23HLLcs5Hymhh/SIRDz300DyBKMqDUDAz0f7SxHz1q18ta2186IygZGsz17lHvvJabLHFqmWXXbacs8Xtl7/85RL3/e9/f166d911V0nPoOs+ZRCkKZ5FJ8phgatyKF8IVeIRAuk88cQT5Rr3IF0ENfHSCguR8+oEobKzmnzjA5XxzK6VpryUxTMTNAX3uN5/11uM6qucO+20U/nvfvmMRUhS0n+kRJvQPj/0oQ9Vu+++eym3tq/dWBujPWm32mq0P9d4RkFbc4zQuF562uNNN91UzZw5s7Q9x+7TtpEVfcG9J510UnXJJZeUc461f31I25andF1robZ0Is+m5+jl0E1SMh5IUpKhPejToyEltK5777136yiRSPQzGknJz3/+82qttdZqHXUGnSIlBByCNZeDlVZaqTwLgkAQIeC8853vLOtlaFid22KLLapJkyYVk9Kxxx5bBsEQutddd91q1VVXLUTEtY5nzJhR0kF0WGKCKAh2qfngBz9Yfe5zn6uuuuqqssPAKqusUv3v//5vteOOO5Z0Dz300Oq73/1uSXe77bYrZTvyyCML4bErga8nb7PNNoUAeI499tij2nTTTcu2nAcffHARss4999xyvN5665Xt1b74xS8WIQy5Qn6QsbXXXru6+OKLi4D2+c9/vtp6662rH/zgB+X/j370o2rzzTevVlxxxeqss84qZGbWrFmlDjbaaKNC3AiHfMnF7bnnntU666xT0mUqP++886p3vetd1cc+9rHyXx2YQJrex4KGJCX9SUoQ/v/7v/+r9ttvv9LuvvKVr5T/3/zmN6sNNtigkHvtXPtGTCg+/NeWtSntXP9abbXVSj9CavQvvuIslAjNLrvsUn3jG98ofYcQgqBoy/qjfqQ961v6zworrFD99Kc/LW378MMPL31eX1955ZWrDTfcsJB47bbpeXoxdJOUeI/Gl04iSUmG9jBaUmJONr8mEoneBznANt5DoZGUmBgMBp1Ep0gJQY5AP3Xq1Optb3tb9Xd/93dFUCe00OauscYahRi4lqBNAOKqRtu69NJLV2eeeWYR/p1zDe3q5ZdfXlxECFGE8f/+7/8uQjxLi4FTngJhiGVks802K+myJBCqkB4kh4b3jDPOKELS8ssvX33gAx8o5Oiggw4qAh2/ba5e733ve8tLI3TZVcTHoT75yU+We2iPWWJ8qp/22GBMQ03LTPhDbi699NKSJ7Iinfe9732F8NBYf+lLX6q+9a1vlf/IDgJy6623FiIlTc+K8EhXWREP5jakDKHx3J75a1/7WiEroY2uv4NFCUlK+peUfPzjHy+LTs8555xCxBFepFg7P/HEE0sb0m70Mf1TX3ReX0Ei9FsWDe2PoKGtUSxcffXV5ZiixDX6EcLv2xnIN6GZle/DH/5wadPato+pId76l3gDoXJSEghJSkaPJZdcsowRnUSvkZIY0+uh6boFCcbNUN5IL/63h7HMU6jn209BmUdDSszDlA+JRKL38fWvf7064YQTWkfzo5GU6OCd3pe+U6QkAoEdoaBJ/ed//udqt912K9p/xIKAw6WJkE84AudoU6dPn15tv/32RSOrXMBdi6aXhvb9739/IRC77rrrvEEzJhDWCIKTCncNIY31BSkKjS7h//zzzy9rXb7whS/MIyXIAtKEHP3Xf/1XdeWVVxbtMWLhGqSCEEdA+8xnPjPPXK388iGgeR5f4t95551LfgcccEAhJYQyJm6uLSwrzhHKttpqq/KsXNuQD3UjT/EEQmVEsnzhnxWGJhpJIhjSaO+zzz6lrYzV5CkkKRkMUqJt28VPv0GKjzrqqLIQXrtlRXFenPtZU5AVY4L+hDTrrz/5yU/Ktdq8dqlv6XNAeJW2fsqSiZRE/tJESJBs1hakiNUEtH9pJikZPZDJGAs7hV4iJdqYvme8ZNUTwkW26frRBPdKz9hZnzfar4u5kGXQ+bHYOAJJl3fTuV4OUU8jkRLP5x0lEoneBwU6+WYoNJKSG2+8sWgrO4lOkBKDGM09awJLAQ0qLT+XDZpSghMhmxWE+8hhhx1W/vNLtx6ElhWRYWmguSXssFIQ3JEE9yIBrAksF9KUX0wwrCI0u4QxAtK///u/FwsLCwZicvTRR1ef+tSnyn1cSP7t3/6tpCWPZZZZpghZhKe3v/3tJR7xYb055phjSnmkyaUL6UAQxBPmkA6EBukh0Hkelg6kwnOy7iBbJlaWFMKayXGTTTYp7i4GdL/uJQiy8GgDp556arGOEAoJJosvvnh1/PHHl2eWLxKD9Kh3oemdLGhIUtK/a0pYEK0pOf3000v/uOaaawrZ/5d/+ZdindTn9U3tXpt1DuHX5vQt/RFp0bb1oVNOOaW0f+1P0Lf0acSDdUWfRNStEeNeJH9khgCo/2vP+hQiwjWMskAfSlKyYEAUhvui9ligV0iJtsxdkNuq8U070n60a4o6VnUBwVYndniM/zT20tBvxbtOmxevfVIMacfmIWnbQEAbjLHTuCpvyq1wy2VVVCbkRN1IU5+Rh3sdRxkE/2MedL37uEiaCxAT97g/niPyV0ZlFSia6nXSraBcyjcSKTnwwAPL/JpIJHofMS4OhUZSwqWCu1EnoVCdsJQYyAQWB0K9yYQbiUHcQM09ihCDeBiwrZsgyBDaCecsLOKtCRGPMBDQaa4QHFYD1/hgk8GecC9tefKl5/LkWukSqpz3n7sJjY7JQbqICTcuLloEe4IZ0kBQO+KII8rExeXM/7ieZlna4gh9yI7JjRDnWpOJMrqeECjOMyFDhEFlUWZ1QyhTXvVh4Jc3C5J71Ze6RGhYTAicJlVlR07UD4GTgGhNibQ8f/u7WJiQpKT/SIlyKi+hS7tAnFnUtBvtVfvTh0IAco41xX/3EohuuOGG4g6o/bmfcMX6p/0RBl2jn+jPiIt+KE/pyJPAFUKfMrGQ6Hf6HMugNWasJ6yhCLi8jQftz9KroZukhIBMu9VJ9AopMbYZq7mssWiDMhnztRljsHFv2rRpxU0X0TXWUmhRKGnj1g5SXlFmmYO4vrHkId3mHfMrazhLtrkv+oH8CdcUUMgJcq99S5PLorav7ZoLjLms1+YneXE5Fk8xpc1bpyVOfuYkCizrtPQZQjzFlH4hH8/sWcVRrLHM6xvK1V4/4xnkPxpSYr4yJyYSid6HtdTkxqHQSErGA50iJREIMQGaoRhgaZMgJpk4Vh4DscG+/X6DtklDOqFFCu1U5BdphxYrNGXy8F964k1wID/aNYOuNMXHICxeWYTQUMb1rkUmTF7WsBC0CGIxicgrrpef4D7P0F5uv/Hf/e4B14jzXpTLuSi7dNRR1I9f145VSFLSf6RE0Pa0H/1Ku9H2o91Euw3y6px+Ur/ffYFoY/X257h+jfSivUdfjvylF31RPMshgYsGmiBGEaCf1fPv9dBNUsJqgCh2Er1ESoyn3GwRDYoj7rWhyGGZ+8hHPlIseQgCd16KnlgXxTJOmUPJxVr9H//xH2XzEMI/ayCigKyzFB5yyCHzSEkEbrpvectbqve85z3FUq2dIhgUUNILK75yKZONVbjRIi0IvPWGSBAS8olPfKIQduTIpigUS0gSC7mttt1H0RSWSv+VjxuwNLrdR9SHMoxEShKJRP+A7MoCPBQaSQlNy3BMZixAgOgkKRnPYLKqC/V+HTddO1xwTwhYTecjmDgJXAhBnSgNQkhS0p+kZKigbwexJnAuzDMRTBaljetT+kkQlX4cb7pJStQXItlJ9Bop4apqExDWN1p4QrxxnhugtU3aFAugTRNYAwn0BHsWPCQYEXGfNU9cwFiquQojK02kRN7GfyTb3Gt3x7e+9a2lDKzy7373u8uaRjsosoxzYWQNREIoqcw5LOGUVIi3fJFw/YbXg3gbqXBdZNmpwxpCLpXIisBtjPtwt/vJaEkJiyrylUgkeh/GpFCeN6GRlBhYLZjuJAaJlBg4medNOCYA2ia+7CofcYhJx0QWwpX/oTEmqKkDZJCbi/Pi4hovMIQ5cYI450yihC2Tebc1W2MRkpQMDinRHrle0TTT1hLS9JNow/qFoI9ox/E/2rxj8YQ+ApX06tdo9/U0pKk/6Qvuk4bjhVEQ9FroJimhhVe3nUSvuW8hJbR5YWWONmRNnjWK+iZSYS0gV1sbmljzZNMQ7m4sGywcLCtIDPdErrbu0Sf+8z//cz73LX2DhYMFhDsiVyp5cSW2sYi1flwYzS/iuN5ao8hS4/0oJxcyawjtfseao18gHYgRMsS6o3z+c9niIsYVzXNwg5IW0uKZuj3+qJfRkBIWHyQwkUj0PoyL+vdQaCQl1hdYD9FJDAopMVkZPC2UDxM4sz/TOz9sk1FYUqzHYMb3369raMWkY6IysNpgwKRoMnG9rVRNPjFBMKu71+TBV5jAQJNmQrF+pN+JSZKSwSAl2jiSTRiyu1ZojwlNfOG1Yf3GtbTI3F7cQ+gy9mjzjrnC2FTB7nT6kn7hGouELXQ3dtAQS0Oa+oQ+RSmgjxC8CHjSai9jP4VukhI7pRmLOoleWujuWbVZZMK3mbRh37jhwmZdB0uEvsntieUCmdDOuNNyDWS5YBVxn1/f19E2kQr3cKNiydDOg2gL2rGNRFhf9BXziDZOkUVRaA2LzRvMNcZ9/QFxQVCUWxtXFmWlHJOmcnL1IrhbU2I9i/PSUT79UTyrj2dGupRBWfqFlKgHRC6RSPQ+YjOmoTCwa0rGKxg0Deo0WcztfIJpdmnYaKEsmGQKp5niC0xTZtKiVTPJmJws/CWoISQWsBOmmOZ9g8FkYnKivbKA0qThXosbLd7l/2uXMPcy0cu7n4lJkpLBICX6NJLM4vpP//RPZYGwfqLfs5jQzCIiLCB22EIyaKb1ES4r+gVyQeCgDbZAXT8i1CEpFhvbwc5CYwREGvY/F//Rj3609EcuLvofoZCQ1c/EpJukxFoG41cn0SukRNDvWB2CKGi3AuWSeMF12lP7f/dq+8Zg1yMUkZZf1/kvvn2cFs/i4Rr5Od9+b5TBOXlJpz5O+C8NwX3iXBtzrF/3Sz/K7Dcs+FG2uLebQRmUPdeUJBKDA54TlC1DoZGU0NoThjuJQXLfMojTriERiy22WPWOd7yjCFgGfhpeiwvtjOL7IuoW4bBNKkELieGvzBWFiwuBjGaXFgtBocHi50tbSVuGZSIz6o8Axs/YpIK0ICusMyaapnL2Q0hSMjjuW/oFX29EQ7/gsoJY0OYiJXYjshMev3jPS3vyj//4j8VlhYsKQqItcznxnRIWXO1dX7DLEC00H3lWEv3MNYRa7ip8/7lu2T4biaGdbhcC+yl0k5SMBzpNSoyRrGz1NhBCeV14F+d/COchoIeAbK7y368xW4j5K9KJ/0EQXCPvSFu844gX6kRAelwPna+P5c7Xg3va065fN9JxPc798l2QMcf1dfIz1kG6oyElrD2sO4lEov/RSEoIA75P0UkMCikxiLNOMO07JoQhBwQxx9y5CFKEMJpbE4ltf1lHaHn5/tIE+z6KhYmsHbRzvkiNxNAgW6vCZ5lrQJjv1ZktVGmUXW+bR9ph6SQp6V+og0EgJcqOfGiz/iPi2rP2qn2ylliwGx9RJFxZsIqYOLZrkX7ECoKg2yqYO5g2zjrI9QUR5wLJ4iIeSSfIcKnh1kLQQvT1GWVJUrJwsC0tBUsn0UlSok14/8Zm47RjbZLyR/uMa1iDWPfivHPcnbQjcYitYyRAu+RiyOpt/YW4yC/cdbVzlkDutdaaqEPjv3zF20lLGoJtePV56SirdMVTMhH862OB/9LhEiZtSi1zgLh4Fvm7zv+Icxxx9XjX8vM2L0mn/dp6vhHnGSniyAr6Zf26sQrSHA0podizu14ikeh9xLboQ6GRlBB4+XJ3EoNCSpTdZIUoWMjIwsQ31zc/TEoGcYKXxYcmEcIX/2OkgwWFhtd2jUEsCG4WO3pxhClCFU0x4Us+0kZeDNY0w7TFJgWLJpOU9D/UwSCQEm3QwMPKx61KW2W9QDpogX1D50Mf+lDZhSg2hUA09AvXckdkNZQW9yG7EXHd4tooPf75+oVvkbjfei7fbCDIuI/Lo/pLUrLo4CZKiO4kOkVKtAdCt7ZFMcQlUDvQNljqWLctCGdV4xJr0bfrWeUsCEeiKZ1cz+0gtge2rsR++9oay7V2KN3Iz/3Gcdtfaqv6gbaorbJ42+GK+6GthI3nLIPGdxudSFuc9F1DsYUEKINgbFBO10hb/voIUq8fKYf27rqYg5TLHKPfIUcR59ccFgTHPdLwzAiaZ5GedCLOf/GsldyJ4xtETfW/KEH5pDsSKfFMPBASiUTvw+YfdjUcCo2kBGEgOHQSg+S+ZeCk/bJA3ccLDdK0WwZL60pofAlaro1JAOkjYMVHFWPQp1GjNXMNguEaGj73uT+0dwZsExzNnwmLls+6lE5prcYrJCkZHPctbZgQQ+NL205oQspplrlbIB4EQ9eFAEL4da3Fu5EGYQ1J168ITCwj+kUIQ4Qs/Ylg4h79htbXfwuC9RnX9HO/6CYpoRAxrnQSnSQl+hHB3kc3jbPaFC0/EssCzYKtHSEnFquzGrA+UBohHUiINmttEldBZIBySLpgzKetV0fitFFjsQXr1vsFtHXtVttGVvSNOtynLO7T5sGmDhRdxnplFLRplnhEJoBQ+U6JuQAZouiySN/GD+KQGOTcM6kHJIpVxvzjXoQEyTBncbFksfeM4oxFys0aIQ1WTv0JyfF8SJZyNdX/ooQYE0YiJdoMUplIJHof3C3NyUOhkZSY9A0+ncSCkBKDU68LFDRHBC5kDiHxTCYSO59YF0Jz5pq43gQUfsMxoEcaznleE6hrTB7x/M5Fffl17L804j7HvRhGU7YkJaMnJb3eJwTtMvpFtF1EmsaZ1SS0tq71PPpO9IvoL9IQpz84lo7j8GcX6v3CdXGtuPjfiyHK33SuHnJNycIFdat9EdiRCgK6tsL1z9iMILBMEMS1ExYHJMSuh6wrrNqEfEI7q4T2alyXFss0KwW3QcJ8tFd5ancEfm6ECAIhH0GQNyUTqw0rt/tdY82h+6SDmLjHOQQCyY45QvDft1QQJpYeZIHyS/7y8LFLz8VF2H/PprzS0m8QDbtzITeIGcKGdHCR5DamrPoocuZez86iry6ct45LfsYohAmZq5dvrIL6kO5IpMT7ofRLJBL9j0ZSQqPJRaKTGC0pCc2TX4OU0HRdezBAm2RGe/1YB5OfMnhOISasoYKyjnTNogYDvLpekHqMEPXp/8Lc7/2N5hmTlIyOlHiP9Xc52veh/ofrb50O+oV2aHc63xoZ7hk9kzYz3DVjEdRHCFUL2q7b+0X7+ZFC9IuRnrGbpMTaNTv/dRLjRUq8a1YMVgDuhCwW3AkQAdcRvAnvrBCsbaxvBHcERhqsA1ydpEtop/Fz3oYKsfW0dBAJgr25i2Wb4M4dC1FgWeAaJi/3UwKyxOgb1mgoN6u5NFgUbdyAQGij0pee+/x3jfIgKFwiWH6sB3UPl2KES37KqPzIvvutu3It9zFjDbc2z42I2Y64bhlD0qx7RH5YktRZbFjRC6QEofNuE4lE74PVllJlKDSSEsICLWQnMRpSIt6AywzN9M2tyYJZg358JA38rwsE7mP2tq6DZgtiIaLrDMzgOQ3s4px3X2jSBPGRh98QHJyLr1SHQBLBsbrz36+8/Jd2aHbr+bveBETbQ4MG9bwi1O+DKJ+4iI96MJD7HyZt+XoubgYmJvUYCy/l713ER8LkJe2ANJTd91GUUTpM/yZPdafeQBquizJF3hFvUT//aBOY4/qz1UOSkuFJifpV7wQQ2lTCgQ5OcPAu1Ls6B++xfp/36zr3aiP1a6JPQbS/eJchcGhH0nBO2wWaV9fF+UD7O5ZPtEPljP4ovegX0gL5iycI2+SBkgSUL/KKUL8v2rDyKXfE+428/Je+a+VLyCSI0RRz2dE3XKu8rhHiWaKtQ9SLuqdVd57bGQFTfPRJ9eQ4yiRv8I7cQ9i1NoagPFy/6CYpsUug/t9JjAcpoU3Xd5ADQqz2AIiHjx2yGHCb4iXAauA+gYsSId510mMZIeTb1lJgXeEWpS1JX7ragXhWcnORsdf3Qfwa562B0g9ZNFhUtDtWElYMeXN51LasFUQskBbtSEB2PIPx2H3cIbQh5XeMkBijHZs3ERjPq51qY9o9l633vve9ZVMJbdx6LeWVJ0uJDVbcbwt7rpPyYx1BpLiqaQ/mLfXQbVKiT0d/SyQSvQ3r9IwvQ6GRlBhUaYk6CZPySKSEYGBwNkjyGTf4ER4M3rbcxbhoegi89bUU7jMoM3/zf7XAkDBmwjDJmBhofJjwuVURzpEdA61rTBQmDgKUSUUehCMTlgFdOZjyDdR8k2NAljZh3STjmfwqr3KZpJTJf8KLNOVP+ORbzJweJnaan/BPjnQdmxTcJ28TnbLTcIk3cakH19uxxSTs2cXzg/Zc6suE4vmY4cVxRTCxSNOEJs5Eq37kxR1A3ibdj33sY6XePRPtm3omyLlWubUZdaZMJlfx8lROAqZrTGral3I2hSQlI5MS8TSzBA7vRjvzPq3HIEjE+9SGtU33CIRqmloCFmE43rm2qg9wp/LOtHnvMTSo2pNj+WhL8iTUaB8EK9dpC4iuOO2YBldbkq9yE3YE1xGi9MfoL4Qe1ylb5O+YEEgDrN0Q1JQvnkWa7icYaff6og/bITA02PoYsiE9bVhZKDj0C/1O/RHWpEPbq38jePqG+jDeyFOa+rg89V/PJ6hveRubfIvFOKVv6Ofu94zytnmF8ugDxh19Urx6U+fKIA91p27iPbeHbpIShCkE+E6h06RE27IWxDikXViP5D055xrtQptBLIKgOq/daKPaEEuI/uS9WWcjPYE1wzlpRb7utc4PoWGx0GZCccDqoc3F/YI+a/xUz/qcOPdpqywS0ou0lUHarDn1tMW7TtkRE2O/dqXvap+eWRk9E2sJwqGfmtP0DXOgvq0P6cNxvzT1B+1Uutq5ckjD3GouijlwLIP3It2RSInxRx9LJBK9D+OfcWYoNJISg7AdozqJ0ZISAgvhyWSCXdHmGEgXX3zxIiib3PnV8nuF0BQTMMQTjgkCTPQmV0IbjT3NECIgDYMrocY5efJ3J7SZbAhFhDGCD4HMgE+oMzBLlxWHYGHwFORL6DBIEtwQI+nTSCm/8ppIXMctwncakCzmfC4FJiT3SzuEOhMJIhTfNDEZucZ7wjqlZyKlLUNQlI1207MT8DwDwuXYcyEKNHDqw/ObsD0fMmTiIuyaoE28TPmESWVXnyYgdeUe9cEFwjOZfAloBGF1YqJUDv7H7jXZy9fEl6RkaKiD0ZAS7cY70Ea0V++TO4btpwlY2od3R3CmrSfs6Re+/M81073emfdHC+vdc8/QLwgezulnXDUI4AQbmmZ9QhsijOib3r12RGAnSGm/yqIt6rP6hDLKV99VHsJ+7ESkj2iz2hyioK85J54wxm9fGdyvHSu39qMOBNcrK3KFvBCctEHtzn9t0E5cnkFf8JFFaXgG7Vjf1Z/0DS48rkHulFU9ivfMSLjrCHfirANwHcGOll2/UU71QEC0XsB4oo/rC/qQ/qMOxVvM7Fp937Pq171KSmihtZ1OopOkRPtT19qS9i0Pgrg2HdfRtiMMrve83kWc197EOSdOu3PMwgDubeqr8tX3wuImz4iPe+PXdeKdD4ucc8oa8fWgXznXnrbgf9wfbUpcjLuewf1hxXNsDo7nd533Xb/f+WgDnt09PBGM9Sw30on8xyooi3RHIiXGG3NPIpHofYS3wlBoJCWEBYJDJ2GAGy0pISDQDBGSTeo0t4T9sADQMhF8Cb2EIUJDaJuQAwKxQYtgQFAhXABhikBBiCE8EMQN3rSmhDTnCSoEvLDGiLc9qTjkhPBDoAhBiSBFYDT5EWrkReiSr/QIfAgfokVoJDCJDyEIECwCYgimAsGR1ozANmnSpLJ1KoIQAg/QJKsLQo+yGdRNNP7T9AUpIXgRAgl6tqo0wZiATFL+q0vpEgKROfUjIHGESlo070I+4sKthqBGMCbs0bCBupAvTbG8k5QMD3UwWlLCHcN/9aptOBavDdP4ayu0/OLCvcN78860Zf08+hFi637QnrVNpFc7dSxfwj+BHsENYVs712Zofgn8tKvS9MFC2ld9W9Bn3aMvaOcsCP7rz8gPlxmESn7c0pSHsKO/IB4gb/0u+oS+T7usXJ4VwXKfZ3cfqwXoz+pHO/TshCrabnWCrAQpQTCQLCSEq416jH6h/er72rbnQ+xoj40z6le/UDYWEgoF9QHGA4KbulUmdSI99WS8Qdzk38ukhOIDeeskOkVKImgrQ80zGRY+IA1N49RYhNGSEgo5rmyJ8YWxkVxG860NLCykQ04xLgbIh8Zo1nLpm6u0h4VBkG1yiv/yS3QP5HJeA0OhkZSMBxaGlBC6aVNDWCFM1YVk19BY+uUmREjgckWgJzATsmiVCVMaKYGK8EV4IbizZhDWEAWCAjM2VyaCBHJCsKB5ZWkhKLF2EGQIRiY9afolmBBECDfKL23X6WT8kUM4kRZBi2BCKCO0eWaaU2VXB9LT4REuBIKQqSzSp70lICkXQV89uRcBITSx0BAmWGEIX57PeUKT51M2pEynp7Gl4eXaYO95z02IXWuttYrA5HmRFCSPAOg6BMP96lhZCJPyDqLkWbyvJCWjhzpYUFLinWrX2hsB3TWILQFdG9Bf9BXvKfoQdxPtW79AivUhgrT0CN+0/uKRX+1UH9JGkU5t1/tlvUMqkFt5E/KRV1pp7VW7jvar7MiItig9wrw8tA3nCPusdgiPtqUdmZCQfuWRBmIvP+1HupQNyqx/BbHXRpVBH5WHuhCHbMhLG0UUtFdlQexpWvUNRMk1nse4wK3SWBJWFn3B+EIA0r/0RWMIoqNu5ePZ1bExRH9nWdFHpKnfu8ezKLOBeaxICaKlXjoBz9rvpETQFoSmcxkWPHS6PqU9GlKSGH8Yf805lKfGbmOpMWxhYJw1b9XHGPMAxRZlsvE1lGMLA+O9e431saFFonuIuW8oNJISAhGhoNPYaNPvjUhKCMqsNoRaRIPGk6DFIkCoEi+OsGtCMzGboAnV3J00SAKDNJAPjJtQxr2CwEWrKh/Che0TkQHCDYHcOcIFwU1+8iVoEMwILSZrAo1OFYKXQVSHIqAog3M6FPcSLJ1WmJuJ+wUCmmcQR2jRCeVPs6zjS9MvQYuFhAaXEEMo1dEcGxgIW4Q6pEFdsHAoA4HIu1Ruz0R4ROAIafIl2CI47ieYEZowWWUz6CiLeqAVVl+sKIRg7wKB8/wGDwKrfOSPeBFYvQtkTLznINgR2pKUDA11MBpSgsCqV9p8VjzvleCrjl3jnWn/3od2p43rFwR17w8pMQloM4R/7xeJoRXXBhEP74kArl8goiYH9xO0tRkkWVuUR5BO8foW4os0hNAiLWXSXrk96YfSlK9n0O4QI21Mf0MEEGV5mvTkpY8gR/pD1APyxUKi3yqLZ6Ys0G/1Cy6R2qjyUQB4FmXQvt2rjOoMYdKvWW/0Wa4pJlp9zn0UGkiXdNWffmH80S89s/Ej1mspt3pVD84ZwyguECgEUbn1EUTfe0bgjBULSkpo/pTBuGFdizQ6Ae0nXHc6hfEgJRn6K9RJyaOPvvHdliaYb8MynxgfGM/M+6y9xkvKYQocYwXLlXGbjELpYswmP1EqGcfJQqwVxmnKo1AmGRsDxlXjLwWv92ucM26at8wtxmDzFJmF0or8gXSY48yFFKPmFzKf/I3r2gg50HxlrDdnyJeslRg/cN8ydw2FRlJCi+jL4mCSIARoEBJrj9MIIPxTh4rTWMHkFiRkg7nC171zBf3hSImGtPLKK5eGyE0khJyFDfKShs6igROWlE88wQWJcewacYQGjZoA7pkjIDoat2sc1/NwrxDpiPM/8vcrTR05BPRIQ5oIRFwXQT0qr/vUg/sMDOGuotzyIuAZFHQ41xowpBX510M8t2cR5CFd6btXfq6JelcH6ijuV2b3K7N8oi5dH9e4z3WEPppmAm08c1NIUjIyKVGfSIlJITYnaL9uQUO8d/2CoB7v0vv1bgnajuUfcdqItir/6Ofu1xbj/noe7hUX6URc5C+taHfRRqQrXhtzLO9oX+51XpuUr2P3IRCINfKjnMpnLEHekAVx7pFW5F8P8Tzy9CyuE6J86sczRL9QXu8r7nevNJRJPsrUnk8cI0SUGybUkUjJueedX0gJEklhsPzyy1f/7//9v2qxxRYr5Md1Ub8x6C/I+N0U51nUp2foJJKUZGgP+oj2t/Gm35srlN5W2qf2AbGORxxhlzLDOXHCaNt/xA3X/sXV5ZemOOODOPPvUHEEcf1InL7eFBeuRf6Lc264OGmLk1coDpRrqDhl91zgOYeKG6quIw6Mr8ZTyhqKHwpXClHf4KH44Y7LTZXyhzLI2EnJhaywbBuzKL+kY7yukxIWad/GYU2nRGYhp8Aip1ibR5lLTjUHSouVW1BGymP/uckjLRSk2gjPEOSIAgyh0WYQGPKT5xur+h/unYxV/UecEG3db1Oc+8QtSvtviluY9i/OOzdnDoVGUmIijfUNBF8CLu2llwcmRSxUXPh7m7w1HnEaJkhHYxBHUIZwuRC30qpfqR6eO3Er6FCDkskea9ZICQEe0rn4jeuaJv16XP16/+MFRJxrI65+73DXCvU86iHSaf8fx3F/xDnflFc9xPm4Vl1yvfKCo6G4jgAZfp71Mvqth4iLskRc3OdXqMfH8Uj3t/+n6dB+tIk41xSSlAxPSgT1pw/qewbg+juJuq3/b7+3Hl/Pw/947xHn2oir3xvvvOlaoZ5H/Xx7fvXzjpvSjPih0qzn6Vr9QftHIvSLuM+Ept7i+noa9dCUrrh6+aKMzvkf98a1fuNax3F/+39udYglwh/3NgWk5KLZF1ffWv/b1aabbFKISIR3vvOdRZvomWn+uHQaL4E1zIRvvJUPuI71SVxomBEoGktxrFRgHDGmszgpQyeRpCRDe9AfCILGw298Y92i/Q6tNqKsnYuj9daPtHXCMIGToAsEXe2f4Iz4gzHTfdp6uAQRmGn3xbFsQlg8xbHwg3GZQkhcuKAYZwi74lhMQf8mGIvjzgmeheeAOJ4KBDfCHqusOBp/QqQ+QHgXx/pMqCPQUaqIYxE2rgGvB3GstOoLCOziyFlkBGDhFkceowwFZEEcTw4KGGC9EIdMGCuBq644CtCof/VANgx4LmXwXKwW3g8FpHyNJyzThFh5UqggCq5TT8pjPEI6Aqy+5M4QwgPKhKiQJyiXlAlJ4AVCce19sr6QGb1za2eNhazsyuH5jX/aAjdhxAQ58nwITNQ/ZZE49a/c9fpnpSGzgjTE1eufVUZcvf7Jv+LkTwaCqH9jrLkJzOnimupffUSdq1/jMleoqDfCvroRov0jbK5xrToH5DHaf8j0rFwh0yNvQKbnvSCuLtMjiOJCptf+Q6b37KAuEFVx6gjUmT7BAqYMQ6Fra0q85JHWlAgarUahQzedn8jBi1d3dWFHIAwNV6fdCMoT2oKm8xGSlIxMSgT1aUIzOTWdn8gh+oXfenwv9gsTqn7RXtb2EO5bu+6+Zzk2+JvU/+Ef/qEQE1rJmAD7EUlKMrQHfcL4xn3r4Yc7+/HOxIIBiSHYIgBIH3dUhAVRILRyKSVEU3ogBQRjMhzCx13Vf1YK7uUEX6QEWQywZnBBlz6iKSB3hHIkCikJ0mhc58rMtRwJdQ9rDCULwip/pAlhQYjkg2AoP3eyIKGJ3kDPk5IMEyskKRkdKckwscJQC91pGWmffIwvtL79iCQlGdrDaEkJjW3uvjX+YFWgzWd5qCtEuPhYMxgWAbIeEuLXPZQwARZalm0KtnBhAlYkGvhIXzAnGh9YjlzrmrAicUMKV6RwQ5an/CJP90be7lPGsBolegddIyUaVJKSDO0hSUmSkgzzh6FISR0m335FkpIM7aFOSkb6TglXrkQi0f9IUpKhp0KSkiQlGeYPoyEl/YwkJRnaw2hJCY18rIlIJBL9jSQlGXoqJClJUpJh/pCk5I0vkVuD4xrCaux+xhUjjpvu60ZQnl6a17iyqKd6nDKOZj1TJwJ3He+y6VyE0ZISbjuxO1AikehvJCnJ0FMhSUmSkgzzh4lOSgio5gm7wFgYy8ecIGqxqx2I7KZDyHVNwLFFsCF4O0eA9b8eH3mIMy+BtCM+/NCd0yfdIx1+7eGv7l6kKIR/u/9YQOt658Jf3nnXieMLD+1kQQh/eHm6LkiXZ4gyuiaujzLKR55B2By7304/vrfj2nh+C5PFOXZP+OTLt14vcU+c944iD+WRvuB/xEkjntl7qD+zc3Y3Uj/Sbc+rnudoSIldkyx4TiQS/Y8kJRl6KiQpSVKSYf6QpOQNi4htP9/73veWj6CJs22l7TNtxWpOsTDWV5t9Idp2mLa6tO0lodiWsbZ2tSjXFpyEYgtdpaOv2Tlo+vTpZXtL18mX4G97UluKytuiXAtwCfl2DyLU22EovmcjT4TEpgOuEce9yEJs5bItpzRdb2tXecV3YOI5ldX2nrZ2tWuQ3Yo8F+Jhca5tTt1nB6IgYsqgjMqkjDGn2rHIjkN2SLLDkTjkwDPYMekTn/hE+UAd4d+CcWnYyUh9xPgTBMT2rvK17Ssy6H3YDUn6gv/KYwckH9VTlzZhUCee2T3IiC1wv/rVr5b/0vbM8mkP4kdDStStrVYTiUT/I0lJhp4KSUqSlGSYPyQpeePDmARQlhLbghLAkQtbkBKYrSsgeBPiCb62JEVWfH+CYOy/L/z7T2j2bQGkhOArfd+fkLbtlt1vL32CuvvFIT+uQQxWW221khfi4fzMmTPLPKZciACB3LUIEOGf0I5M+MaBb2oQogns7rPdKVJByA8hXdmXXnrpsse/Mrvf9wikT5gXfGNBHPLiew2+m4GsIT/yRWgmTZpUtj+1ENyzSRspUadIlq2kkShbp2666aYlzvcdDj300HKN8rheffnWwfnnn1+eAVHztWxbvSJmvueA+CB+6u6Tn/xkqQdbrvr+gTpTH57LM/nAnmeIuq+/6wjiR0NKtBnWl0Qi0f/oK1ISJmADUGiWxBm8wq+0/Z6xDMpZN5kvbJAO07Y6aHchGCp43rHIuynUy6MOozyhhWu/frjg/ZhcR/NMTSFJSWdIiffh3Wpv9XjvKtwx6vFjGaS9KG3Cfdp+CFMLG4wVhBxpNZVFXAiG7ee6HZKUvEFKfGCOFcS3BgjiBFxCP3Lgo19LLLFEIQs+SOaL0Fy7WCR8XM0HgQnbft3jQ2XGN2l752eddVZxA0JypCVeHiuuuGL57gGh/Rvf+EaxdvhAWXw4GLGQH0Fd3qwayJNycisj5BPKgfuS6z7/+c+XD10iEbZzJshHGw8rBnIByIZjpGqppZYq5AjBWGGFFYpVQ56E/PiA2XrrrVesL0hCfOAsnk0f8KyemwUJYWC1QS7iI3+e3fcjWJn0F9ez3CBSyut7EMYn5fnIRz5SiJJvQqy88srFwnTiiSeWMoE81A1rjO9HcLsDZZWfOhaGeuejISUsXMqaSCT6H31FSgyOvrxqgKORMYCLM9AyxfsaqQFdXAjxkXYMcI7bBZwQVNzj3sjLcQjmjuVpsG9Py//2tJxrEqIIhgZmJnBaKRNbvTzul2ccRx5M4yaGmFTECVFe17tWiPJFOYYa9AXXKA9NmfKYkNzjfmZ4k7+0pRF1GnkK9Xry3/vxNVGaOvdJZ7j820OSkrEnJeqfS4f+4ave0hXn17siuJjYHUe7iffpfnHRDv1Gus6LE6K9Cq5xv/sEQg9tLDeWSCvaTLQN90f6rol4v752PmfOnHlCkuBe18dz1PP3P8oe5XaPeP3Ix7S0T9fUz9OaK6fyOm4qZzxzezk7HZKUvDH+sEAgDf6zOKy11lrVSiutVL7WjAB87WtfK5YDx67l4qTN09DbOtbXkQnJhHrkwXuMNqZdSAPBcd6c4h4EBJFAbBAQlpawblCGaVOIwtprr10sKtoFkuEr3z4CRxhnVZCXPMxf6667bhHupaGc2l20UW2TZYT1gQIuiJf7kCJExLzBEmJOCDIiDYRLuvpKWHDUKSuNY3WpDctLHSEj2j0SwQLiWhYoVhjuVtGvzH3qTvkRE/MX6xQ3LOVSZ57DcyIlSJy5TjzSwp1NnSEp+o+vaI+V+xaLFytOIpHof/QNKTFA0WIyIzMNGxhNJCYFA+VnPvOZ8oVjwhVtMLO2CYbAbWBFVgyyJhTX1wUkZn8TlwnEdeLld+utt5ZB1n3iERKaIP8Jecz7tGbul4e0COWuM+HJA4mI8ptIZ8+eXb4kapIxCdAwmfgIoa6TlonU/Z7Xr8nXwEtrJx9pivMcjgUTi/J4bueVwzOZMJsGfsfuM/Ea0E2CtIgmDho++ZqwTODSU3blkqdJ07O6X1ri1J1683zSUD/OWUzpf3v+Q4UkJWNPSrwX7YAmc5111invhMCgr6y//vql7xD6WcsIM/qNdx33a1vIqbZO4ys9QTsQp71LS5x2oR1qnz5gpY9qSwRFrjbuEa/NKIdndI82EnHS0sfkrd2oCwIQkiw9fUT62pzz+lmQKsfKK+g/yuvZ3GOscJ/F0spBODIeeAb5u4fAp7zyV17Xu0ZZlFO8OGUxLkgn6qmTIUnJGwvVCczGKnHep/fFkhFWD8oVJIBQjbx4/94jYkFY9/5YDAj62qt0BWOcezfaaKNyLSFem9HurbPYfPPNiwVC/sZW4zYh3bionSEQXLq0C8eEdhYaaXOfQkJYH4z75iTlVkZkAlkwbiuPNqxNURAR2vVTfcdcoX0S+JWP1cZ9+pI8Patxl7uU/KSlH+vf8kXKpBF16bx2zDUM2dJHPKPrlQl5iPpRJuSJZUc68qXM0GeQL/HyRcL0Hc/GNU09eC9Ik3eAoMiPdcYvAmUOkUf9XUeIco5ESpAi7yWRSPQ/+o6UGPCYpQ3ABl3xJhs+swZFkwizMgHeAGqQNXnQItGi0QjR7kiDIEMQ2mqrrcpA6Vo7eRB8TFC0UtKhAWNBYEY30cjj61//epkYTFTuI0wRXgj4BnUTgTSlZeA1eZl4lIngHlAGZTGoEhxp/tzvGoRBGTzrpEmTymRqojQBikPCEAlCG9P6GmusUc65V5q0dyYMz29wb69PcfJl+ncNECjVAa06DeTqq69ehD8TpOc0mSCEIXCalExmBAG+xUibcpooTay0Z65tz3+okKSkM6RE29QmtHWuJYi7d6x9I8mEEv2JwKGNEqL0AcKEdq5/aev6DoGEQE5YIyARrtynbRJmtFXtDgHSPrUf7VPb0ja0U4SXew0fdc8qLe052nUIafoOywXBRhvVvqXr/i984QvFBYQWVvr6JUEpNLP6rP6jbeqXyk2AIdQS8Pz3/MqL9CNXhDvl1c+VT12sssoqRYglLBLs1I26NAaot9G27UUJE52URDDmeMf+xxjmvcQ4G22dMgkBibnFPYiHe/x3zv9IV18TWAQQcm1SWu53vTjt17H7EGFpRDmkrRyRpvJEH3aP8VCbdo+5QJw5Q7rSFxdlEcQJ0ou0PJ8Q98lTGd3rWu1WH5C2fMUbe+N5mgi0PotkIejmItfqb47jGmWQj7Qo6mI8F+Sjvj2ba8XV35E85R1pIInKrx6UP/JoCnHPSKQkkUgMDvqOlCAcBBjWBcIVLSeBgnDNZGzQYyGghSF0IQcEaoI6UmJANXATtAgUrud3TJiixSK0EZScd87gSXtGU0voJpAjD1/5yleK5sd5REd+8ieIe7ZYwGhwNpEY5IMsGPRj4vBLK2cRoEmFoGNCdU5Z+FADAVH60uWDjCB5ZoIZLRahUD2Y1LnjELY8P00V7bf6a69TeSgbzbFnRDrkSThVLtouhM+kQ7gLlzkCKuKingif4kxEJl6kBImTDkGO+4Hz7XkPFZKUdIaUaFO0u9onAd67Ipx7R6xh+gyhS1/QnpAH79A7J4RrU9Ih8Ot3BIpwk0EMCPbakfatr+gD2jRFAeKvL8hTmvIDhJVVjvbXfdoJoQjx5ZYiP3GIEXIQWlf/Q4OMUBGqtMPYCQkZ9yzS1PdBmR3LC/HQxpEpbRtBUzbjAZKlvK5Btq0B0AfUGdccbd+70aeQJ+RHOZvqfSxDkpI3gj5R7xfGNW0kxje/xq4YX+O6+jX+N/Wt4e6N+Hoa8V9wvbj6caTRlG49rn5fhPr98d89URbzSf2+iNcW6+VyHHlEehFcF33McaRRT7ceIq16e296tihvnI/0Ir/Is17OphDXj0RK9FcKvEQi0f/oS1JCYCC08PsV7LZCIBJP+CK8E34IMBYDMmfTmhLUkQgCC8GGEELYIoggOYQv97HGMEe7Vp6upVUlwMmDoIaI0BrRmMmHCZyA5BqwsNA1oeGitUI6lIF/coAwT+BBMGibnEeaaKL9VxbgtkbII1RyV0DMLIQURwPsmMuA8iJCyuuZkBWCozLUF9X7pcVCXAhk4DxyhoAoi/QJZOqaAKZMQLjlz0wY9czu4/pjApEvNwYWFCSJQNmuBRwuJCnpHCnRjlkDWC+QDgEZQTT8ep+sdN4bi513i4CzSrgPEdEmCPbRVrU/512PpLs/rG6sGohtWCOVIUgI1xv9MrY81U6NCYR9C4P1rRBetCFEQx9mqUDikRJtzX2u0388j2NjgXvkibiAfo5QyFN/RXCQcO4moI16JmMBRQfCpA0j1ciI59a/kCt9TL+VHlKi/dc1y50ISUoyGBNY+PzXF0eyNPR7GC0p0Z8p1RKJRP+jr0iJyZ82lIBCQKb5/OAHP1jMwbT2hGXCE+sIDS2NLZeTIC2EndDoEyi4dBE+CCcEHPdw8yA8EUIQHkI5dxPpE2jkQbvq/vClF4eE0NIS0GhlCYDSCkuJ8ntOwpFzBDbXsbwQ7FyHXCij9AldCI4FgQQx+dEwyxOJYakg0BmQWXQIlqwqhCNlVX7WFGXzyzpD8ESilEUg9KojwiUBjDUmhFXXsxzRFtNec0Uj8CkrwkZwI8QpF/KDFBEWWYzkKR/1TsD1Xx00vdf2kKSkM6QEIda2tH3E/l//9V9L2w6LAiKBcLMQIsLamnevL4jTdpD0WORKGGcRQwYcs24guOE6ieBwm9I+tVlkRRnkwXqBlCDYSIoy6dP+6xdcxOqkhIsJSwhLo/bkOv1Dn0M8PKP2uuyyyxYLprEBydCmkWn9R5vVNvUp7RPx1861Z8RJ+9Vv9FnPyn1LPFKCROlzxhn3uFbfRb6NIdJCvAiJ+lV7/Y9FSFLSn8GYr60K5i99Wtv0H7nVD+r/Xa8NxTVxr37AusciQFGg3epP2mdcM5p5tJ+CehgNKTE/hSIkkUj0N/qGlAgGZoIBgZiARJihPTXQWzwonvbfIEWoIIAYyAnPzhMgCA60TQYxwgtSgWwQhlhOhDhPEEIgJk2aVO4lwBGwnHdMGys/cQQT8UEgCGEsNiH8K7//Jhrllh9hniBk4FUH0pOvMnlW9xG8CEesKywWJit1gACIJzS6Thk8p7QItIRD6SNb4kxkSJffIAgx+akv2nPXqzN1G/GEy3g2ghgiJB+TqDL7rxzO0XJzj1M30kZGCK/iIs+RQpKSsScl3oW2rm15jwR4Ar72Jh9CuP/iEVtty7UE7WiTiIG+Iw5pVjauevoZS1z0Af2MwKTvxA472oE2oQyxcFx70Ha0aekiQkgTkqHvINquUXaKBGVk1XA9wuKc/PRv92vjymkM8MzOKyNLifZJmEPYtf+4Rl0g4p5BueTDUuhZCXxBjPQ35+XDGoSsIV5Il/Skrc7U5Wjb+YKGJCX9F7QdbZ2iyhzC9VZ7piBDyCm9zBXGWEoA/ymmom+x2rEAcLPUh5B+/US/YbHTjimVXINMa5vulUdTefoteA51mGtKEomJg74iJYQC1xKIHROcaZf8N3iJN5ARPoAWCQlwnfP+u9bA7b9fQkR8oyO0VYQnWn4aVRYIrh7SlY5r6veLFycQTtzDosACQ6BrElKkw1cd5CcNz+baSNexeM8A4sNFRB3E/dISJ3//3ef+uE/6jgmcBDgkSrpDlYdQEPmLD7csZVNHrot84l5wnWsEZXEu/kd69TyHCklKxp6UCNKqt3ntwm+033h33q8gLt6d+5yTjjYY/VUaEFpg7YTQxOohsDB4DtdH3u6P9uNXGgQ3hFlfY4UI0hFljzJK3/2C+6PPx3XyiGPn6/1HGcXXxw95aLeeV5quj2dVtiine5QT4UJw9HEWIwoM5xATZMn9QpRnLEOSkv4K2iYSjWiw2CHlyDbrpGOWReMxxRV3XGRfm6IY0s4QFfOO+1yL+CPQiExYFln+WACdY6VHdpCXsRw3uhn0JfU4EimhuEPyEolE/6OvSMloQwgRCysguI8QY4IUQmDxWxeC2oN8XU/QCaGv6bqhgusJUe33hfBHeFJv8nDNaAV9IcovrRC2mq5rCuPpGpCkpDOkxPvWZrTNIOsL2j5HE7Sx6APazUjPoFyuA/cpm7YW7dV/fc6vdhvkRtx4Cl/KKb+AciqPc+qx0/0jSUl/Be0T0UA4rNFj9eBKyCpPYcWirt2w5HEJ1F8QFlYRyiyWZ4SD66Q0eAQgKtwhkRIWfJYS1hFpIyms6fJe2Hmv14LnGA0poShQB4lEov8xUKTEIEZwYAI3+HODqgsu/hMm6ppRvwY+QoffiFcmZTRZ+O+8Qd8k4DqTp3QIVE2TAOEpSIT7XWOiQgrq90mXcAMsNLRh3FJMWHGextmgyyVG4FfPVUpZpRcCkusjfflHWaQFfmmyubnUyYnyScu19TRC8LMOhguL547nCmIUeYxVSFLSGVLiXWtfhB4CES0rFynvXVv0PrXVel/Q9qOtSkNcXCs+2o9z2oo4bUcbEhdtpR5XD+IEAhcro2ujv3GloilmgeDKQsDjwsXdkdVPnF23lCfaa+SjTJ4r4qIdS1eZlF9wHP+b6jrScF5bF4wByuFcjCfqTV203z+WIUlJfwVti8XDeM1tSzumzY/1Svqh64zt1nRpl1wnCdjatrVRLCBctmLr7Fjzx33LfGDzE5swONafWVHMHfJuL08/Bn3ZmDMSKTFWmOsTiUT/Y+BIiUHMegrb/zKfh+AsnusSzRTXLC4ihAq+4tY8KANfcr7x0nGvSQK54XvufusumNsJIEzG0uGbTwhyT5RBugR/60YsAib8GTilbcJxX7iEEW64f/C9N2mZjJj1lUc6FsDbFcxkJB7hoi0zsSmjScuERGhTxkif2V85xTHp07KZHPk208LJ0xoZefgv3Si7yY42L/zqfceEz7OyeAbp2zqWcOj6+jtY1JCkZOxJiXS0AWs9Pve5z5W2hpx679oQQZtwZNE6sqvd+NX2vWvrgqThWv9tNqFvaD/al+u1P9dqf/oDIuDaiIu21V4u8doyl0cClnbq2aVBAaC9cZey1km7teGCdseX3i542q3r5EOIk64+pd2KI8xJQx8mJHK5Un5jBAHOc/uvbdfLJw3tXxrKpZxIkG+k6I+xTko9csdxrbqI+8c6JCnpv6A9aIfWIBl3uSZqQzYeMQ+5xjxgXNaH9BPtyTxEcWBNVigRjOfmGv3DfGKjk+hzrmM50bY7oSjqVtDn1OFIpASh018TiUT/YyBJiUHfJECwCg0nTQrhh++6AZ1pPLYYpZ2iUY3F48zihB/XEeT4+hLITB6uJ7xZaEhzxQeY0CNf+csLIeEfbwKxLbA0kB/me4seTU4+TIhQWKjO15iWC+HxsUKCVp2UKKsdhwg+TPd2ApIvYQxhsNOW9JGaWGBvolIPyBDTvoWQnt93UAh4iI3yG8w9j2sIg57R/cpo9y2Tp++ieAaTpsXIhEP5S79OyMYiJCkZe1KiTRLKtUlfdfceLShHRrR5X3RHQgnc3jNh3bFz2pQd7Ag82snyyy9f+oC2bLG39qUd6y8EKOSC1QMZoAFGym0trC8pS72teD5lkx5tsPuVSx8kvNmpC2nQDhED7i3aZriv2MRBP9cX9WtuLvqENSr6jGvljUS4Rz+xQ5f2K45rjLw8t/LpCzGGeAZ56A+eSRmlYWc/ASFCzPQjdeYXyRursaw9JCnpz6A9aFdIB6KuvYuLdqKtOW8cjXj9wrXucUzodp9rxWmj7ol7XRPXtuffzyH64kikxBhlbEskEv2PgScljqWPOPjQIOGbdumLX/xi+SWgEWoQAQIMjRTh5+Mf/3gRRAhGhB0aLQKWOFpa8SwnhCDEIYQtEwqBisBPsCNkWewoXSZ35nuQFwuHNMMflvbVtWH1kBbrjo+8KQONm/MEKUKmnYLsAEQL7jpEhDYNCJCEQgsgCV9IFVcXwptzSAXSZPJj9fA8XAzUG3cAiPwN+LTeCJTr5I/YqF/XtL+HRQlJSsaelGib3jNLAoLtvSEUyASrif+gjSMX2qFrtRFE1ta3FtGynCDVXJYQZG1bm4gtqkEbowDQphFsVgRt1mLd9l3YPJ8gD22Mq5RrEGv9haDPqtFOShAC/Vg/VB5tHFhUlJGQ4jnBtcppJzkky/OB/skNMtxmkHDjhH6nvigJll566dKHkRN1gHRI270ICrLG+gKex651MQ6MdUhS0t9hYdrFaO/pVJvrdvBcoyEl+qP+m0gk+h8DSUpo9wnrhIQA4ckH3rhUEbBoZWmKLSokqNN+IimEcB9CpLkNn12CCSGEAEfbynzOGkIbTCCTH01VCJGEHIIYbSvywUpByCLcEOZcx4LCBQwxIcARjkITG5YX1yE8tnzkYgLqjVBIQ0aoRKgQFIKg66QJBDB5IzhIibQJhIQypMQgTmNMCCCcEUyREYIWgiYf60jch9x4FnlwIWNhIkjaHrjd7WVRQ5KSzpAS7RNZ1ya8V4K69xiWCJZCBJ0wj9hqB0gA4rrKKquUPuM/N0JtD7nWZrQPfUB7A65V2o92hkRrN4QGaWkrSIt2SDPs+QRWQOXRrln85M1aiYDIEznR/hEOpBjR8Bz6p37kHv0l3LwQfaRFG5aOcuh32rt+r80jS8psjPCrX3su55RPn2BNoXRAjNyLMCmrcYDrmgXM6tI9+g6yF8/X9B4WJSQpyTDRwmhJiX4uJBKJ/sdAkhLCFbcmwriFhgQZmlKCDWGG8IIoEFgIY4jBEkssUYQxghGrAiGFYEXoJ7SxfhB2COPScT/tLoGJ37B85U/I4hfMTQrZIdwgI6GFjrUsXEIIVRYfE76QEYIUa0f4p7uOIMdlinBG2JGHZ3UeqSLMEQQJnciR+5ET2maCo3habISMcCZe+WjClVHZxHkWhAxh8WzqzjoS5SWIEv7CJcex69Vz1Hv9PSxKSFLSOVJiwwJtn8bf+0RqCdzaOmEa8dAWuWppE9oWoq49sUq4Vl+SFnIqDf1CO9Ne9BUEWzqItbYVH2HUZ/QrxEj+0b4FigJEhHVCOhQBCLC+xYqnD2nb+oA+hQh4DmXyG5ZF97uXoiHarOdh/dP/kSP9Vx/XJzwbUkLpIJ7FkULCM1FiIGj6JAUDEoNIUTgoKyKEqOgrXMVcq694vviOS9O7WNiQpCTDRAsxn49ESvR3LqeJRKL/MVCkRDCQEeQJ9tw6kAFWCtYE+RAcCGO0mo4JD4RxiwvD/UI8X3kuSywi/hscEQjBPQQh6bCa1MvvfkH+SIN0kQb507RKy3X+i5MuAdS1tK2uVZ5IjyCkrIS0iIvgOQlQUW7CIs2153YPzW8IfgRHgqTyE76UmfDk+VwrPp6dwCUNZZGGZ1Bvym7wV6dh8RHay7UoIUnJ2JMSwbv13rU77cuvPLQrk7rzjr1r+frVBrTJaDOuFe9abU8a2p42Eu2CFUMb4i6mb4jTdlyjrSID2pe2GmWLvkFJwIXQ/fKQl3PK5zfKGuWP54k+5XrPoD0jOggDcsUNzb2u16alHX3ZffFfHlwTPTOSJk4fR7Dco6+6xvNIRzmd03el77z+5z7Xx/ONRUhSkmGihehzI5ESShX9PJFI9D+6Sko2mCt8jTUpEQhVhCAuUbEzhziDXMTX83QuBKGIY5UgWAnhjuE3rBWRjkEz7okQ593rvCAPv5FHxPkfeRHU6tdEULYoQz1EmnHsPmk0PV88S+Qb14pzbaTTXnZxfl3rPtdK33F7OcciICXXzCVQ39t8y1ZLmVhQB+ttsOGYkxIh2ov3Fu1Au4r33H4+2lHTtXFNtIF6u4j8Ii76H1KAvCAV9bYjXde6Tohz0o886/lH3vXyxvUCSwyrpvUfLDTqUrz7hciz/t955IYVJsonrl7+uDaOXeO/vhJpuSeuHcuAlJx9zrnVDjvt0mopg4XJ+x9YHTXz2CQlGeaF6IPf3vg71YMPPtRqKfODiyUraiKR6H90lZRsvc2PqgcefLAMPE2DUoaJF37/+5eqm26+eWA1wiPhueeer36w9bZFQO6EcNvNQMhAPoJEdCoYT+IbK4TcIAwjhfEq38IElpvZF19S7TflgFZLGSxMP+LI6pTTZiUpyTAvRH/cZrsdqkcffazVUhKJxCCja6SEwLDn3vsWV53RCg0ZBjuYhLSFCy+8qDro4ENbLWVi4cUXX6p22W3P4kKU/SKDoF8gqKee9pPq6GOObbWUwcIbzzZz3rM21UOGiRWMfw888ODc8XCPYu0cCtySrWNLJBL9j66REjjuhB9XM489vme1kxnGN5Q28NvfVoccNq066+xzW61kYsEi7MOnH1GdNuv04hrUVE8ZJlb43e/e+M4MF6fLLn9j++NBw5zrb6j23ndyWTtgPmiqhwwTK7zyysvVeedfUB140CHFLXQo2BDDZhyJRKL/0VVScuddd1d77zO5LAzNiSiDiccaoz333q/65dw2MVFx3ZzriwD69NPPpGtjhkJOb7rp5mrf/fYvGwsMIp5/4YXqgAOnVldc+bOyRieVVBM7sJK88Pzz1dRDDqsuvuTSuS3kz280lAbYsMUmGYlEov/RVVICBpzd99y77DJlMmoaoDIMfrCg+LFf/rLacefdigA2kcGvftbpZ1RT9j+oemkuWf99bfF4hokTCObWktx9zz3V9jvuXN173xsfahxUUERsv+Mu1U0331K2ak9iMjEDBSVZ4PDpM4onhbkhkUhMDHSdlMCFF11cHXr49Or2O+4s2nKLnQ1MtCU5MQ1e8E692xC4vesb5xIRWrGrr3nji/cTHYjJGWeeXU0/4qiyY5U+EXWVa00GM+gXXLXKGDg3eM8/u+rqaurUw6pbf/7zVssYbCBghxw6rbrkkkvL2hJWIvXBYphzwWAG79m4FnO/rcOtnTrllFmjIiS+TeSbQ4lEov/RE6QE7r7n3mrKAQdXR80djG686abq7rvvqR5//I1vi9gOk+bsjd/BDK+/9lpZT9B0bnDCq0XzS9jynYe77rq7mjPn+mra9COqg+cSksce+2WrNSQCN99yS9lx6YQfn1TdcuutRWizta4JvLmOM/RfeKNfEM7sMnTnXXfNJefXFJJuV6qnnnq61RomBrhyHTPzuPLtEu5cd955V/keDVLyylwhddBF7I2AAAAIo0lEQVTngokTXi0kxDeP7r33vurnP/9F2fBg38n7V9csgHLKh099JDmRSPQ/eoaUBJjuTzz51GrajCPLDkwmp8MOn14EsykHHDSQ4YCDplYHTT20OnjqYWUibrpmEMJ+kw+ops99r0cefUx53hlHHFW2Ab39jjtabz/RBNtnX33tdXOJycllEfxBUw+pZh57XBFaJ085sLGuM/RP0C+OPOqYasaRR88dAw6tjpj7f9ZPTq/uG3B3rZHwyCOPVqefeVapG22d8uKoo48t9dVUjxn6J1gzd9DBh1THHndCafOHT5tRHX/CiYWEvvLKq60WMDpw/R5ud65EItE/6DlSEvjDyy8XDeGvHn+8eujhh6v7H3iwbA84cOHBh8ri7o023rjadtvt3njOB9uuGZBw/wMPVA8/8kixgD39zDNFO5xYMHBnoVn81a8erx58aID7xQQK+gUB/PEnnigCFg1y4i9gQX722efKDmQsSeqrqR4z9FfwQUTjGELB8uszAQsDYyL3vkQi0f/oWVIykXDFFZdXb33rW6t/+Ie3VXfddVcrNpFIJBKJxHCwnmT77bdvHSUSiX5GkpIuw5e7P/zhD1eLLbZYCUsvvXRqShOJRCKRGAVOOOGEar/99msdJRKJfkaSki7CWoFNNtmkkBGWkr/9278t/3fZZZfWFYlEIpFIJBKJxOAjSUkXccstt1Tvec97ys4h1157bXXZZZdVG264YfX+97+/evTRR1tXJRKJRCKRaIIthNPtOZEYDCQp6SJsdxxfaD7nnHOqq6++uvx/+umny+K9RCKRSCQSQ4Pr1qabbto6SiQS/YwkJT2CzTbbLP1iE4lEIpFYAFxyySXVaaed1jpKJBL9jCQlPYIHHnigfFAwkUgkEolEIpGYaEhS0iN4/fXXqz/+8Y+to0QikUgkEiOB2/N5553XOkokEv2MJCU9gr333rs65phjWkeJRCKRSCRGwr777lttvPHGraNEItHPSFLSI9h1112rGTNmtI4SiUQikUiMhLvvvru6+eabW0eJRKKfkaSkR/Dyyy9Xr7zySusokUgkEolEIpGYOEhS0iOwyP3Xv/516yiRSCQSicRIsPPWIYcc0jpKJBL9jCQlPQIfUNx///1bR4lEIpFIJEbC1KlTq6222qp1lEgk+hlJSnoEFrmfddZZraNEIpFIJBIj4bnnnisfHE4kEv2PJCWJRCKRSCT6Ei+++GIhJolEov+RpKRHYK/1W2+9tXWUSCQSiURiJBx22GHVtttu2zpKJBL9jCQlPYJNN9202muvvVpHiUQikUgkRsJJJ52U6zETiQFBkpIewWWXXVbdcsstraNEIpFIJBKjwR//+MfWv0Qi0c9IUtJDuO+++6rtttuu7CRy0003zYvbcccdy+5c1113XYl76KGHyscWxf3sZz8rcbYU3mOPPUrcJZdcUuJsMbzPPvuUuAsuuKDEPfPMM0WrJO6cc84pcc8//3zZwUTc6aefXuL46R5++OEl7uSTT67+/Oc/l2+pHHnkkSXu+OOPr15//fXqtddeq4477rgSd/TRR5dvrfzpT38q2itx06dPr1566aWS5qxZs0qc7RtfeOGFEnfmmWeWuAMOOKD67W9/W+LOP//8Ejd58uTqN7/5TYm76KKLShxr0q9+9asSd8UVV5S43XbbrXrkkUdK3DXXXFPidtppp+qBBx4ocTfccEP1gx/8oNp+++3Lh7aAq9wPf/jDaptttqluu+22EnfHHXfMq//4GNe9997bWP+77LJLiYv6f+yxx+bV/6WXXlrinnzyyXn1f+GFF5a4pvrnD33wwQeXuDPOOKPE1ev/lFNOma/+TzjhhDIRv/rqq9XMmTNLXL3+TzzxxBLng5y///3vS5q2zhR36KGHzlf/Bx544Lz6P++880pcvf5nz55d4vbee+/q8ccfL3GXX355iVP/jz76aInjhiiuXv/XX3/9fPWvfrfeeuvidhH1f/vttzfW/w477FDSnDNnTol78MEHq5133rnEXXXVVSVO/e++++4lDsGHJ554Yr76tyB2ypQpJe7cc88tcc8+++y8+o/2/7vf/W5e/Z966qml/v/whz8MW/82q3As/sc//nGJU//uA+mIU//SB+9bnPpXDqjX/1NPPVXiov2rf88FnlOc5476Vx/i1E+9/sWpx3vuuafEUYBo/+pfvYNfx95L1L/rF6X+lVec8oPnifr3nOC5DzrooBIX7V/9qCdx6g3Uo/oUp37b699v1L/3I66p/r3X9vr3/qP+tQtxyhkLqLUfcUPVv+eHev2rJ1Bv4ur1H+1fe4/61w/Uv/cSCir9Rb/Rf7xH8F6j/vU38P6j/vVL0E/b619/1q7E1etf+xNnPICm+jeO1OvfOGO80e7FNdW//qL+9R/jmDj1b3wD/U2c+o91IcPVv/5sXAXjrDhzQoxJiUSiv5GkpIdAeEdCTFwhNJoI7r///hIXg7ZB3sQkLiZSAqtJUBzBF0wQBGhxMbgjEQ8//HCJC4EHuTCpiYtvpZhYTLTiYhIwCSE/4kwCJhrBf3HIgmvAxC3O9dICaYuTlzzBJCkOqVA2UC5xyukZwDOJ84zxkUlCtDh1EYKHOhKnzkIYR7rEqdsgSCZdAq8QAoqJ0jXimupfOjBS/Ydwr5wLWv9BAkZb/+La6198U/1LR9yi1L/naap/zw+jrX/1G/UfAkpT/bt+LOvf87TXv+f2/OKi/auf4epf/Ub9q3dx3ap/zx31rz7ENdW/uPb2r74XtP6lu6D1Xx+Thqv/aP/1PhH1rx7Hov691wWtf+1H3GjrX/0MV//R/tvrX5wQY5LrXeP+ev3HO4k5oRfq3zgU9R9jkuvFQb3+4500zQmLUv+JRKK/kaQkkUgkEolEIpFIdBVJShKJRCKRSCQSiURXkaQkkUgkEolEIpFIdBVJShKJRCKRSCQSiUQXUVX/HyMvtGswUyKfAAAAAElFTkSuQmCC;" vertex="1" parent="1">
          <mxGeometry x="170" y="200" width="805" height="542" as="geometry" />
        </mxCell>
        <mxCell id="5VXbH5QCggrDfbLO163V-2" value="&lt;h1 id=&quot;firstHeading&quot; class=&quot;firstHeading mw-first-heading&quot; style=&quot;color: rgb(0, 0, 0); font-weight: normal; margin: 0px; padding: 0px; overflow: hidden; border: 0px; font-size: 1.8em; font-family: &amp;quot;Linux Libertine&amp;quot;, Georgia, Times, &amp;quot;Source Serif Pro&amp;quot;, serif; line-height: 1.375; overflow-wrap: break-word; flex-grow: 1; font-style: normal; font-variant-ligatures: normal; font-variant-caps: normal; letter-spacing: normal; orphans: 2; text-align: start; text-indent: 0px; text-transform: none; widows: 2; word-spacing: 0px; -webkit-text-stroke-width: 0px; background-color: rgb(255, 255, 255); text-decoration-thickness: initial; text-decoration-style: initial; text-decoration-color: initial;&quot;&gt;&lt;span class=&quot;mw-page-title-main&quot;&gt;C4 model&lt;/span&gt;&lt;/h1&gt;" style="text;whiteSpace=wrap;html=1;" vertex="1" parent="1">
          <mxGeometry x="340" y="120" width="120" height="50" as="geometry" />
        </mxCell>
      </root>
    </mxGraphModel>
  </diagram>
</mxfile>
